<svg width="48" height="55" viewBox="0 0 48 55" fill="none" xmlns="http://www.w3.org/2000/svg">
<path fill-rule="evenodd" clip-rule="evenodd" d="M20.072 0.0356563C16.4685 0.2691 13.7703 0.593896 11.2363 1.09895C5.31293 2.27981 1.72205 4.04311 0.444929 6.39791C0.108194 7.01883 0.0853829 7.1251 0.0859158 8.07348C0.0863422 8.98093 0.118108 9.14647 0.391418 9.66665C1.03195 10.8858 2.40916 12.0251 4.32404 12.9198C10.1574 15.6458 21.8152 16.7767 32.3305 15.6365C40.6426 14.7354 46.0945 12.6095 47.6407 9.66665C47.9142 9.14615 47.9456 8.98146 47.9456 8.07348C47.9456 7.1655 47.9142 7.00081 47.6407 6.48031C45.9832 3.32572 40.1269 1.16216 30.7316 0.233391C29.08 0.0700866 21.6631 -0.067528 20.072 0.0356563ZM0.0687541 14.5779C0.326288 17.0416 2.92498 19.126 7.44046 20.4909C9.81093 21.2074 14.3583 21.9806 17.4604 22.1946C17.9881 22.2311 18.5997 22.2867 18.8195 22.3185L19.2193 22.376V23.926V25.476L18.2332 25.4038C10.5911 24.8433 4.40932 23.2548 0.831551 20.9321L0.085383 20.4477L0.049247 20.8429C-0.0973216 22.4466 1.23843 24.1406 3.61923 25.3703C6.81763 27.0222 11.2009 28.0128 18.2066 28.667C20.5209 28.883 28.0378 28.8481 30.4651 28.6098C34.6224 28.202 37.9201 27.6365 40.5188 26.8859C44.6221 25.7006 47.2665 23.9357 47.8418 21.9984C47.9686 21.5715 48 20.7189 48 17.7033V13.9409L47.3338 14.3751C46.4142 14.9745 44.1117 16.0775 42.8301 16.5326C37.804 18.3174 31.7921 19.1794 24.2825 19.192C14.0284 19.2092 5.15218 17.4405 0.895508 14.5319L0 13.92L0.0687541 14.5779ZM25.615 24.0628V25.6617H24.016H22.4171V24.0628V22.4639H24.016H25.615V24.0628ZM0.0594803 27.3568C0.23888 29.3349 2.14864 31.2412 5.20196 32.4901C8.00105 33.6349 11.8964 34.4613 16.4964 34.8858C17.4956 34.978 18.517 35.0778 18.7662 35.1077L19.2193 35.1618V36.7146V38.2675L18.2332 38.1952C10.7121 37.6436 4.47551 36.0625 0.991444 33.8239C0.610365 33.5791 0.231099 33.3379 0.148701 33.2879C-0.122798 33.1231 0.088048 34.3593 0.460492 35.1157C1.12138 36.4581 2.43922 37.5699 4.53904 38.5566C12.2143 42.163 29.9705 42.7157 40.5188 39.6763C44.6168 38.4956 47.2664 36.7276 47.8418 34.7898C47.9684 34.3635 48 33.5163 48 30.5457C48 28.5044 47.9833 26.8343 47.9627 26.8343C47.9422 26.8343 47.4745 27.1062 46.9234 27.4386C43.2986 29.6245 37.7964 31.0929 30.8381 31.7309C22.116 32.5307 11.7153 31.5978 5.25526 29.4362C3.85929 28.969 1.33958 27.7381 0.575935 27.1501L0.000639628 26.7071L0.0594803 27.3568ZM25.615 36.8542V38.4532H24.016H22.4171V36.8542V35.2553H24.016H25.615V36.8542ZM0.0598001 40.1513C0.23888 42.1261 2.15077 44.0335 5.20196 45.2816C8.00105 46.4264 11.8964 47.2527 16.4964 47.6773C17.4956 47.7695 18.517 47.8693 18.7662 47.8991L19.2193 47.9533V49.4923V51.0314H18.9166C18.3548 51.0314 15.2332 50.7137 13.623 50.4925C8.24036 49.7532 3.70536 48.3661 1.0263 46.6393C0.626035 46.3813 0.231099 46.1293 0.148701 46.0793C-0.112351 45.9208 0.0862357 47.1248 0.448873 47.8999C1.89527 50.9908 7.28281 53.1631 15.8615 54.1146C25.2514 55.156 35.896 54.3061 42.027 52.0253C44.8987 50.9571 46.7581 49.6523 47.5872 48.1234L47.9467 47.4605L47.9783 43.5431C47.9956 41.3886 47.9848 39.6257 47.9542 39.6257C47.9235 39.6257 47.5735 39.8455 47.1764 40.1142C43.974 42.2811 38.0823 43.8609 30.7316 44.5237C21.5608 45.3506 10.9945 44.3309 4.75245 42.0166C3.38632 41.5102 1.58081 40.6088 0.702996 39.9953L0.00117251 39.5046L0.0598001 40.1513ZM25.615 49.6457V51.2446H24.016H22.4171V49.6457V48.0467H24.016H25.615V49.6457Z" fill="white"/>
</svg>
