<svg width="42" height="38" viewBox="0 0 42 38" fill="none" xmlns="http://www.w3.org/2000/svg">
<path d="M37.7117 0.142578C38.7347 0.142578 39.7158 0.548954 40.4391 1.27231C41.1625 1.99566 41.5689 2.97674 41.5689 3.99972V27.146C41.5689 28.169 41.1625 29.1501 40.4391 29.8734C39.7158 30.5968 38.7347 31.0032 37.7117 31.0032H27.8529V35.2854H30.8563C31.1673 35.2855 31.4676 35.3983 31.7018 35.6028C31.936 35.8074 32.0881 36.0899 32.13 36.398L32.142 36.5712C32.1424 36.8821 32.0301 37.1827 31.8258 37.4172C31.6216 37.6518 31.3393 37.8043 31.0312 37.8466L30.8563 37.8569H11.142C10.8163 37.8568 10.5027 37.733 10.2647 37.5106C10.0266 37.2882 9.88189 36.9838 9.85969 36.6588C9.83749 36.3338 9.93948 36.0125 10.145 35.7598C10.3506 35.5071 10.6444 35.3418 10.9672 35.2974L11.142 35.2854H14.142V31.0032H4.28488C3.2619 31.0032 2.28082 30.5968 1.55747 29.8734C0.834111 29.1501 0.427734 28.169 0.427734 27.146V3.99972C0.427734 2.97674 0.834111 1.99566 1.55747 1.27231C2.28082 0.548954 3.2619 0.142578 4.28488 0.142578H37.7117ZM25.2814 31.0032H16.7134V35.2854H25.2832L25.2814 31.0032Z" fill="white"/>
</svg>
