<svg width="48" height="48" viewBox="0 0 48 48" fill="none" xmlns="http://www.w3.org/2000/svg">
<path fill-rule="evenodd" clip-rule="evenodd" d="M24.534 0.134258C21.3806 0.624698 18.5198 2.05288 16.1894 4.30027C15.0705 5.37933 13.9988 6.7324 13.402 7.81981L13.0176 8.52021H12.4317C10.6604 8.52021 8.57003 9.57367 7.29564 11.1084C6.5145 12.049 5.72023 13.961 5.72023 14.9005C5.72023 15.0982 5.65374 15.183 5.42418 15.2781C4.8757 15.5053 3.78013 16.2793 3.10327 16.9178C1.09772 18.8097 0 21.329 0 24.0399C0 28.2044 2.6991 31.9572 6.73656 33.4066C7.95131 33.8426 8.78496 33.933 11.5934 33.933H14.1599V38.1529V42.3727L12.6361 42.3689L11.1123 42.365L10.8939 41.8995C10.6202 41.3161 9.85661 40.4724 9.31469 40.1548C7.98694 39.3766 6.2705 39.3745 4.94866 40.1491C4.44809 40.4425 3.64622 41.2799 3.3966 41.77C2.75134 43.0368 2.75134 44.5218 3.3966 45.7886C3.64622 46.2788 4.44809 47.1162 4.94866 47.4095C6.2705 48.1842 7.98694 48.182 9.31469 47.4039C9.85661 47.0863 10.6202 46.2426 10.8939 45.6591L11.1123 45.1936L14.0427 45.1898L16.9731 45.1859V39.5595V33.933H19.7864H22.5996L22.5958 36.8635L22.5919 39.7939L22.1264 40.0122C21.5429 40.286 20.6993 41.0496 20.3816 41.5915C19.6382 42.8601 19.598 44.4576 20.276 45.7886C20.5256 46.2788 21.3275 47.1162 21.828 47.4095C23.1458 48.1818 24.8666 48.1818 26.1844 47.4095C26.685 47.1162 27.4868 46.2788 27.7365 45.7886C28.4144 44.4576 28.3742 42.8601 27.6308 41.5915C27.3132 41.0496 26.4695 40.286 25.886 40.0122L25.4205 39.7939L25.4167 36.8635L25.4128 33.933H28.2261H31.0393V39.5595V45.1859L33.9697 45.1898L36.9002 45.1936L37.1185 45.6591C37.3922 46.2426 38.1558 47.0863 38.6977 47.4039C40.0255 48.182 41.7419 48.1842 43.0638 47.4095C43.5643 47.1162 44.3662 46.2788 44.6158 45.7886C45.2643 44.5156 45.2648 42.9505 44.6175 41.6795C44.3667 41.1871 43.655 40.4407 43.1595 40.1503C41.8253 39.3684 40.0365 39.3702 38.6977 40.1548C38.1558 40.4724 37.3922 41.3161 37.1185 41.8995L36.9002 42.365L35.3763 42.3689L33.8525 42.3727V38.1609V33.9491L36.783 33.9103C39.4014 33.8756 39.79 33.8504 40.4331 33.6735C42.2986 33.1601 43.709 32.3417 45.065 30.9856C46.4287 29.622 47.2668 28.1725 47.7434 26.3537C47.9905 25.4109 48.0779 23.5842 47.9223 22.6136C47.5718 20.4254 46.5201 18.4375 44.9092 16.9178C44.2389 16.2856 43.1379 15.5057 42.6019 15.2837C42.3248 15.1689 42.3184 15.1508 42.2596 14.3228C42.0051 10.7375 40.3626 7.18927 37.7384 4.556C35.3368 2.14581 32.3372 0.621697 29.0291 0.130414C27.8475 -0.0450381 25.675 -0.0431626 24.534 0.134258ZM27.0318 14.4195C29.0849 14.8331 31.2448 15.7582 32.9148 16.9394C34.0012 17.7078 35.7727 19.4591 36.4973 20.4812C36.7915 20.8962 37.0572 21.3011 37.088 21.381C37.1295 21.4895 36.8482 21.7062 35.9815 22.2337L34.8191 22.941L34.232 22.1091C32.4731 19.6171 29.6613 17.8042 26.5147 17.1338C25.1498 16.8429 22.8633 16.8428 21.4993 17.1334C18.9524 17.6761 16.8821 18.7983 15.0957 20.6043C14.5531 21.1529 13.9046 21.904 13.6547 22.2734L13.2002 22.9451L12.0344 22.2358C11.165 21.7067 10.8829 21.4895 10.9244 21.381C10.9552 21.3011 11.2209 20.8962 11.5151 20.4812C12.2392 19.4597 14.0105 17.7083 15.0977 16.9388C16.8013 15.733 19.2085 14.7276 21.193 14.3934C21.683 14.3109 22.1893 14.2249 22.3183 14.2024C22.4472 14.1798 23.3334 14.1737 24.2875 14.1888C25.6081 14.2096 26.2635 14.2647 27.0318 14.4195ZM25.7053 19.9108C27.7546 20.2697 29.645 21.2756 31.0593 22.7596C31.812 23.5493 32.394 24.3645 32.2828 24.4733C32.2436 24.5117 31.7262 24.8413 31.1331 25.2057L30.0547 25.8684L29.8703 25.6105C29.7688 25.4687 29.3204 24.9878 28.8737 24.5419C28.2022 23.8717 27.9092 23.6564 27.1826 23.2995C25.9684 22.7032 25.3138 22.5484 24.0062 22.5484C22.6992 22.5484 22.044 22.7033 20.8319 23.2985C20.1227 23.6467 19.8077 23.8755 19.1844 24.494C18.7606 24.9148 18.3111 25.3959 18.1857 25.5633L17.9578 25.8676L16.8095 25.1576C15.5033 24.3499 15.5439 24.4741 16.2742 23.5207C17.6697 21.699 19.9331 20.3334 22.2558 19.912C23.1744 19.7453 24.7573 19.7447 25.7053 19.9108ZM24.8609 25.587C25.6569 25.7346 26.6469 26.2691 27.1399 26.8173C27.3758 27.0797 27.5483 27.3276 27.5231 27.3682C27.4981 27.4088 26.9697 27.7488 26.3489 28.1239L25.2203 28.8057L24.9353 28.5328C24.6771 28.2854 24.5898 28.2597 24.0062 28.2597C23.4227 28.2597 23.3354 28.2854 23.0771 28.5328L22.7921 28.8057L21.6635 28.1239C21.0428 27.7488 20.5143 27.4088 20.4893 27.3682C20.3985 27.2213 21.288 26.3628 21.8307 26.0735C22.8323 25.5397 23.7826 25.3871 24.8609 25.587Z" fill="white"/>
</svg>
