<svg width="48" height="48" viewBox="0 0 48 48" fill="none" xmlns="http://www.w3.org/2000/svg">
<path fill-rule="evenodd" clip-rule="evenodd" d="M3.20914 0.146093C1.82229 0.518944 0.526114 1.83142 0.161132 3.23251C-0.053773 4.05775 -0.049651 11.1853 0.166284 12.0215C0.548222 13.5009 1.80477 14.7371 3.30994 15.1147C3.86135 15.2529 5.76842 15.267 24 15.267C42.2316 15.267 44.1386 15.2529 44.6901 15.1147C46.1952 14.7371 47.4518 13.5009 47.8337 12.0215C48.0503 11.1829 48.0538 4.05757 47.838 3.22933C47.5703 2.20127 46.8028 1.20216 45.8204 0.602789C44.7543 -0.0476396 46.3551 -0.0037031 23.9569 0.00313563C6.52049 0.00847546 3.64757 0.0282422 3.20914 0.146093ZM8.11532 4.50808C8.64668 4.75015 8.6805 4.90819 8.71329 7.30409C8.72996 8.51492 8.71741 9.68106 8.68537 9.8955C8.57633 10.6269 7.88805 11.0236 7.21551 10.7426C6.62429 10.4955 6.5753 10.2591 6.5753 7.6552C6.5753 6.1934 6.61361 5.25481 6.68125 5.06089C6.86899 4.52222 7.56092 4.25551 8.11532 4.50808ZM12.7817 4.77039L13.0393 5.05874V7.64068V10.2226L12.7702 10.4917C12.289 10.9729 11.7286 10.9729 11.2474 10.4917L10.9783 10.2226V7.65183C10.9783 5.1675 10.9851 5.07241 11.1786 4.82641C11.4411 4.49262 11.6918 4.39341 12.1493 4.44213C12.419 4.47089 12.5963 4.56288 12.7817 4.77039ZM16.8922 4.54667C17.3933 4.8058 17.4423 5.08131 17.4423 7.63825C17.4423 10.2608 17.394 10.4952 16.8021 10.7426C16.1296 11.0236 15.4413 10.6269 15.3322 9.8955C15.3002 9.68106 15.2876 8.51492 15.3043 7.30409C15.3305 5.39365 15.356 5.07213 15.4976 4.87212C15.8287 4.40437 16.3719 4.27762 16.8922 4.54667ZM33.6225 5.6805C34.9548 6.31275 35.2739 8.08164 34.2434 9.12281C33.6486 9.72378 32.5927 9.91536 31.8171 9.56312C31.1262 9.24928 30.5577 8.37758 30.5577 7.63197C30.5577 6.88636 31.1262 6.01466 31.8171 5.70083C32.3021 5.48058 33.1803 5.47065 33.6225 5.6805ZM40.1653 5.70083C40.8562 6.01466 41.4247 6.88636 41.4247 7.63197C41.4247 8.37758 40.8562 9.24928 40.1653 9.56312C39.3897 9.91536 38.3338 9.72378 37.739 9.12281C37.3616 8.74144 37.2011 8.38892 37.1413 7.80959C37.0519 6.94313 37.5399 6.0807 38.3437 5.68481C38.7751 5.47225 39.6796 5.48021 40.1653 5.70083ZM3.85854 16.3626C2.94862 16.4648 1.99485 16.9474 1.26985 17.6723C0.728746 18.2135 0.406108 18.7695 0.168626 19.57C-0.0562087 20.3277 -0.0562087 27.6309 0.168626 28.3887C0.609958 29.8763 1.61666 30.9147 3.12839 31.4415C3.60457 31.6074 4.43674 31.6144 24 31.6144C43.5633 31.6144 44.3954 31.6074 44.8716 31.4415C46.3833 30.9147 47.39 29.8763 47.8314 28.3887C48.0562 27.6309 48.0562 20.3277 47.8314 19.57C47.3975 18.1076 46.4463 17.1097 44.9244 16.5205C44.4842 16.3501 43.8083 16.344 24.3279 16.3351C13.2501 16.33 4.03888 16.3424 3.85854 16.3626ZM8.36892 21.0408C8.6939 21.3348 8.74355 21.7887 8.71282 24.1835C8.6849 26.3582 8.67151 26.5112 8.48696 26.7597C8.09462 27.2884 7.34704 27.323 6.85906 26.8351L6.62214 26.5982V23.9848V21.3714L6.85119 21.1276C7.25683 20.6957 7.94426 20.6565 8.36892 21.0408ZM12.5554 20.9138C13.0048 21.1355 13.0393 21.3541 13.0393 23.9793C13.0393 26.6257 13.0089 26.8114 12.5325 27.0663C12.0242 27.3384 11.3574 27.1575 11.1109 26.6806C11.0065 26.4789 10.9783 25.9039 10.9783 23.9793C10.9783 21.3539 11.013 21.1343 11.4622 20.9148C11.9244 20.6889 12.0989 20.6887 12.5554 20.9138ZM17.1586 21.1236L17.3955 21.3605V23.9793V26.5982L17.1586 26.8351C16.6705 27.3231 15.9228 27.2884 15.5307 26.7595C15.343 26.5065 15.3345 26.3858 15.3345 23.9793C15.3345 21.5729 15.343 21.4522 15.5307 21.1992C15.9228 20.6703 16.6705 20.6356 17.1586 21.1236ZM33.5555 22.0199C34.1221 22.2768 34.3811 22.5312 34.6443 23.0894C34.9176 23.6689 34.927 24.2596 34.6718 24.8225C34.4149 25.3891 34.1605 25.6481 33.6023 25.9113C32.6506 26.3601 31.5582 26.0542 30.9644 25.1727C30.2279 24.0792 30.5853 22.6975 31.7628 22.0858C32.3734 21.7686 32.954 21.7472 33.5555 22.0199ZM40.361 22.1605C40.6367 22.3309 40.9206 22.6161 41.0944 22.8971C41.3356 23.2873 41.3779 23.4487 41.3779 23.9793C41.3779 24.51 41.3356 24.6714 41.0944 25.0616C40.1754 26.5479 38.0677 26.4422 37.3371 24.8732C37.0651 24.289 37.0561 23.6977 37.3106 23.1362C37.5664 22.572 37.82 22.3125 38.3801 22.0422C39.0246 21.731 39.7351 21.7734 40.361 22.1605ZM3.25804 32.8502C1.79343 33.2339 0.541477 34.4839 0.166284 35.9372C-0.0503068 36.7758 -0.053773 43.9011 0.161975 44.7294C0.429716 45.7574 1.19725 46.7565 2.17959 47.3559C3.24512 48.006 1.65263 47.9617 24 47.9617C46.3474 47.9617 44.7549 48.006 45.8204 47.3559C46.8028 46.7565 47.5703 45.7574 47.838 44.7294C48.0538 43.9011 48.0503 36.7758 47.8337 35.9372C47.4518 34.4578 46.1952 33.2216 44.6901 32.844C44.1382 32.7057 42.2418 32.6924 23.9472 32.6984C6.08553 32.7044 3.74922 32.7216 3.25804 32.8502ZM8.11673 37.2395C8.66111 37.4978 8.68312 37.6179 8.68312 40.3267C8.68312 43.0013 8.65483 43.1664 8.15242 43.4262C7.81873 43.5987 7.47745 43.594 7.12539 43.412C6.62429 43.1529 6.5753 42.8774 6.5753 40.3204C6.5753 37.7406 6.6286 37.4663 7.17682 37.2276C7.55633 37.0624 7.74865 37.0648 8.11673 37.2395ZM12.4762 37.2347C13.0341 37.5232 13.0393 37.5521 13.0393 40.3461V42.9L12.7659 43.2059C12.5241 43.4767 12.4368 43.5119 12.0088 43.5119C11.5808 43.5119 11.4936 43.4767 11.2517 43.2059L10.9783 42.9V40.3659C10.9783 38.7544 11.0146 37.7641 11.078 37.6457C11.2081 37.4025 11.7166 37.0955 11.9901 37.0951C12.1085 37.0949 12.3273 37.1577 12.4762 37.2347ZM16.8203 37.2237C17.3914 37.4623 17.4423 37.716 17.4423 40.3204C17.4423 42.8774 17.3933 43.1529 16.8922 43.412C16.5402 43.594 16.1989 43.5987 15.8652 43.4262C15.3628 43.1664 15.3345 43.0013 15.3345 40.3267C15.3345 37.6305 15.3572 37.5037 15.8861 37.2428C16.249 37.0638 16.4287 37.0601 16.8203 37.2237ZM33.6023 38.3949C34.9484 39.0125 35.2864 40.7478 34.2652 41.7993C34.0929 41.9766 33.8036 42.1922 33.6225 42.2782C33.1803 42.488 32.3021 42.4781 31.8171 42.2579C31.1262 41.944 30.5577 41.0723 30.5577 40.3267C30.5577 39.5811 31.1262 38.7094 31.8171 38.3956C32.3105 38.1715 33.1147 38.1712 33.6023 38.3949ZM40.1653 38.3956C40.8562 38.7094 41.4247 39.5811 41.4247 40.3267C41.4247 41.0723 40.8562 41.944 40.1653 42.2579C39.6803 42.4781 38.8021 42.488 38.3599 42.2782C37.0276 41.6459 36.7085 39.877 37.739 38.8359C38.3338 38.2349 39.3897 38.0433 40.1653 38.3956Z" fill="white"/>
</svg>
