<svg width="48" height="49" viewBox="0 0 48 49" fill="none" xmlns="http://www.w3.org/2000/svg">
<path fill-rule="evenodd" clip-rule="evenodd" d="M13.5474 0.219228C12.5303 0.692848 12.0047 1.5512 12.0032 2.74082L12.0022 3.46752H19.7381H27.4739V2.87172C27.4739 2.36922 27.5099 2.2371 27.7038 2.02782L27.9338 1.77971H31.8764C35.1388 1.77971 35.8192 1.75767 35.8192 1.65218C35.8192 1.485 35.3879 0.841469 35.1306 0.624867C35.0194 0.531193 34.7174 0.352284 34.4596 0.227199L33.9907 0H24.0045H14.0182L13.5474 0.219228ZM0 5.99924V8.62473H3.42251H6.84503V5.99924V3.37375H3.42251H0V5.99924ZM29.1617 7.68706V12.0004H37.7414H46.3211V7.68706V3.37375H37.7414H29.1617V7.68706ZM5.15721 5.99924V6.84315H3.4694H1.78158V5.99924V5.15534H3.4694H5.15721V5.99924ZM12.0022 7.46277V9.77029L12.2368 9.71141C12.3657 9.67906 12.6716 9.62955 12.9166 9.60142C13.8707 9.4919 13.7838 9.63695 13.7838 8.15412V6.84315H14.5808H15.3779V8.15412C15.3779 9.43892 15.3821 9.46592 15.5888 9.50615C15.7049 9.52865 16.1163 9.59673 16.5031 9.6574C17.7658 9.85525 19.4407 10.5037 20.5744 11.2336C23.249 12.9556 25.0898 15.826 25.5462 18.986L25.6546 19.7362L26.9393 19.7622L28.224 19.7883V20.5801V21.3719L26.9393 21.3979L25.6546 21.424L25.5462 22.1741C25.0354 25.7114 22.8579 28.7924 19.7363 30.3945C18.412 31.0744 16.9616 31.5198 15.7529 31.618L15.4248 31.6447L15.3987 32.934L15.3726 34.2233H14.5782H13.7838V32.9592C13.7838 31.5381 13.8628 31.6767 12.9868 31.5593C12.7805 31.5317 12.4745 31.4815 12.307 31.4479L12.0022 31.3868V34.1178V36.8488L14.9325 36.8493C16.6735 36.8496 18.0053 36.8894 18.2141 36.9474C18.7932 37.1082 18.8473 37.3156 18.8473 39.3758V41.1621H27.427H36.0067L36.0037 38.8413L36.0008 36.5206L35.8004 36.8019C35.2821 37.5296 34.3513 38.3238 33.5666 38.7081C32.2246 39.3652 32.1006 39.3805 28.1033 39.3805H24.5526L24.2786 39.1064C23.8667 38.6946 23.9513 38.1566 24.4766 37.8462C24.8785 37.6088 25.3004 37.1556 25.5199 36.7252C25.6865 36.3988 25.7259 36.0913 25.7856 34.6497C25.8464 33.182 25.8868 32.8735 26.0902 32.3252C26.5674 31.0394 27.5085 29.8692 28.5975 29.2076C29.1615 28.865 30.4125 28.4097 30.7896 28.4097C30.919 28.4097 31.1337 28.3683 31.2668 28.3177C31.3998 28.2671 32.5208 27.3322 33.7577 26.2401L36.0067 24.2546V18.9713V13.6882H32.0144H28.022L27.748 13.4141L27.4739 13.14V9.14768V5.15534H19.7381H12.0022V7.46277ZM34.2251 5.99924V6.84315H32.5373H30.8495V5.99924V5.15534H32.5373H34.2251V5.99924ZM44.5396 5.99924V6.84315H40.2731H36.0067V5.99924V5.15534H40.2731H44.5396V5.99924ZM44.5396 9.42176V10.2188H37.6945H30.8495V9.42176V8.62473H37.6945H44.5396V9.42176ZM12.9505 11.2613C11.0901 11.5738 9.033 12.6883 7.71397 14.0983C6.39007 15.5135 5.35028 17.6839 5.23748 19.2673L5.2041 19.7362L6.02456 19.7633L6.84503 19.7904V20.5837V21.3771H5.99793H5.15074L5.21347 21.8694C5.45952 23.8007 6.63743 26.0858 8.07835 27.4273L8.57973 27.894L8.63524 27.083C8.76557 25.1787 9.77751 23.4319 11.3282 22.4344L11.8264 22.114L11.4375 21.6921C10.6059 20.7899 10.1848 19.3784 10.3902 18.1808C10.8707 15.3786 13.8302 13.8045 16.3793 14.9955C18.9358 16.1899 19.6175 19.5567 17.7321 21.6763L17.3409 22.1161L17.8831 22.4852C19.4263 23.5355 20.3557 25.158 20.5248 27.0969L20.5942 27.894L21.2638 27.215C22.0414 26.4267 22.5465 25.7129 23.0711 24.6616C23.4508 23.9007 23.8749 22.4844 23.9283 21.7991L23.9576 21.424L23.1371 21.3969L22.3167 21.3698V20.5801V19.7904L23.1371 19.7633L23.9576 19.7362L23.9306 19.408C23.7573 17.3024 22.402 14.8015 20.6512 13.3565C19.3825 12.3095 17.8876 11.6009 16.3201 11.3036C15.8937 11.2227 15.5072 11.1565 15.4613 11.1565C15.4154 11.1565 15.3779 11.5362 15.3779 12.0004V12.8443H14.5845H13.7911L13.764 12.0248C13.7335 11.1009 13.7596 11.1254 12.9505 11.2613ZM14.1329 16.3262C12.1087 16.6261 11.2787 19.2783 12.7676 20.6891C13.8541 21.7186 15.5316 21.6614 16.4996 20.5618C17.6309 19.2765 17.2348 17.3259 15.6763 16.5081C15.3482 16.336 14.6349 16.2519 14.1329 16.3262ZM46.3589 17.3686C45.8979 17.7305 33.0544 29.0768 33.0293 29.1443C33.0163 29.1796 33.6761 29.8779 34.4957 30.6962L35.9857 32.1841L36.3122 31.8207C38.6827 29.1811 47.6988 18.9151 47.8312 18.7047C48.4432 17.7326 47.2615 16.66 46.3589 17.3686ZM13.1671 23.3803C12.3899 23.6693 12.0218 23.9116 11.4645 24.5008C10.5921 25.4233 10.2976 26.2691 10.2796 27.9047L10.2675 28.9997L10.9128 29.2742C11.6586 29.5916 12.7073 29.875 13.315 29.9233L13.7369 29.9568L13.764 29.1364L13.7911 28.3159H14.5845H15.3779V29.164V30.0123L15.7295 29.9547C16.6325 29.807 17.4438 29.5941 18.115 29.3289L18.8473 29.0395V27.8485C18.8473 26.9055 18.8085 26.545 18.6615 26.1175C18.2029 24.7847 17.2235 23.8038 15.8948 23.3466C15.1218 23.0807 13.9336 23.0953 13.1671 23.3803ZM30.576 30.1526C29.1812 30.5277 27.9598 31.7608 27.5644 33.1934C27.5006 33.4246 27.42 34.3311 27.3853 35.2078C27.3327 36.5355 27.2892 36.8751 27.1252 37.24C27.0169 37.4811 26.9525 37.7026 26.9823 37.7323C27.0667 37.8168 30.6376 37.7897 31.3183 37.6994C33.2682 37.4408 34.772 36.0255 35.1086 34.1321C35.1655 33.8118 35.1364 33.7766 33.2666 31.9051C32.2218 30.8594 31.3032 30.0065 31.2254 30.0099C31.1476 30.0133 30.8553 30.0775 30.576 30.1526ZM0 41.1621V43.7875H8.57973H17.1595V41.1621V38.5366H8.57973H0V41.1621ZM6.00112 41.1621V42.006H3.89135H1.78158V41.1621V40.3181H3.89135H6.00112V41.1621ZM15.3779 41.1621V42.006H11.5803H7.7827V41.1621V40.3181H11.5803H15.3779V41.1621ZM18.8321 43.874C18.8032 44.806 18.7799 44.92 18.5731 45.1399L18.3457 45.3816H15.174H12.0022L12.0032 45.6863C12.0044 46.1002 12.374 46.8642 12.7596 47.2497C12.934 47.4241 13.2885 47.6654 13.5474 47.786L14.0182 48.0052H24.0045H33.9907L34.4615 47.786C35.0598 47.5074 35.507 47.0602 35.7856 46.4619C35.9879 46.0276 36.0049 45.869 36.0058 44.4205L36.0067 42.8499H27.4352H18.8639L18.8321 43.874ZM24.8484 45.4285V46.2255H24.0045H23.1606V45.4285V44.6315H24.0045H24.8484V45.4285Z" fill="white"/>
</svg>
