<svg width="48" height="48" viewBox="0 0 48 48" fill="none" xmlns="http://www.w3.org/2000/svg">
<path d="M41.2969 15.0616C40.9844 14.999 40.75 14.9677 40.5938 14.9677C39.4375 14.9677 38.4375 15.3587 37.5938 16.1408C35.6875 15.2962 33.9062 14.608 32.25 14.0762C29.5312 13.2004 26.6875 12.4809 23.7188 11.9179C23.4375 11.1672 23.0156 10.5415 22.4531 10.0411C23.2344 6.34995 24.2812 3.00293 25.5938 0C29.5312 0.281525 33.1484 1.42326 36.4453 3.42522C39.7422 5.42718 42.4062 8.05474 44.4375 11.3079C43.2812 12.5591 42.2344 13.8104 41.2969 15.0616ZM19.5469 8.96188C18.7344 8.96188 17.9688 9.18084 17.25 9.61877C14.7188 7.74194 12.1719 6.14663 9.60938 4.83284C13.4844 1.89247 17.8281 0.281525 22.6406 0C21.4219 2.72141 20.4375 5.7087 19.6875 8.96188H19.5469ZM3.28125 11.871C4.34375 10.088 5.6875 8.39883 7.3125 6.80352C9.4375 7.89834 11.6406 9.2434 13.9219 10.8387C9.89062 10.7449 6.34375 11.089 3.28125 11.871ZM15.0469 13.7478C15.1094 14.7175 15.4453 15.5699 16.0547 16.305C16.6641 17.0401 17.4219 17.5327 18.3281 17.783C18.1406 19.9726 18.0469 22.0528 18.0469 24.0235C18.0469 25.3998 18.0938 26.9795 18.1875 28.7625C17.5 28.9814 16.8906 29.3568 16.3594 29.8886C14.6719 29.2317 13.0469 28.4809 11.4844 27.6364C11.8281 26.9482 12 26.2444 12 25.5249C12 24.2737 11.5625 23.2102 10.6875 22.3343C9.8125 21.4585 8.75 21.0205 7.5 21.0205C6.125 21.0205 4.98438 21.5523 4.07812 22.6158C2.76562 21.4272 1.59375 20.1916 0.5625 18.9091C0.84375 17.564 1.26562 16.2346 1.82812 14.9208C5.64062 13.8573 10.0469 13.4663 15.0469 13.7478ZM3.04688 25.9003C3.14062 27.0577 3.61719 28.0352 4.47656 28.8328C5.33594 29.6305 6.34375 30.0293 7.5 30.0293C7.84375 30.0293 8.21875 29.9668 8.625 29.8416C10.625 30.999 12.7656 32 15.0469 32.8446V33.0323C15.0469 34.2522 15.4609 35.2923 16.2891 36.1525C17.1172 37.0127 18.1406 37.4741 19.3594 37.5367C20.1406 41.3529 21.2344 44.8407 22.6406 48C19.5156 47.8123 16.5625 47.0538 13.7812 45.7243C11 44.3949 8.60156 42.6667 6.58594 40.5396C4.57031 38.4125 2.96875 35.9101 1.78125 33.0323C0.59375 30.1544 0 27.1515 0 24.0235C0 23.9922 0.015625 23.5699 0.046875 22.7566C0.921875 23.8514 1.92188 24.8993 3.04688 25.9003ZM23.4844 35.1437C25.7344 35.5503 28 35.8162 30.2812 35.9413C30.5 36.567 30.8438 37.1456 31.3125 37.6774C30.5938 40.9619 30.1562 44.1525 30 47.2493C28.4062 47.6559 26.9375 47.9062 25.5938 48C24.125 44.653 22.9844 40.868 22.1719 36.6452C22.7344 36.2698 23.1719 35.7693 23.4844 35.1437ZM38.0156 37.3959C38.4219 36.8954 38.7031 36.3636 38.8594 35.8006C41.1406 35.6129 43.3438 35.3157 45.4688 34.9091C43.9688 37.8495 41.9062 40.3988 39.2812 42.5572C39 40.9306 38.5781 39.2102 38.0156 37.3959ZM30.375 32.9384C28.1875 32.8133 26.0312 32.5318 23.9062 32.0938C23.5625 30.5298 22.6719 29.4506 21.2344 28.8563C21.1094 27.0108 21.0469 25.3998 21.0469 24.0235C21.0469 21.9589 21.1406 19.8162 21.3281 17.5953C21.3906 17.5953 21.4688 17.564 21.5625 17.5015C21.6562 17.4389 21.7188 17.4076 21.75 17.4076C22.9688 18.5963 24.0312 19.6911 24.9375 20.6921C27.6562 23.695 29.9688 27.1046 31.875 30.9208C31.1875 31.4526 30.6875 32.1251 30.375 32.9384ZM34.5469 39.0381C34.6094 39.0381 34.7812 39.0225 35.0625 38.9912C35.5938 40.8993 35.9844 42.7918 36.2344 44.6686C35.3281 45.2004 34.2344 45.7322 32.9531 46.2639C33.1719 43.824 33.5469 41.3998 34.0781 38.9912C34.3281 39.0225 34.4844 39.0381 34.5469 39.0381ZM34.3125 27.824C34.2812 27.8866 34.2422 27.9804 34.1953 28.1056C34.1484 28.2307 34.1094 28.3245 34.0781 28.3871C32.1094 24.8211 29.7969 21.5836 27.1406 18.6745C26.1719 17.5797 25.0156 16.391 23.6719 15.1085C23.7031 15.1085 23.7266 15.085 23.7422 15.0381L23.7656 14.9677C26.3906 15.4995 28.9062 16.1564 31.3125 16.9384C32.7812 17.4076 34.3906 18.0332 36.1406 18.8152C36.0781 19.1281 36.0469 19.3627 36.0469 19.5191C36.0469 20.4575 36.3281 21.3177 36.8906 22.0997C35.8594 24.0704 35 25.9785 34.3125 27.824ZM36.5156 30.5455C36.8906 29.4506 37.0781 28.8876 37.0781 28.8563C37.7031 27.2923 38.4844 25.6188 39.4219 23.8358C39.8281 23.9609 40.2188 24.0235 40.5938 24.0235C41.6562 24.0235 42.6094 23.6637 43.4531 22.9443C44.9844 24.0078 46.4844 25.1965 47.9531 26.5103C47.7656 28.2933 47.3906 30.0137 46.8281 31.6716C44.2656 32.2033 41.5625 32.5787 38.7188 32.7977C38.3125 31.7967 37.5781 31.0459 36.5156 30.5455ZM45.0938 19.4721C45.0938 18.4399 44.75 17.5015 44.0625 16.6569C44.7188 15.8123 45.375 15.0459 46.0312 14.3578C47.1562 16.9228 47.8125 19.566 48 22.2874C46.9688 21.5054 45.9688 20.8016 45 20.176C45.0625 19.8944 45.0938 19.6598 45.0938 19.4721Z" fill="white"/>
</svg>
