<svg width="48" height="56" viewBox="0 0 48 56" fill="none" xmlns="http://www.w3.org/2000/svg">
<path fill-rule="evenodd" clip-rule="evenodd" d="M12.0366 4.02703C5.65384 6.2427 0.350378 8.14097 0.225838 8.25449C0.00778386 8.4533 0 8.55784 0 11.2897C0 14.0849 0.00291891 14.1216 0.243243 14.3443C0.524649 14.6051 0.798378 14.6645 1.21427 14.5554C1.74443 14.4162 1.83784 14.0415 1.83784 12.0539C1.83784 11.0698 1.87427 10.264 1.91892 10.2631C1.96357 10.2622 6.73103 11.9021 12.5135 13.9074L23.027 17.5532V19.2657C23.027 21.4331 23.1439 21.7242 24.0137 21.7242C24.2098 21.7242 24.4372 21.6212 24.5995 21.4588C24.8601 21.1982 24.8649 21.1613 24.8651 19.3777L24.8653 17.5621L35.387 13.9134C41.1739 11.9066 45.9374 10.2648 45.9724 10.2648C46.0075 10.2648 46.0523 11.1123 46.0721 12.1482C46.1065 13.9468 46.1195 14.0437 46.3599 14.2994C46.671 14.6303 47.0192 14.7048 47.4358 14.5296C47.9396 14.3178 48 13.9628 48 11.2162C48 8.45222 47.9518 8.22173 47.3276 8.00011C41.2332 5.83622 24.1526 -0.00399795 23.9298 2.05369e-06C23.7603 0.00302908 18.4084 1.81525 12.0366 4.02703ZM26.3924 2.72249C27.6334 3.15265 28.6484 3.52962 28.6481 3.56033C28.6479 3.59103 27.5882 3.97816 26.2933 4.42065L23.939 5.22508L21.6722 4.43827C20.4255 4.00562 19.3707 3.61849 19.3282 3.57816C19.2448 3.49903 23.597 1.95697 23.933 1.9467C24.0448 1.94325 25.1516 2.29233 26.3924 2.72249ZM18.543 5.32908C19.7904 5.76573 20.8799 6.14552 20.9642 6.17298C21.0485 6.20043 20.0253 6.59849 18.6903 7.05762L16.263 7.89243L13.8475 7.05946L11.4319 6.22649L13.0944 5.65038C14.0086 5.33341 15.073 4.95665 15.4595 4.81297C15.8459 4.6693 16.1877 4.548 16.2187 4.54346C16.2498 4.53881 17.2958 4.89233 18.543 5.32908ZM34.1341 5.40281C35.3971 5.83838 36.4146 6.21049 36.3954 6.22984C36.376 6.24908 35.2975 6.63157 33.9987 7.07968L31.6372 7.8946L29.2229 7.05297C27.8951 6.59006 26.8701 6.19146 26.945 6.16714C27.0198 6.14281 28.1027 5.76811 29.3514 5.33449C30.6 4.90087 31.6703 4.56065 31.7297 4.57838C31.7892 4.59622 32.8711 4.96714 34.1341 5.40281ZM10.8841 8.00898C12.1222 8.43319 13.1723 8.81341 13.2178 8.85395C13.2634 8.89438 12.2417 9.29449 10.9476 9.74281L8.59459 10.5582L6.19795 9.736C4.87978 9.28389 3.81795 8.8973 3.83827 8.87698C3.89892 8.81622 8.36757 7.2547 8.50573 7.24584C8.57578 7.24141 9.64605 7.58476 10.8841 8.00898ZM26.3756 8.04508C27.6417 8.48908 28.6916 8.86616 28.7084 8.88314C28.7254 8.90011 27.6608 9.28389 26.3426 9.736L23.9459 10.5582L21.5956 9.74379C20.3029 9.29589 19.2726 8.90152 19.3062 8.86735C19.3926 8.77935 23.6938 7.26606 23.9016 7.25049C23.9961 7.24346 25.1094 7.60098 26.3756 8.04508ZM41.6757 8.00908C42.9243 8.43546 43.9797 8.8133 44.021 8.84887C44.0623 8.88433 43.0262 9.28508 41.7185 9.73946L39.341 10.5655L36.9759 9.74043C35.675 9.2866 34.6338 8.89211 34.6622 8.86379C34.7242 8.80184 39.1431 7.25698 39.2973 7.24346C39.3568 7.23816 40.427 7.58271 41.6757 8.00908ZM20.3229 11.2859C21.1772 11.5797 21.2966 11.5042 18.4276 12.4832L16.2606 13.2227L13.965 12.4309C12.7024 11.9955 11.6498 11.6078 11.6262 11.5694C11.6025 11.531 12.6377 11.1337 13.9267 10.6864L16.2703 9.87308L17.9459 10.4589C18.8676 10.7812 19.9372 11.1534 20.3229 11.2859ZM34.0811 10.7118C35.3149 11.1363 36.3243 11.5143 36.3243 11.5516C36.3243 11.589 35.2662 11.98 33.973 12.4207L31.6216 13.2218L29.5575 12.5038C28.4223 12.1089 27.352 11.7305 27.1791 11.6629C26.8832 11.5472 26.9976 11.4936 29.1351 10.7464C30.3838 10.3098 31.5027 9.94984 31.6216 9.94638C31.7405 9.94281 32.8472 10.2874 34.0811 10.7118ZM26.3243 13.3582C27.6324 13.8116 28.7164 14.1945 28.7333 14.2092C28.7502 14.2239 27.6825 14.6089 26.3608 15.0647L23.9576 15.8935L21.54 15.0576L19.1223 14.2218L21.1017 13.5397C22.1904 13.1645 23.2514 12.7897 23.4595 12.7068C23.6676 12.6239 23.8622 12.551 23.8919 12.545C23.9216 12.5389 25.0162 12.9049 26.3243 13.3582ZM0.265406 18.8545L0 19.1198L0.00345962 21.9085C0.0071353 24.9464 0.0132974 24.9784 0.628216 25.1928C0.880973 25.2809 1.03416 25.2743 1.26141 25.1653C1.812 24.9013 1.84281 24.7136 1.81211 21.8138C1.78389 19.1577 1.7827 19.1455 1.52173 18.8679C1.17222 18.4962 0.629406 18.4904 0.265406 18.8545ZM46.5574 18.7116C46.1304 18.9598 46.0541 19.4373 46.0547 21.8559C46.0554 24.5611 46.1218 24.9164 46.6702 25.1455C46.9827 25.2762 47.1143 25.2818 47.3705 25.1758C47.9721 24.9266 48.0141 24.6922 47.9783 21.7818C47.9462 19.1622 47.9444 19.145 47.6839 18.8679C47.4031 18.5692 46.9181 18.5019 46.5574 18.7116ZM17.0811 25.8876C15.7359 26.2823 15.349 26.5558 15.3539 27.1087C15.3585 27.6051 15.863 29.2028 16.0856 29.4254C16.419 29.7589 17.0505 29.7275 17.3652 29.3616C17.5063 29.1976 17.6216 28.9933 17.6216 28.9074C17.6216 28.8215 17.6582 28.7523 17.7027 28.7536C17.919 28.7598 20.8054 29.8162 20.8329 29.8991C20.8503 29.9516 18.42 30.8415 15.4322 31.8768C12.4445 32.9119 9.94346 33.779 9.87438 33.8036C9.784 33.8357 9.76519 33.6669 9.80746 33.2009C9.86119 32.6091 9.84216 32.5295 9.5867 32.2741C9.12389 31.8112 8.31633 31.9334 8.10141 32.4987C7.97362 32.8347 7.67568 34.7759 7.67568 35.2722C7.67568 35.8819 7.98843 36.0587 10.1058 36.6455C11.9108 37.1457 12.0448 37.1679 12.3907 37.0233C13.0745 36.7376 13.1389 35.8342 12.5032 35.4465C12.3157 35.3321 12.0674 35.2384 11.9514 35.2382C11.8282 35.2379 11.7832 35.2 11.8432 35.1469C11.8998 35.0971 14.1013 34.3117 16.7357 33.4017L21.5253 31.7472L21.8708 32.0816C22.9698 33.1451 24.9531 33.1319 26.0977 32.0535L26.4116 31.7578L31.1788 33.4031C33.8008 34.3081 35.9921 35.091 36.0487 35.1431C36.1102 35.1998 36.0592 35.2377 35.9218 35.2377C35.7956 35.2377 35.5426 35.3637 35.3597 35.5176C34.8096 35.9804 34.9217 36.8343 35.5617 37.0573C35.8895 37.1716 36.3705 37.0718 38.6487 36.417C40.3749 35.9208 40.4082 35.8642 40.1004 33.9464C39.9835 33.2175 39.8389 32.5299 39.7792 32.4184C39.503 31.9024 38.824 31.8565 38.3581 32.3225C38.0462 32.6345 38.0337 32.6802 38.1058 33.2566C38.1663 33.741 38.1524 33.8518 38.0368 33.8076C37.9571 33.7772 35.4595 32.9108 32.4865 31.8825C29.5135 30.8541 27.0608 29.9963 27.036 29.9765C26.9375 29.8976 27.1725 29.7935 28.4517 29.3495C30.4088 28.6703 30.2302 28.697 30.3585 29.0651C30.4922 29.4485 31.0247 29.7561 31.3943 29.6634C31.8199 29.5564 32.0719 29.18 32.3131 28.2906C32.7804 26.5669 32.6557 26.3796 30.689 25.8517C29.2337 25.461 28.943 25.4758 28.6055 25.9576C28.3852 26.2722 28.3857 26.5824 28.6071 26.8985C28.7031 27.0356 28.7397 27.1862 28.6882 27.233C28.6368 27.2799 28.1422 27.4778 27.5892 27.6731L26.5839 28.0279L26.1838 27.6443C24.9227 26.4349 23.0406 26.4074 21.8318 27.5805L21.3769 28.0219L20.4992 27.7206C18.9718 27.1963 19.0987 27.2722 19.291 26.9977C19.3837 26.8654 19.4595 26.6183 19.4595 26.4487C19.4595 26.0638 18.9304 25.505 18.5759 25.5154C18.4375 25.5195 17.7649 25.6869 17.0811 25.8876ZM24.6721 28.791C24.9046 28.9362 25.1892 29.5063 25.1892 29.827C25.1892 30.1982 24.8876 30.6799 24.5441 30.8575C23.6853 31.3016 22.7676 30.7481 22.7676 29.7861C22.7676 28.8403 23.8476 28.2761 24.6721 28.791ZM0.265406 29.7734L0 30.0387V38.4031V46.7676L0.243243 46.9919C0.393622 47.1307 4.79741 48.7116 11.7838 51.1349C17.9973 53.2902 23.2846 55.116 23.5335 55.1924C24.0282 55.3442 23.4644 55.5146 30.5405 53.0749C37.3537 50.7259 47.4022 47.2182 47.5599 47.1337C47.9978 46.8993 48.0052 46.7426 47.975 38.2462L47.9459 30.0658L47.6839 29.7869C47.341 29.4221 46.8232 29.4147 46.4115 29.7689L46.1081 30.0297L46.0782 37.4986C46.0617 41.6065 46.0131 44.968 45.9701 44.9686C45.9271 44.9693 41.1609 43.3316 35.3784 41.3294L24.8649 37.689V36.3158C24.8649 35.1115 24.8386 34.9091 24.6511 34.6708C24.3869 34.335 24.0141 34.2545 23.5759 34.4388C23.1139 34.633 23.027 34.9475 23.027 36.4243V37.7049L22.0811 38.0266C21.5609 38.2036 16.8391 39.8376 11.5884 41.6578C6.33773 43.4782 1.99687 44.9675 1.94195 44.9675C1.88227 44.9675 1.83049 41.9749 1.81297 37.5166L1.78378 30.0658L1.52173 29.7869C1.17232 29.415 0.629514 29.4092 0.265406 29.7734ZM23.0005 42.3274C22.9822 42.3457 22.1027 42.0623 21.0463 41.6975L19.1254 41.0343L21.0492 40.3665L22.973 39.6987L23.0035 40.9963C23.0202 41.7099 23.0189 42.309 23.0005 42.3274ZM28.7322 41.0191C28.7484 41.0331 27.9457 41.3257 26.9484 41.6695C25.9511 42.0133 25.0744 42.3174 25 42.3453C24.8963 42.3842 24.8649 42.0789 24.8649 41.0359V39.6758L26.7838 40.3348C27.8391 40.6973 28.716 41.0053 28.7322 41.0191ZM18.5842 42.8187C19.8089 43.2422 20.8496 43.624 20.897 43.6669C20.9443 43.7099 19.9227 44.1103 18.6267 44.5565L16.2703 45.368L13.8743 44.5462C12.5564 44.0941 11.4912 43.711 11.5071 43.6949C11.5676 43.6337 16.0613 42.0694 16.2058 42.0592C16.2894 42.0533 17.3597 42.3951 18.5842 42.8187ZM33.9384 42.808C35.1475 43.2256 36.2005 43.603 36.2785 43.6466C36.3622 43.6935 35.4446 44.0627 34.0329 44.5504L31.6457 45.3748L29.2888 44.5521C27.9924 44.0996 26.9571 43.7041 26.988 43.6732C27.0582 43.603 31.4717 42.0631 31.6267 42.0547C31.689 42.0513 32.7292 42.3903 33.9384 42.808ZM11.0348 45.5446C12.2987 45.9811 13.2884 46.3653 13.2341 46.3986C13.1797 46.4318 12.1135 46.8133 10.8649 47.2462L8.59459 48.0333L6.24378 47.2302C4.95081 46.7883 3.89265 46.3991 3.89243 46.3653C3.89168 46.2779 8.22108 44.7709 8.50346 44.7601C8.63178 44.7552 9.77092 45.1083 11.0348 45.5446ZM41.8515 45.5521C43.1224 45.9925 44.0892 46.3811 44 46.4155C43.2428 46.7076 39.4448 47.9945 39.3398 47.9945C39.2297 47.9945 35.7957 46.8272 34.8108 46.455C34.5769 46.3666 34.8454 46.2464 36.8108 45.5597C38.0595 45.1235 39.1845 44.763 39.3109 44.7588C39.4373 44.7547 40.5805 45.1117 41.8515 45.5521ZM28.6481 46.3675C28.6479 46.4001 27.5897 46.7884 26.2966 47.2303L23.9457 48.0336L21.689 47.2553C20.4478 46.8272 19.3821 46.4459 19.3208 46.408C19.2239 46.3481 22.6708 45.0756 22.9299 45.0756C22.9834 45.0756 23.027 45.2482 23.027 45.4593C23.027 45.9061 23.2672 46.4256 23.5184 46.5219C23.8945 46.6663 24.3384 46.5849 24.5995 46.3237C24.8088 46.1145 24.8649 45.9468 24.8649 45.5307V45.003L26.7568 45.6555C27.7973 46.0144 28.6484 46.3347 28.6481 46.3675ZM18.6381 48.1726C19.952 48.6275 21.0403 49.0096 21.0565 49.0221C21.0728 49.0344 20.0008 49.4178 18.6742 49.8741L16.2623 50.7035L13.8497 49.8663C12.5228 49.4057 11.4786 49.015 11.5294 48.9981C11.5801 48.9811 12.6432 48.6066 13.8919 48.1657C15.1405 47.7249 16.1817 47.36 16.2056 47.355C16.2295 47.3499 17.3241 47.7179 18.6381 48.1726ZM34.1341 48.2123C35.397 48.6486 36.4145 49.0214 36.3952 49.0406C36.376 49.0599 35.2995 49.4417 34.003 49.889L31.6459 50.7024L29.2323 49.8646L26.8187 49.027L29.2202 48.1928C30.541 47.7338 31.6703 47.372 31.7297 47.3886C31.7892 47.4053 32.8711 47.7759 34.1341 48.2123ZM26.2739 50.8162C27.4908 51.2384 28.5438 51.6155 28.6138 51.6541C28.6839 51.6926 27.6623 52.0943 26.3436 52.5466L23.9459 53.369L21.5956 52.5546C20.3029 52.1067 19.2726 51.7123 19.3062 51.6782C19.3907 51.5921 23.691 50.0771 23.8956 50.0613C23.9867 50.0543 25.057 50.3939 26.2739 50.8162Z" fill="white"/>
</svg>
