<svg width="48" height="53" viewBox="0 0 48 53" fill="none" xmlns="http://www.w3.org/2000/svg">
<path fill-rule="evenodd" clip-rule="evenodd" d="M14.5209 1.35593C9.18388 2.40589 7.62723 2.74616 7.45755 2.89975C6.95218 3.35705 6.95513 3.32435 6.95493 8.51556L6.95473 13.3839L4.63788 13.8294C2.1425 14.3093 1.81882 14.405 1.50625 14.7555C1.30469 14.9815 1.30204 15.1646 1.25163 32.3056L1.2007 49.6272L0.90728 49.7058C-0.0540665 49.9628 -0.322131 51.2283 0.447638 51.8761L0.75797 52.1372H23.9304C45.5893 52.1372 47.1221 52.1259 47.3971 51.9634C47.7132 51.7766 48 51.2779 48 50.915C48 50.3675 47.4151 49.6928 46.9404 49.6928C46.7923 49.6928 46.7778 48.3411 46.7776 34.492C46.7775 20.2187 46.7666 19.2702 46.5994 18.9486C46.5015 18.7602 46.3068 18.5412 46.1667 18.4619C46.0267 18.3826 44.5372 18.0309 42.8567 17.6804L39.8012 17.043L39.7503 10.6302C39.6954 3.71708 39.7114 3.90234 39.1461 3.61004C38.7334 3.39667 22.3837 -0.0110744 21.8257 2.70644e-05C21.5732 0.00501763 18.2861 0.615191 14.5209 1.35593ZM20.6028 7.86547V12.9902L17.784 12.398L14.965 11.8059L12.3515 12.3148C10.914 12.5947 9.68467 12.8237 9.61959 12.8237C9.5319 12.8237 9.50134 11.8026 9.50134 8.86572V4.90769L13.2952 4.16786C15.3819 3.76088 17.8223 3.27791 18.7186 3.09448C19.6149 2.91105 20.4055 2.75645 20.4755 2.75085C20.5758 2.7429 20.6028 3.8282 20.6028 7.86547ZM30.1256 4.21207C33.7667 4.97002 36.8488 5.61452 36.9749 5.64426L37.2041 5.69824V11.1011C37.2041 16.1998 37.194 16.5009 37.0258 16.449C36.8544 16.3962 23.2678 13.5367 23.188 13.5367C23.1665 13.5367 23.149 11.1045 23.149 8.1319C23.149 3.03195 23.1591 2.73007 23.3272 2.78038C23.4253 2.80982 26.4845 3.45401 30.1256 4.21207ZM25.1781 8.02903C24.6635 8.54367 24.8109 9.38647 25.462 9.6527C25.6183 9.71656 27.7169 10.1743 30.1256 10.6697C34.7188 11.6144 34.8774 11.631 35.2984 11.21C35.4027 11.1057 35.5127 10.8368 35.5427 10.6125C35.5896 10.2633 35.5543 10.1563 35.2976 9.86902C34.9984 9.53405 34.9895 9.5317 30.6279 8.63238C28.2246 8.13679 26.0821 7.73133 25.867 7.73133C25.5705 7.73133 25.4038 7.80334 25.1781 8.02903ZM13.6771 16.6362C13.6771 18.4324 13.6606 18.6204 13.4989 18.6701C13.4008 18.7002 11.544 19.0916 9.3725 19.5399C7.201 19.9883 5.33687 20.4018 5.23003 20.459C4.92693 20.6211 4.61262 21.0756 4.61262 21.3516C4.61262 21.9184 5.12349 22.4024 5.71228 22.3932C5.86373 22.3909 7.70626 22.0317 9.80689 21.5952L13.6262 20.8014L13.6538 22.8875C13.669 24.0347 13.669 24.9851 13.6538 24.9994C13.6386 25.0138 11.7715 25.4081 9.5048 25.8757C6.60854 26.4733 5.29154 26.7877 5.0744 26.9332C4.42685 27.3672 4.51434 28.2849 5.23705 28.6383L5.60687 28.8191L9.565 28.0018C11.7419 27.5522 13.5587 27.1844 13.6022 27.1844C13.6457 27.1844 13.6689 28.133 13.6537 29.2925L13.6262 31.4006L9.60319 32.2305C7.39054 32.687 5.47905 33.0929 5.3555 33.1324C5.03804 33.2339 4.61262 33.773 4.61262 34.0736C4.61262 34.6461 5.07725 35.1247 5.63111 35.1227C5.82716 35.1221 7.70626 34.7645 9.80689 34.3281L13.6262 33.5347L13.6538 35.6196C13.669 36.7662 13.6685 37.7173 13.6528 37.733C13.6371 37.7488 11.8143 38.134 9.60217 38.5891C7.39013 39.0443 5.45257 39.4663 5.29664 39.527C4.90218 39.6806 4.61262 40.0846 4.61262 40.4815C4.61262 40.8925 5.01503 41.4039 5.4047 41.488C5.57173 41.5241 7.25365 41.2232 9.63303 40.7316C11.8061 40.2827 13.6049 39.9154 13.6306 39.9154C13.6561 39.9154 13.6771 42.0924 13.6771 44.7532V49.591H8.68655H3.69599V33.0916C3.69599 24.0169 3.7074 16.5907 3.72145 16.5889C3.73551 16.5871 5.901 16.1559 8.53378 15.6307C11.1666 15.1055 13.4008 14.6715 13.4989 14.6664C13.6629 14.6577 13.6771 14.8156 13.6771 16.6362ZM30.533 17.6541L44.1807 20.5204L44.2083 22.5369L44.236 24.5534L43.9027 24.4788C43.7195 24.4377 37.4281 23.1148 29.9219 21.5389L16.2743 18.6736L16.2467 16.6567L16.219 14.6399L16.5522 14.7137C16.7354 14.7544 23.0268 16.0775 30.533 17.6541ZM30.1256 23.7233C37.6318 25.2963 43.8764 26.6089 44.0025 26.6403C44.2307 26.697 44.2316 26.7051 44.2316 28.774C44.2316 30.452 44.2051 30.8509 44.0938 30.8509C44.018 30.8509 37.7351 29.5447 30.1318 27.9482C22.5286 26.3517 16.2887 25.0455 16.2655 25.0455C16.2423 25.0455 16.2233 24.0845 16.2233 22.9099C16.2233 21.2456 16.2514 20.7841 16.3506 20.8188C16.4207 20.8434 22.6194 22.1504 30.1256 23.7233ZM30.4051 30.1448L44.2304 33.0406L44.231 35.1343L44.2316 37.228L30.2529 34.3177L16.2743 31.4075L16.2467 29.2834C16.2209 27.2946 16.2306 27.1624 16.3994 27.2042C16.4986 27.2289 22.8012 28.5521 30.4051 30.1448ZM43.2641 39.1776L44.1807 39.3634L44.2082 41.4727C44.2234 42.6328 44.2125 43.5819 44.1842 43.5819C44.1377 43.5819 18.0457 38.1526 16.758 37.875L16.2233 37.7597V35.6484V33.537L29.2854 36.2644C36.4696 37.7645 42.7599 39.0754 43.2641 39.1776ZM30.3906 42.862C37.9306 44.4343 44.1293 45.7207 44.1656 45.7207C44.2019 45.7207 44.2316 46.5915 44.2316 47.6559V49.591H30.2275H16.2233V44.7422V39.8933L16.4525 39.9482C16.5786 39.9784 22.8507 41.2896 30.3906 42.862Z" fill="white"/>
</svg>
