<svg width="48" height="48" viewBox="0 0 48 48" fill="none" xmlns="http://www.w3.org/2000/svg">
<path fill-rule="evenodd" clip-rule="evenodd" d="M21 0.0320625C21 0.0990938 20.4279 2.75953 20.4097 2.77706C20.3993 2.78719 20.1164 2.88741 19.7812 2.99972C19.4461 3.11203 18.8044 3.37434 18.3551 3.58266L17.5384 3.96141L16.3483 3.19134L15.1583 2.42137L13.1104 4.46775C11.9841 5.59322 11.0625 6.55969 11.0625 6.61547C11.0625 6.67125 11.2264 7.0935 11.4266 7.55381C11.6269 8.01403 11.7721 8.42222 11.7492 8.46094C11.7263 8.49956 11.4887 8.53172 11.221 8.53238C9.09263 8.53725 6.90112 10.3622 6.32981 12.6056C6.13547 13.3686 6.13669 15.9443 6.33159 16.7716C6.54713 17.6858 7.07869 18.6115 7.809 19.3444C8.17087 19.7076 8.43544 20.0506 8.41912 20.1354C8.39878 20.2412 8.09662 20.3588 7.38984 20.5361L6.38944 20.7872L4.48378 19.6763L2.57812 18.5652L1.28906 18.5639L0 18.5625V26.6172V34.6718L3.83278 35.9495C7.60134 37.2056 7.67775 37.2265 8.39503 37.1994C9.12178 37.172 9.12488 37.1707 9.22631 36.8739L9.32812 36.576L10.4498 37.2533C11.4905 37.8816 11.5767 37.9557 11.6439 38.2793C11.8598 39.318 12.5787 40.0096 13.6984 40.2559C13.9032 40.3009 13.9523 40.3744 13.9962 40.7017C14.0985 41.4637 14.8987 42.2933 15.7195 42.4883L16.1991 42.6022L16.35 43.1451C16.4486 43.4997 16.6226 43.8231 16.852 44.0774C17.2107 44.4754 17.9812 44.9037 18.3412 44.9053C18.4979 44.9061 18.5558 44.982 18.6068 45.2534C18.7591 46.0654 19.3883 46.8032 20.1893 47.1091C20.7074 47.307 21.5484 47.2653 22.0266 47.0181C22.3313 46.8605 22.336 46.8614 22.6746 47.1479C23.3841 47.7485 23.8162 47.9472 24.4953 47.9856C25.8142 48.0601 26.8147 47.3126 27.0753 46.0581C27.1425 45.7344 27.1794 45.7017 27.549 45.6386C28.2693 45.5156 28.9058 44.9937 29.2424 44.25C29.3474 44.018 29.4343 43.7401 29.4354 43.6326C29.4371 43.4732 29.5452 43.407 30.0191 43.2753C30.8213 43.0522 31.4163 42.4636 31.6536 41.6582C31.8198 41.0945 31.8272 41.0862 32.267 40.9734C33.2038 40.7333 33.8671 40.0022 34.0525 39.0052L34.1615 38.4195L41.0807 34.9597L48 31.4997V25.7812V20.0625H47.1558H46.3115L44.9761 20.7593C43.6662 21.4428 43.6354 21.4534 43.3686 21.3113C43.219 21.2318 42.312 20.9674 41.3529 20.7239C40.0793 20.4006 39.6017 20.2414 39.5807 20.1335C39.5647 20.051 39.8344 19.7023 40.191 19.3444C40.9213 18.6115 41.4529 17.6858 41.6684 16.7716C41.838 16.052 41.8631 13.6583 41.7089 12.9187C41.2173 10.5622 38.9619 8.57053 36.7263 8.51897C36.4299 8.51222 36.1875 8.49319 36.1875 8.47669C36.1875 8.46028 36.3563 8.05781 36.5625 7.58231C36.7687 7.10672 36.9375 6.67181 36.9375 6.61584C36.9375 6.55988 36.0159 5.59322 34.8896 4.46775L32.8417 2.42137L31.6517 3.19134L30.4616 3.96141L29.6449 3.58509C29.1956 3.37809 28.5539 3.11231 28.2188 2.99437C27.8836 2.87644 27.6007 2.77509 27.5902 2.76928C27.5726 2.75953 27 0.104062 27 0.0320625C27 0.0144375 25.65 0 24 0C22.35 0 21 0.0144375 21 0.0320625ZM25.7651 2.03906C25.8164 2.28403 25.9329 2.84841 26.0242 3.29334L26.19 4.10241L27.1341 4.36566C27.7077 4.52559 28.5563 4.87116 29.2969 5.24634L30.5156 5.86387L31.5794 5.16806L32.6432 4.47225L33.8608 5.68988L35.0784 6.9075L34.6402 7.94044C34.2469 8.86716 34.1665 8.99006 33.8587 9.13566C33.67 9.22491 33.3008 9.46294 33.0382 9.66459C32.7757 9.86625 32.5401 10.0312 32.5148 10.0312C32.4894 10.0312 32.3107 9.80184 32.1175 9.52144C31.6792 8.88497 30.4081 7.65675 29.6684 7.15472C27.0759 5.39569 23.8291 4.94297 20.8125 5.92003C18.9666 6.51787 17.0219 7.94269 15.8743 9.53822L15.4535 10.1233L15.0158 9.75581C14.7751 9.55369 14.3942 9.28444 14.1694 9.15741C13.7935 8.94506 13.7264 8.8455 13.3358 7.92216L12.9111 6.918L14.1307 5.69822L15.3504 4.47853L16.4135 5.17116L17.4764 5.86369L18.6991 5.24606C19.4389 4.87238 20.2948 4.52447 20.8659 4.36538L21.81 4.10241L21.9758 3.29334C22.0671 2.84841 22.1836 2.28403 22.2349 2.03906L22.3281 1.59375H24H25.6719L25.7651 2.03906ZM25.5507 7.16972C27.8337 7.6065 29.906 9.01491 31.1538 10.9777L31.4873 11.5023L31.2394 12.1496C31.0025 12.768 30.9913 12.8784 30.9879 14.625C30.9847 16.3149 31.0016 16.5059 31.2131 17.1516C31.494 18.0092 32.1917 19.074 32.8147 19.5955C33.0713 19.8104 33.2812 20.0439 33.2812 20.1144C33.2812 20.2567 32.9227 20.3752 31.3046 20.7676L30.2187 21.031L29.0077 20.7296C27.1655 20.2712 27.0938 20.2494 27.0938 20.1511C27.0938 20.1007 27.3996 19.7535 27.7734 19.3794C28.2495 18.9032 28.5582 18.4894 28.8038 17.9982C29.3255 16.9553 29.4375 16.3912 29.4375 14.8078C29.4375 12.5358 29.0281 11.3967 27.7532 10.1218C26.6257 8.99438 25.5132 8.52131 23.99 8.52159C22.9944 8.52178 22.4669 8.64309 21.5625 9.07978C20.19 9.74259 19.0607 11.1643 18.7035 12.6793C18.5129 13.4878 18.5132 15.9844 18.704 16.7381C18.9531 17.7224 19.4789 18.6324 20.2266 19.3732C20.6004 19.7436 20.9062 20.0908 20.9062 20.1447C20.9062 20.2497 20.8425 20.2691 18.9923 20.7296L17.7813 21.031L16.6954 20.7676C15.0773 20.3752 14.7188 20.2567 14.7188 20.1144C14.7188 20.0439 14.9288 19.8104 15.1853 19.5955C15.8083 19.074 16.506 18.0092 16.7869 17.1516C16.995 16.516 17.0156 16.3012 17.0156 14.7656C17.0156 13.1647 17.0021 13.0385 16.7534 12.3045L16.4912 11.5309L16.9005 10.8983C18.1358 8.98922 20.1536 7.61803 22.3785 7.17553C23.2408 7.00406 24.6714 7.00144 25.5507 7.16972ZM13.1471 10.4746C14.6945 11.1988 15.4659 12.6597 15.468 14.8701C15.4698 16.7127 14.884 17.922 13.5865 18.7546L13.125 19.0507V20.2971V21.5433L14.3906 21.8541C15.0877 22.0252 15.6562 22.2126 15.6562 22.2711C15.6562 22.3294 15.5767 22.4493 15.4793 22.5373C15.1163 22.8659 14.781 23.8125 14.7368 24.634C14.6993 25.3297 14.6748 25.4133 14.496 25.4542C12.9883 25.7987 12.6276 25.875 12.5061 25.875C12.3881 25.875 12.3666 25.7428 12.3831 25.1202C12.394 24.7051 12.3651 24.3282 12.3187 24.2827C12.2723 24.2371 11.3906 23.7076 10.3594 23.106C9.32812 22.5044 8.472 22.0006 8.45681 21.9863C8.44163 21.9722 8.81081 21.8663 9.27713 21.751L10.125 21.5415V20.2953V19.0491L9.72019 18.8119C9.49763 18.6814 9.13631 18.3954 8.91731 18.1764C8.04994 17.3092 7.78125 16.4914 7.78125 14.7188C7.78125 12.9231 8.05191 12.1192 8.96344 11.2076C9.74597 10.4251 10.562 10.1175 11.7351 10.163C12.4002 10.1887 12.6573 10.2454 13.1471 10.4746ZM25.0376 10.2762C26.4642 10.6998 27.5182 11.9707 27.7666 13.5668C27.8209 13.9152 27.848 14.6869 27.8268 15.2813C27.7922 16.2514 27.7582 16.4265 27.4958 16.9871C27.1591 17.7068 26.6055 18.3465 25.9544 18.7684L25.5 19.0628V20.301V21.5392L27.818 22.1189C29.0929 22.4378 30.2724 22.7635 30.4392 22.8427C30.8803 23.0519 31.4724 23.7368 31.5901 24.1739C31.6504 24.3978 31.6815 25.2148 31.6663 26.1745L31.6406 27.7969L31.397 27.8252C31.263 27.8407 30.0412 27.5351 28.6817 27.1461C27.3223 26.757 25.9975 26.4133 25.7378 26.3824C25.4782 26.3513 24.4852 26.0797 23.5312 25.7786C21.1283 25.0203 20.4104 24.8518 19.288 24.7831C18.4248 24.7303 17.272 24.8211 16.5234 25.0009C16.342 25.0445 16.3126 25.0141 16.3131 24.7836C16.3145 24.0419 16.8768 23.1672 17.5608 22.8427C17.7276 22.7635 18.9071 22.4378 20.182 22.1189L22.5 21.5392V20.2892V19.0391L22.0881 18.7977C21.4871 18.4456 20.8425 17.7098 20.5041 16.9897C20.2257 16.3973 20.2058 16.2832 20.174 15.0938C20.1216 13.1385 20.3913 12.1839 21.2446 11.3054C22.2479 10.2723 23.6988 9.87862 25.0376 10.2762ZM37.4082 10.2749C38.7784 10.6818 39.8336 11.8871 40.1275 13.381C40.3062 14.2896 40.2053 16.227 39.9441 16.9017C39.7003 17.5312 38.904 18.446 38.2828 18.8101L37.875 19.0491V20.2946V21.5402L39.6797 21.9867C40.6722 22.2323 41.5193 22.4528 41.5621 22.4767C41.6048 22.5007 39.7697 23.505 37.484 24.7087L33.3281 26.8972L33.2799 25.3783C33.2349 23.9602 33.214 23.8208 32.9647 23.2784C32.8177 22.9588 32.618 22.6253 32.5207 22.5373C32.4233 22.4493 32.3438 22.3294 32.3438 22.2711C32.3438 22.2126 32.9123 22.0252 33.6094 21.8541L34.875 21.5433V20.2971V19.0507L34.4135 18.7546C33.4697 18.149 32.8309 17.2108 32.6257 16.1287C32.5063 15.4992 32.5048 14.0902 32.6227 13.37C32.9977 11.0798 35.2387 9.63056 37.4082 10.2749ZM4.77178 21.7157C6.24656 22.5733 7.49053 23.3089 7.53619 23.3502C7.58325 23.393 7.017 25.8365 6.22791 28.996L4.83647 34.5666L3.23859 34.0329L1.64062 33.4993L1.61653 26.8278L1.59253 20.1562H1.84153C1.99359 20.1562 3.13434 20.7634 4.77178 21.7157ZM46.4062 26.1562V30.4685L39.929 33.7073C34.3657 36.4893 33.43 36.9292 33.2984 36.8247C33.214 36.7579 31.6527 35.3622 29.8287 33.7234C27.7331 31.8404 26.3347 30.6534 26.0296 30.4986C25.4567 30.2077 24.506 30.1087 23.8568 30.2722C23.6183 30.3322 22.6487 30.8439 21.702 31.4093C19.7213 32.5925 19.4587 32.663 18.9447 32.149C18.7029 31.9072 18.6562 31.7879 18.6562 31.4117C18.6562 31.0966 18.7154 30.8876 18.8544 30.7108C19.0902 30.411 23.2193 28.3147 24.049 28.0734C24.8941 27.8278 25.5389 27.9262 28.3111 28.7234C30.2982 29.2949 30.9159 29.4368 31.4048 29.4336L32.0156 29.4295L39.1875 25.6417C43.132 23.5583 46.37 21.8516 46.3828 21.8488C46.3957 21.846 46.4062 23.7843 46.4062 26.1562ZM9.97556 24.7554C10.4187 25.0163 10.7812 25.2911 10.7812 25.3662C10.7812 25.5033 7.965 35.4492 7.90481 35.5246C7.87556 35.5612 7.08469 35.3353 6.59578 35.1506C6.39769 35.0757 6.41316 35.001 7.65497 30.0295C9.11156 24.198 9.09019 24.2812 9.13547 24.2812C9.15441 24.2812 9.53241 24.4946 9.97556 24.7554ZM20.9109 26.6833C22.1381 27.0189 22.125 27.0146 22.125 27.0832C22.125 27.1168 21.2754 27.5654 20.2371 28.08C19.1987 28.5946 18.189 29.1299 17.9933 29.2695C17.2525 29.7981 16.8625 30.8967 17.0598 31.8994C17.2817 33.027 18.0397 33.7962 19.1583 34.0284C19.9764 34.1983 20.394 34.0541 22.2475 32.9625C23.141 32.4363 24.0057 31.9503 24.169 31.8826C24.6047 31.7022 25.1924 31.8214 25.6458 32.1819C26.4469 32.8192 32.3273 38.1656 32.381 38.3056C32.643 38.9885 31.9823 39.653 31.3054 39.3874C31.1804 39.3382 30.1403 38.5139 28.9941 37.5553C27.8479 36.5968 26.8711 35.8125 26.8234 35.8125C26.7068 35.8125 25.8386 36.8918 25.8713 36.9959C25.8856 37.0411 26.8296 37.8586 27.9692 38.8125C30.1206 40.6134 30.2422 40.7568 30.0649 41.2836C29.9563 41.6057 29.4607 41.8454 29.0935 41.7533C28.8994 41.7046 25.7452 39.1808 24.6896 38.2296L24.4886 38.0484L24.0099 38.6401C23.7467 38.9654 23.5312 39.2631 23.5312 39.3015C23.5312 39.3399 24.4333 40.1211 25.5357 41.0373C26.6382 41.9535 27.6125 42.8217 27.7007 42.9668C28.1421 43.6917 27.1718 44.4096 26.435 43.9032C25.8801 43.5221 24.6658 42.4452 24.2951 42.0056C23.8733 41.5055 23.1427 41.0625 22.7393 41.0625C22.5585 41.0625 22.4902 41.0024 22.4465 40.8047C22.3069 40.1743 22.1737 39.8882 21.8558 39.5355C21.5063 39.1478 20.7336 38.7213 20.3776 38.7197C20.2208 38.7189 20.1629 38.643 20.112 38.3716C20.0214 37.8889 19.7597 37.4127 19.3911 37.06C19.0435 36.7275 18.3481 36.3802 18.0234 36.3771C17.8684 36.3756 17.8119 36.3191 17.8104 36.1641C17.8072 35.8394 17.46 35.144 17.1275 34.7964C16.4747 34.1142 15.5181 33.8769 14.6144 34.1732C14.1952 34.3106 13.941 34.504 13.1198 35.31C12.5756 35.8442 12.0977 36.2812 12.0578 36.2812C12.018 36.2812 11.4862 35.9828 10.8763 35.6181L9.76716 34.9549L9.94659 34.329C10.0452 33.9847 10.5112 32.3521 10.982 30.7008L11.8379 27.6983L14.333 27.1439C15.7053 26.8388 17.1234 26.5358 17.4844 26.4705C18.4233 26.3004 19.8306 26.3878 20.9109 26.6833ZM15.7067 35.7611C16.0323 35.8972 16.2188 36.1959 16.2188 36.5817C16.2188 36.7016 15.8702 37.131 15.3106 37.7006C14.4722 38.5539 14.3746 38.625 14.0407 38.625C13.5582 38.625 13.2188 38.2967 13.2188 37.8302C13.2188 37.5389 13.3188 37.3911 13.9922 36.6878C14.6166 36.0356 15.0935 35.6649 15.3546 35.6287C15.3691 35.6267 15.5276 35.6862 15.7067 35.7611ZM18.0852 38.105C18.2301 38.1799 18.3996 38.3643 18.4619 38.5147C18.6366 38.9364 18.4204 39.3142 17.4998 40.1953C16.7964 40.8686 16.6486 40.9688 16.3573 40.9688C15.8986 40.9688 15.5625 40.6284 15.5625 40.1641C15.5625 39.8576 15.6531 39.7267 16.3828 38.9781C17.3984 37.9362 17.5793 37.8434 18.0852 38.105ZM20.4513 40.4137C20.6873 40.5398 20.8908 41.0076 20.8356 41.2964C20.8126 41.4163 20.3821 41.919 19.8788 42.4135C19.1773 43.1027 18.9046 43.3125 18.7101 43.3125C18.3331 43.3125 18.094 43.1484 17.9424 42.7858C17.8223 42.4983 17.8241 42.4256 17.9587 42.142C18.0422 41.9662 18.4643 41.4826 18.8968 41.0674C19.7189 40.2781 19.9872 40.1653 20.4513 40.4137ZM22.9261 42.8864C23.087 43.0472 23.1562 43.2202 23.1562 43.4609C23.1562 43.7672 23.0667 43.8969 22.3495 44.6298C21.9059 45.0832 21.4207 45.5047 21.2714 45.5665C20.7164 45.7965 20.07 45.231 20.2018 44.6308C20.2374 44.4688 20.5919 44.043 21.1327 43.5127C21.9139 42.7466 22.0424 42.6562 22.351 42.6562C22.5923 42.6562 22.7652 42.7254 22.9261 42.8864ZM25.4078 45.2843C25.6887 45.8092 25.3 46.4062 24.6773 46.4062C24.3972 46.4062 24.226 46.3301 23.9227 46.0705L23.5305 45.7348L24.0695 45.1433L24.6084 44.5519L24.9621 44.832C25.1566 44.986 25.3571 45.1896 25.4078 45.2843Z" fill="white"/>
</svg>
