<svg width="48" height="49" viewBox="0 0 48 49" fill="none" xmlns="http://www.w3.org/2000/svg">
<path fill-rule="evenodd" clip-rule="evenodd" d="M4.87531 0.141852C2.60349 0.754785 0.952481 2.28632 0.22111 4.45941L0 5.11636V24.0271V42.9378L0.26475 43.6245C1.1032 45.7995 2.76566 47.324 4.89173 47.8679C5.59936 48.0488 6.02797 48.0526 25.8941 48.0517L46.1741 48.0507L46.6433 47.829C47.2073 47.5623 47.5522 47.212 47.8088 46.6449C47.9989 46.2251 48 46.1223 48 29.6111C48 13.7239 47.9925 12.9833 47.8285 12.6223C47.6168 12.1562 47.1676 11.6975 46.6559 11.425C46.3076 11.2395 46.088 11.2135 44.5105 11.1705L42.7531 11.1227L45.1716 8.68264C46.663 7.17786 47.6584 6.09868 47.7684 5.86715C47.8665 5.66068 47.9647 5.22597 47.9867 4.90116C48.0542 3.89884 47.8979 3.63513 46.2354 1.94855C44.5888 0.278028 44.1737 0.00117149 43.3167 0.00210998C42.1922 0.00323618 42.5434 -0.292015 36.5527 5.68771L31.0606 11.1697H20.7155H10.3704V6.49557V1.82157L10.1284 1.33609C9.85976 0.796829 9.48042 0.434194 8.91572 0.176764C8.59804 0.0319542 8.29491 0.00633322 6.94488 0.00980566C5.90484 0.0124335 5.18435 0.0584198 4.87531 0.141852ZM8.19984 1.7007C8.36351 1.75776 8.53873 1.88164 8.58922 1.97605C8.64816 2.08614 8.6811 8.00505 8.6811 18.477V34.8062L8.4338 35.0006C8.21467 35.173 8.05709 35.1953 7.04952 35.1959C4.74194 35.1973 3.60402 35.5903 1.92749 36.9648L1.54326 37.2798L1.56936 21.4327L1.59545 5.5856L1.80445 4.97558C2.28693 3.56709 3.40994 2.40157 4.74973 1.91871C5.53507 1.63566 7.63308 1.50314 8.19984 1.7007ZM45.0326 3.08648C45.7378 3.79824 46.3197 4.46166 46.3256 4.56077C46.3518 4.99632 46.2626 5.15465 45.6288 5.79752L44.9573 6.47858L43.2435 4.76667L41.5297 3.05485L42.2029 2.37716C42.5731 2.00439 42.9635 1.6853 43.0704 1.66794C43.4737 1.60253 43.7855 1.82796 45.0326 3.08648ZM43.2175 8.2118L42.654 8.77527L40.9433 7.06439L39.2325 5.35361L39.792 4.78816L40.3515 4.22272L42.0662 5.93557L43.7809 7.64842L43.2175 8.2118ZM39.7928 8.26079L41.4804 9.95046L37.1406 14.2904L32.8007 18.6302L31.0882 16.9178L29.3757 15.2053L33.692 10.8881C36.066 8.51372 38.0301 6.57103 38.0566 6.57103C38.0832 6.57103 38.8644 7.3314 39.7928 8.26079ZM28.1858 14.0555C27.2205 15.0394 26.9842 15.3356 26.8574 15.7214C26.6714 16.2876 26.3002 19.4383 26.3813 19.7617L26.4391 19.9915H19.5263C12.2028 19.9915 12.1875 19.9924 12.0241 20.4181C11.8766 20.8025 11.9652 21.1943 12.2546 21.4379C12.5349 21.6738 12.5812 21.6808 13.8501 21.6808H15.1567V32.6091V43.5373L15.3679 43.7773C15.4841 43.9093 15.7109 44.0425 15.8721 44.0735C16.1106 44.1192 16.2243 44.0768 16.4822 43.8464L16.7991 43.5633L16.8247 37.8307L16.8502 32.0981H21.2122H25.574V35.2421V38.3861H22.7069C19.5394 38.3861 19.3944 38.4096 19.2046 38.9543C19.0818 39.3064 19.2557 39.8146 19.5536 39.974C19.6853 40.0445 22.27 40.0747 28.0314 40.0733C35.9115 40.0713 36.3388 40.0626 36.7045 39.8966C36.9161 39.8005 37.1906 39.5797 37.3146 39.4059L37.5399 39.09L37.5652 32.5885L37.5906 26.087L37.3583 25.8548C37.043 25.5395 36.536 25.5386 36.2218 25.8529L35.9914 26.0832V28.2461V30.4089H26.4187H16.846V26.0448V21.6808H22.7035C27.982 21.6808 28.7219 21.6621 30.188 21.4912C32.0379 21.2755 32.4458 21.164 33.0644 20.7045C33.3063 20.5248 35.1935 18.686 37.2579 16.6184L41.0115 12.859H43.4233H45.8351L46.0984 13.0854L46.3618 13.312L46.3895 29.3918C46.4095 40.9639 46.3881 45.5724 46.3131 45.831C46.1154 46.5135 47.7935 46.4647 25.6425 46.4319C9.90415 46.4086 5.63624 46.3774 5.30251 46.2833C1.74532 45.28 0.440531 41.1008 2.85847 38.4552C3.41932 37.8415 4.04314 37.4215 4.8006 37.1474C5.24517 36.9866 5.66148 36.9373 6.9918 36.8883C8.40865 36.8361 8.68635 36.8005 9.01455 36.629C9.48314 36.3842 9.93183 35.9348 10.1549 35.4869C10.3138 35.1676 10.3249 34.5105 10.3481 24.0036L10.3726 12.859H19.8663H29.36L28.1858 14.0555ZM30.4796 19.7724C28.2838 20.0343 28.328 20.0342 28.1601 19.778C28.0206 19.5652 28.0216 19.4318 28.1731 18.0784L28.3374 16.6098L29.8669 18.1364L31.3965 19.6631L30.4796 19.7724ZM35.9914 35.2421V38.3861H31.6274H27.2633V35.2421V32.0981H31.6274H35.9914V35.2421Z" fill="white"/>
</svg>
