<svg width="48" height="37" viewBox="0 0 48 37" fill="none" xmlns="http://www.w3.org/2000/svg">
<path fill-rule="evenodd" clip-rule="evenodd" d="M35.273 1.1857C29.5404 2.34111 29.4369 2.36596 29.4369 2.58271C29.4369 2.70403 29.4685 2.80397 29.5072 2.80481C29.5459 2.80566 30.7986 3.01117 32.2909 3.26158L35.0043 3.71675L41.1896 2.27558C44.5916 1.48299 47.3933 0.816125 47.4158 0.793718C47.4382 0.771217 47.3152 0.729872 47.1423 0.70184C46.4707 0.592992 41.4465 -0.00880869 41.2826 9.78518e-05C41.1872 0.00525427 38.4829 0.538803 35.273 1.1857ZM43.4999 1.96769C41.1537 2.52937 38.3376 3.20411 37.2418 3.46699L35.2496 3.94504V5.14161V6.33809L29.976 7.76801C27.0755 8.55441 23.8269 9.43569 22.757 9.72632L20.8116 10.2547V21.1609V32.0671L21.8663 31.5189C22.4465 31.2174 27.5719 28.5481 33.2561 25.5871L43.5912 20.2035L43.6158 17.1258L43.6405 14.0481L45.7968 13.1282L47.9531 12.2085L47.9773 6.56834C47.9965 2.08348 47.9773 0.930129 47.8836 0.937347C47.8187 0.942316 45.846 1.40602 43.4999 1.96769ZM9.37373 3.13529C0.775261 4.57965 1.28012 4.49134 1.3314 4.54253C1.40509 4.61622 20.2928 9.64729 20.4958 9.64729C20.6824 9.64729 29.2308 7.51094 33.187 6.47553L34.9214 6.02158L34.9499 5.58741C34.9753 5.19974 34.9552 5.14799 34.7623 5.10448C34.3896 5.02048 17.8913 2.05292 17.0615 1.92072C16.9326 1.90019 13.4731 2.44677 9.37373 3.13529ZM29.4369 3.49906C29.4369 3.87594 29.4602 3.91823 29.6947 3.96576C30.4852 4.12598 34.7073 4.86588 34.8314 4.86588C34.9485 4.86588 34.9727 4.77476 34.95 4.42056L34.9214 3.97523L32.3901 3.53665C30.9979 3.29542 29.7639 3.09507 29.6478 3.09132C29.4599 3.08532 29.4369 3.12976 29.4369 3.49906ZM46.875 4.14033V5.00867L46.1023 5.23011C45.6775 5.3519 45.2767 5.472 45.2117 5.49693C45.1219 5.53134 45.0937 5.3278 45.0937 4.64519V3.74807L45.4921 3.64372C45.7112 3.58634 46.0804 3.48218 46.3124 3.41224C46.5445 3.3423 46.7659 3.28221 46.8046 3.27864C46.8434 3.27499 46.875 3.66284 46.875 4.14033ZM44.4173 4.83344L44.3905 5.73854L43.5467 6.00348C43.0826 6.14918 42.6487 6.26927 42.5824 6.2703C42.4904 6.27171 42.4682 6.05533 42.4886 5.35855L42.5154 4.44493L43.4061 4.19761C43.896 4.06167 44.3299 3.94541 44.3704 3.93932C44.411 3.93332 44.4321 4.33562 44.4173 4.83344ZM41.906 5.54662V6.50862L40.8499 6.81229C40.269 6.97926 39.7613 7.11596 39.7216 7.11596C39.6819 7.11596 39.6614 6.68751 39.6761 6.1638L39.7029 5.21174L40.781 4.90892C41.374 4.74241 41.8698 4.60131 41.8826 4.59541C41.8955 4.5895 41.906 5.01748 41.906 5.54662ZM0.983112 13.374C1.02005 17.9503 1.07724 21.7236 1.11024 21.7593C1.14334 21.7948 5.37863 24.0152 10.5222 26.6936L19.8741 31.5633V20.8565V10.1497L10.4676 7.6016C5.29416 6.20008 1.02858 5.05339 0.988643 5.05339C0.948704 5.05339 0.946267 8.7977 0.983112 13.374ZM38.9997 6.39884V7.36928L37.8512 7.71204C37.2195 7.90058 36.6697 8.05452 36.6292 8.05414C36.5888 8.05377 36.5677 7.603 36.5824 7.05249L36.609 6.05148L37.6872 5.74782C38.2801 5.58084 38.8181 5.44068 38.8825 5.43628C38.9692 5.43046 38.9997 5.68078 38.9997 6.39884ZM46.875 6.95489V7.8251L45.981 8.11958L45.087 8.41406L45.1138 7.522L45.1405 6.62994L45.9374 6.3664C46.3757 6.22146 46.7659 6.09883 46.8046 6.09377C46.8434 6.0888 46.875 6.47628 46.875 6.95489ZM44.4373 7.74879L44.4372 8.66288L43.4498 8.99824L42.4624 9.3335L42.4889 8.39419L42.5154 7.45478L43.453 7.1544C43.9686 6.98911 44.4011 6.8496 44.4139 6.84435C44.4268 6.83901 44.4373 7.24599 44.4373 7.74879ZM41.906 8.60822V9.53807L40.8982 9.88167C40.3438 10.0707 39.8377 10.2465 39.7732 10.2722C39.6839 10.308 39.656 10.0867 39.656 9.34428V8.36934L40.7107 8.0278C41.2908 7.84001 41.797 7.68457 41.8357 7.68241C41.8745 7.68026 41.906 8.0969 41.906 8.60822ZM4.41747 9.05477L6.09237 9.58729V10.1717V10.7561L4.35794 10.1798L2.62351 9.60351V9.06293C2.62351 8.76554 2.65032 8.52225 2.68304 8.52225C2.71576 8.52225 3.49626 8.76188 4.41747 9.05477ZM38.9993 9.57697L38.999 10.5379L37.8509 10.9372C37.2194 11.1568 36.6697 11.3362 36.6292 11.3357C36.5888 11.3352 36.5677 10.883 36.5824 10.3309L36.609 9.32703L37.6872 8.98071C38.2801 8.79029 38.8181 8.63026 38.8825 8.62519C38.9692 8.61835 38.9996 8.86558 38.9993 9.57697ZM46.875 9.95292V10.8211L45.981 11.1642L45.0871 11.5074L45.1138 10.6089L45.1405 9.71048L45.9374 9.40719C46.3757 9.2404 46.7659 9.09958 46.8046 9.09433C46.8434 9.08908 46.875 9.47544 46.875 9.95292ZM44.4374 10.8975V11.7727L43.4764 12.152L42.5154 12.5313L42.4884 11.6397C42.4736 11.1494 42.4802 10.7295 42.5031 10.7066C42.5687 10.6409 44.1899 10.0364 44.3202 10.029C44.4061 10.0241 44.4374 10.2563 44.4374 10.8975ZM10.2323 10.889L12.3738 11.5626V12.2087C12.3738 12.6862 12.3433 12.8437 12.2566 12.8118C12.1922 12.7881 11.1585 12.4426 9.95969 12.044L7.77993 11.3193V10.7076C7.77993 10.1765 7.80037 10.1039 7.93537 10.1556C8.02087 10.1884 9.0545 10.5184 10.2323 10.889ZM27.8431 12.016V13.3533L25.4758 14.1388C24.1739 14.5709 23.0546 14.9443 22.9888 14.9688C22.8943 15.0039 22.8746 14.7113 22.8951 13.5786L22.9211 12.1441L25.3118 11.4195C26.6266 11.0211 27.7341 10.6913 27.7728 10.6868C27.8115 10.6822 27.8431 11.2804 27.8431 12.016ZM4.47429 11.3914L6.09059 11.9442L6.09153 12.5402C6.09209 12.9768 6.06106 13.1252 5.97518 13.0949C5.91077 13.0722 5.13019 12.7875 4.24075 12.4621L2.62351 11.8707V11.3115C2.62351 10.9036 2.6552 10.764 2.7407 10.7954C2.8052 10.8192 3.58523 11.0873 4.47429 11.3914ZM41.8393 12.7484C41.7987 12.7872 41.2908 13.0089 40.7107 13.241L39.656 13.6631V12.6946V11.7263L40.2888 11.4876C40.6368 11.3563 41.1326 11.1719 41.3904 11.0778L41.8592 10.9067L41.8862 11.7922C41.9011 12.2792 41.88 12.7095 41.8393 12.7484ZM17.2724 13.1151L18.5615 13.5229V14.2164C18.5615 14.8346 18.5436 14.9044 18.3975 14.8577C18.3072 14.8289 17.242 14.4745 16.0302 14.0702L13.827 13.3351L13.7996 12.6718L13.7723 12.0086L14.8778 12.358C15.4859 12.5502 16.5635 12.8909 17.2724 13.1151ZM38.9997 12.9613V13.9313L37.7809 14.404L36.5621 14.8768V13.8652V12.8537L37.7106 12.4263C38.3423 12.1913 38.8907 11.9972 38.9294 11.9951C38.9681 11.9929 38.9997 12.4276 38.9997 12.9613ZM10.0769 13.3431L12.327 14.1286L12.3545 14.7935L12.382 15.4585L12.1201 15.3572C11.976 15.3016 11.0144 14.9467 9.98313 14.5685C8.95184 14.1904 8.03428 13.852 7.944 13.8167C7.81152 13.7647 7.77993 13.6369 7.77993 13.153C7.77993 12.8234 7.79043 12.5546 7.80337 12.5556C7.8163 12.5567 8.83934 12.9111 10.0769 13.3431ZM4.42451 13.4646L6.09237 14.0944V14.6912C6.09237 15.0195 6.05506 15.2741 6.0094 15.2568C5.96384 15.2397 5.18353 14.9303 4.27553 14.5693L2.62463 13.9131L2.62407 13.374C2.62379 13.0775 2.65351 12.8349 2.69007 12.8349C2.72673 12.8349 3.50723 13.1183 4.42451 13.4646ZM41.906 15.4653V16.4082L41.1795 16.7419C40.7799 16.9253 40.2735 17.1535 40.0544 17.2488L39.656 17.4221V16.4555V15.4888L40.7576 15.0125C41.3634 14.7505 41.8698 14.533 41.8826 14.5293C41.8955 14.5255 41.906 14.9468 41.906 15.4653ZM16.6433 15.6393C17.5736 15.9595 18.3877 16.2543 18.4525 16.2943C18.5337 16.3445 18.5617 16.5726 18.5425 17.0282L18.5147 17.6892L16.149 16.8324L13.7833 15.9756L13.7817 15.3001L13.7801 14.6246L14.3661 14.8408C14.6884 14.9598 15.7131 15.3192 16.6433 15.6393ZM27.8222 15.9496L27.7962 17.283L25.4055 18.1994C24.0906 18.7034 22.9831 19.1159 22.9445 19.1161C22.9059 19.1163 22.8742 18.4894 22.8742 17.7233V16.3302L25.2883 15.4793C26.6161 15.0113 27.7353 14.6257 27.7753 14.6223C27.8154 14.6189 27.8365 15.2162 27.8222 15.9496ZM12.3547 17.0822C12.3699 17.4275 12.348 17.7101 12.3059 17.7101C12.2638 17.7101 11.2388 17.3189 10.028 16.8408L7.8268 15.9715L7.79934 15.3509L7.77187 14.7304L10.0494 15.5924L12.327 16.4544L12.3547 17.0822ZM38.9329 17.7191C38.8923 17.7589 38.3423 18.023 37.7106 18.306L36.5621 18.8207V17.8062V16.7916L37.7575 16.2846L38.9528 15.7776L38.9797 16.7122C38.9945 17.2263 38.9734 17.6794 38.9329 17.7191ZM16.2177 17.925L18.5147 18.7962L18.5418 19.5086L18.569 20.221L16.1746 19.2726L13.7801 18.3242V17.6891C13.7801 17.3396 13.8118 17.0538 13.8504 17.0539C13.8891 17.0539 14.9544 17.446 16.2177 17.925ZM41.906 18.7198V19.6357L40.8269 20.1729C40.2333 20.4685 39.727 20.7102 39.7018 20.7102C39.6766 20.7102 39.656 20.2878 39.656 19.7717V18.8331L40.7107 18.3268C41.2908 18.0482 41.797 17.8166 41.8357 17.8121C41.8745 17.8076 41.906 18.216 41.906 18.7198ZM27.8222 19.7783L27.7962 21.0966L25.3352 22.1621L22.8742 23.2277L22.8745 21.8049L22.8747 20.382L25.2886 19.424C26.6162 18.8971 27.7353 18.4647 27.7753 18.463C27.8154 18.4614 27.8365 19.0533 27.8222 19.7783ZM34.3378 25.7663L20.8163 32.9678L10.4777 27.4494C4.79146 24.4143 0.107458 21.9306 0.0687379 21.93C0.0300179 21.9294 -0.00082687 22.5724 1.69072e-05 23.3587L0.00170446 24.7884L10.4133 30.7714L20.8248 36.7543L34.4124 28.9453L48 21.1363V19.8451C48 19.1349 47.9684 18.5563 47.9297 18.5594C47.891 18.5624 41.7747 21.8055 34.3378 25.7663ZM38.9997 20.147V21.0839L37.7809 21.6946L36.5621 22.3053L36.5633 21.2968L36.5645 20.2883L37.6649 19.7578C38.2701 19.4661 38.8181 19.2234 38.8825 19.2187C38.969 19.2124 38.9997 19.4554 38.9997 20.147ZM27.8222 23.5295L27.7962 24.8487L25.3586 26.0138L22.9211 27.1787L22.895 25.8034C22.8807 25.0469 22.9018 24.3973 22.9419 24.3597C23.0283 24.2787 27.6694 22.2177 27.7753 22.2133C27.8154 22.2116 27.8365 22.8038 27.8222 23.5295Z" fill="white"/>
</svg>
