<svg width="48" height="41" viewBox="0 0 48 41" fill="none" xmlns="http://www.w3.org/2000/svg">
<path fill-rule="evenodd" clip-rule="evenodd" d="M6.26789 0.138439C5.73754 0.426681 5.66843 0.664663 5.66843 2.20161C5.66843 3.42828 5.69122 3.64169 5.8464 3.87077C6.08767 4.22661 6.46508 4.40515 6.97649 4.40515H7.40313V16.7825C7.40313 23.59 7.39263 29.1593 7.37969 29.1588C7.36675 29.1582 7.14912 29.0949 6.89594 29.0181C6.64277 28.9413 6.1067 28.8785 5.70472 28.8785C2.72525 28.8785 0.765791 31.9505 2.01074 34.6699C2.49233 35.7219 3.49049 36.6 4.49821 36.8583L4.96517 36.978V38.273V39.568H2.68418C0.421195 39.568 0.401691 39.5697 0.199341 39.785C-0.07146 40.0733 -0.0656464 40.5093 0.212468 40.7707L0.42954 40.9745H24.0131H47.5967L47.8007 40.7575C48.0715 40.4692 48.0656 40.0332 47.7875 39.7719C47.5776 39.5747 47.4995 39.568 45.3965 39.568H43.2224V38.273V36.978L43.6893 36.8583C45.4969 36.395 46.8168 34.3155 46.5187 32.4007C46.1963 30.3299 44.5319 28.8785 42.4797 28.8785C42.076 28.8785 41.5716 28.9399 41.3588 29.015L40.9719 29.1515V28.0444C40.9719 26.871 40.8725 26.4006 40.5932 26.251C40.2948 26.0913 39.8915 26.1464 39.6755 26.3762C39.4812 26.5831 39.4717 26.6754 39.4717 28.3477V30.102L39.1496 30.5702C38.6076 31.3581 38.4106 31.9946 38.4106 32.9574C38.4106 33.9202 38.6076 34.5567 39.1496 35.3446L39.4717 35.8128V37.6435V39.4742H32.6735H25.8754V28.405C25.8754 16.6251 25.8859 16.9145 25.4492 16.7469C25.108 16.616 24.7626 16.6901 24.5695 16.9358C24.3753 17.1826 24.3751 17.1947 24.3751 28.3286V39.4742H16.6392H8.90341V37.5092C8.90341 35.5773 8.90726 35.5386 9.13371 35.2049C10.0112 33.9119 10.0112 32.0028 9.13371 30.7099L8.90341 30.3704V17.3878V4.40515H16.6392H24.3751V9.35711C24.3751 14.2021 24.3792 14.3136 24.5652 14.5132C24.9642 14.9415 25.5803 14.8271 25.7858 14.2867C25.835 14.1571 25.8754 13.3153 25.8754 12.4162V10.7813H32.6735H39.4717V17.2819V23.7823L39.6886 23.9863C39.9186 24.2022 40.3087 24.2506 40.5932 24.0983C40.9562 23.904 40.9719 23.6125 40.9719 17.0967V10.7813H41.211C41.5466 10.7813 41.9441 10.556 42.1536 10.247C42.3088 10.0179 42.3316 9.80447 42.3316 8.57781C42.3316 7.35114 42.3088 7.13772 42.1536 6.90865C41.7752 6.35036 42.1548 6.37427 33.6628 6.37427H25.8754V5.38971V4.40515H26.3063C26.806 4.40515 27.1924 4.20683 27.4098 3.83879C27.6334 3.46034 27.6334 0.942871 27.4098 0.564425C27.0532 -0.0393444 27.7633 -0.00230616 16.6248 0.00181961C8.08238 0.00500771 6.47436 0.0261993 6.26789 0.138439ZM26.1567 2.20161V2.99863H16.6392H7.12183V2.20161V1.40458H16.6392H26.1567V2.20161ZM12.4197 6.03783C12.265 6.10656 12.0329 6.27703 11.904 6.41665L11.6696 6.67048L11.6429 10.2716C11.6138 14.2221 11.6133 14.2185 12.1749 14.6184C12.4423 14.8089 12.546 14.8134 16.6392 14.8134C20.7762 14.8134 20.8335 14.8107 21.1128 14.6118C21.6406 14.236 21.6558 14.1163 21.6558 10.3294C21.6558 6.8898 21.6547 6.86908 21.443 6.55224C21.0088 5.90234 21.0311 5.90533 16.6392 5.90927C13.5667 5.91199 12.6392 5.94022 12.4197 6.03783ZM14.5295 9.1873V10.9689H13.8262H13.123V9.1873V7.40571H13.8262H14.5295V9.1873ZM17.2487 9.1873V10.9689H16.6392H16.0298V9.1873V7.40571H16.6392H17.2487V9.1873ZM20.1555 9.1873V10.9689H19.4523H18.749V9.1873V7.40571H19.4523H20.1555V9.1873ZM40.8782 8.57781V9.37483H33.3768H25.8754V8.57781V7.78078H33.3768H40.8782V8.57781ZM27.9021 12.1961C27.4142 12.5799 27.3756 12.7718 27.3756 14.8134C27.3756 16.855 27.4142 17.0468 27.9021 17.4306C28.1293 17.6092 28.2734 17.6264 29.5496 17.6264C31.0797 17.6264 31.333 17.562 31.6516 17.092C31.8125 16.8546 31.8296 16.6394 31.8296 14.8512C31.8296 12.6699 31.7967 12.5152 31.2618 12.1847C31 12.0228 30.7918 12.0003 29.5573 12.0003C28.2733 12.0003 28.1294 12.0173 27.9021 12.1961ZM33.622 12.1961C33.134 12.5799 33.0955 12.7718 33.0955 14.8134C33.0955 16.855 33.134 17.0468 33.622 17.4306C33.8492 17.6092 33.9932 17.6264 35.2695 17.6264C36.7996 17.6264 37.0528 17.562 37.3714 17.092C37.5324 16.8546 37.5494 16.6394 37.5494 14.8512C37.5494 12.6699 37.5165 12.5152 36.9817 12.1847C36.7199 12.0228 36.5116 12.0003 35.2771 12.0003C33.9931 12.0003 33.8493 12.0173 33.622 12.1961ZM20.1555 12.938V13.4068H16.6392H13.123V12.938V12.4692H16.6392H20.1555V12.938ZM30.3762 14.8134V16.2199H29.6261H28.8759V14.8134V13.4068H29.6261H30.3762V14.8134ZM36.096 14.8134V16.2199H35.3459H34.5957V14.8134V13.4068H35.3459H36.096V14.8134ZM12.4197 16.446C12.265 16.5148 12.0329 16.6852 11.904 16.8249L11.6696 17.0787L11.6429 20.6798C11.6138 24.6303 11.6133 24.6267 12.1749 25.0266C12.4423 25.2171 12.546 25.2216 16.6392 25.2216C20.7762 25.2216 20.8335 25.2189 21.1128 25.0201C21.6406 24.6442 21.6558 24.5245 21.6558 20.7376C21.6558 17.298 21.6547 17.2773 21.443 16.9604C21.0088 16.3105 21.0311 16.3135 16.6392 16.3175C13.5667 16.3202 12.6392 16.3484 12.4197 16.446ZM14.5295 19.5955V21.3771H13.8262H13.123V19.5955V17.8139H13.8262H14.5295V19.5955ZM17.2487 19.5955V21.3771H16.6392H16.0298V19.5955V17.8139H16.6392H17.2487V19.5955ZM20.1555 19.5955V21.3771H19.4523H18.749V19.5955V17.8139H19.4523H20.1555V19.5955ZM27.9021 18.7598C27.4142 19.1436 27.3756 19.3355 27.3756 21.3771C27.3756 23.4187 27.4142 23.6105 27.9021 23.9943C28.1294 24.1731 28.2733 24.1901 29.5573 24.1901C30.7918 24.1901 31 24.1676 31.2618 24.0058C31.7967 23.6752 31.8296 23.5205 31.8296 21.3392C31.8296 18.5776 31.8185 18.5641 29.5496 18.5641C28.2734 18.5641 28.1293 18.5812 27.9021 18.7598ZM33.622 18.7598C33.134 19.1436 33.0955 19.3355 33.0955 21.3771C33.0955 23.4187 33.134 23.6105 33.622 23.9943C33.8493 24.1731 33.9931 24.1901 35.2771 24.1901C36.5116 24.1901 36.7199 24.1676 36.9817 24.0058C37.5165 23.6752 37.5494 23.5205 37.5494 21.3392C37.5494 18.5776 37.5384 18.5641 35.2695 18.5641C33.9932 18.5641 33.8492 18.5812 33.622 18.7598ZM30.3762 21.3771V22.7836H29.6261H28.8759V21.3771V19.9706H29.6261H30.3762V21.3771ZM36.096 21.3771V22.7836H35.3459H34.5957V21.3771V19.9706H35.3459H36.096V21.3771ZM20.1555 23.3462V23.815H16.6392H13.123V23.3462V22.8774H16.6392H20.1555V23.3462ZM27.7727 25.4486L27.4225 25.7694L27.3939 27.7875C27.3625 30.0085 27.3955 30.1799 27.9278 30.5589C28.1753 30.7351 28.3344 30.7538 29.5825 30.7538C30.7919 30.7538 31.0006 30.731 31.2618 30.5695C31.7967 30.239 31.8296 30.0843 31.8296 27.9029C31.8296 25.1387 31.8206 25.1278 29.5356 25.1278H28.1231L27.7727 25.4486ZM33.4926 25.4486L33.1423 25.7694L33.1137 27.7875C33.0823 30.0085 33.1153 30.1799 33.6477 30.5589C33.8951 30.7351 34.0542 30.7538 35.3024 30.7538C36.5117 30.7538 36.7204 30.731 36.9817 30.5695C37.5165 30.239 37.5494 30.0843 37.5494 27.9029C37.5494 25.1387 37.5404 25.1278 35.2554 25.1278H33.8429L33.4926 25.4486ZM30.3762 27.9408V29.3473H29.6261H28.8759V27.9408V26.5343H29.6261H30.3762V27.9408ZM36.096 27.9408V29.3473H35.3459H34.5957V27.9408V26.5343H35.3459H36.096V27.9408ZM12.4197 26.8542C12.265 26.923 12.0329 27.0934 11.904 27.2331L11.6696 27.4869L11.6429 31.088C11.6138 35.0385 11.6133 35.0349 12.1749 35.4348C12.4321 35.618 12.573 35.6298 14.5042 35.6298C16.5315 35.6298 16.5624 35.6268 16.7636 35.4128C17.0344 35.1245 17.0286 34.6884 16.7505 34.4271C16.544 34.2332 16.4499 34.2233 14.8282 34.2233H13.123V33.7544V33.2856H16.6392H20.1555V33.7544V34.2233H19.744C19.1839 34.2233 18.899 34.4603 18.899 34.9265C18.899 35.4744 19.1602 35.6298 20.0811 35.6298C20.6968 35.6298 20.8801 35.5939 21.1128 35.4283C21.6406 35.0524 21.6558 34.9327 21.6558 31.1458C21.6558 27.7062 21.6547 27.6855 21.443 27.3687C21.0088 26.7187 21.0311 26.7217 16.6392 26.7257C13.5667 26.7284 12.6392 26.7566 12.4197 26.8542ZM14.5295 30.0037V31.7853H13.8262H13.123V30.0037V28.2221H13.8262H14.5295V30.0037ZM17.2487 30.0037V31.7853H16.6392H16.0298V30.0037V28.2221H16.6392H17.2487V30.0037ZM20.1555 30.0037V31.7853H19.4523H18.749V30.0037V28.2221H19.4523H20.1555V30.0037ZM6.3248 30.4247C7.71866 30.6561 8.69731 32.4036 8.20541 33.7827C7.94492 34.5131 7.30449 35.1886 6.68665 35.3847C6.50212 35.4433 6.48552 35.4075 6.44651 34.8684C6.39935 34.2167 6.18246 33.9419 5.71531 33.9419C5.24816 33.9419 5.03128 34.2167 4.98411 34.8684C4.94511 35.4075 4.92851 35.4433 4.74398 35.3847C4.12614 35.1886 3.48571 34.5131 3.22522 33.7827C2.85475 32.7442 3.30746 31.4163 4.24607 30.7885C4.62602 30.5344 5.52497 30.2721 5.80908 30.3325C5.88644 30.349 6.11852 30.3904 6.3248 30.4247ZM43.0817 30.4247C44.4756 30.6561 45.4542 32.4036 44.9623 33.7827C44.7018 34.5131 44.0614 35.1886 43.4436 35.3847C43.259 35.4433 43.2424 35.4075 43.2034 34.8684C43.1563 34.2167 42.9394 33.9419 42.4722 33.9419C42.0051 33.9419 41.7882 34.2167 41.741 34.8684C41.702 35.4075 41.6854 35.4433 41.5009 35.3847C40.883 35.1886 40.2426 34.5131 39.9821 33.7827C39.6116 32.7442 40.0644 31.4163 41.003 30.7885C41.3829 30.5344 42.2819 30.2721 42.566 30.3325C42.6433 30.349 42.8754 30.3904 43.0817 30.4247ZM27.7727 32.0123L27.4225 32.3331L27.3939 34.3512C27.3625 36.5722 27.3955 36.7436 27.9278 37.1226C28.1757 37.2991 28.3337 37.3175 29.5936 37.3169C30.79 37.3165 31.0226 37.292 31.2487 37.1429C31.7961 36.782 31.8269 36.6662 31.8609 34.8376C31.9007 32.6992 31.8615 32.4329 31.4451 32.0166L31.1201 31.6915H29.6216H28.1231L27.7727 32.0123ZM33.4926 32.0123L33.1423 32.3331L33.1137 34.3512C33.0823 36.5722 33.1153 36.7436 33.6477 37.1226C33.8955 37.2991 34.0536 37.3175 35.3134 37.3169C36.5098 37.3165 36.7425 37.292 36.9685 37.1429C37.5159 36.782 37.5467 36.6662 37.5807 34.8376C37.6205 32.6992 37.5813 32.4329 37.165 32.0166L36.8399 31.6915H35.3414H33.8429L33.4926 32.0123ZM30.3762 34.4577V35.8173H29.6261H28.8759V34.4577V33.098H29.6261H30.3762V34.4577ZM36.096 34.4577V35.8173H35.3459H34.5957V34.4577V33.098H35.3459H36.096V34.4577ZM7.40313 38.1615V39.568H6.93429H6.46546V38.2553C6.46546 36.9569 6.4678 36.9425 6.67643 36.9411C6.79242 36.9403 6.9507 36.8987 7.02806 36.8487C7.37763 36.6228 7.40313 36.7119 7.40313 38.1615ZM41.7013 38.2933L41.7273 39.568H41.3496H40.9719V38.1726V36.7771L41.3236 36.8978L41.6752 37.0186L41.7013 38.2933Z" fill="white"/>
</svg>
