<svg width="48" height="55" viewBox="0 0 48 55" fill="none" xmlns="http://www.w3.org/2000/svg">
<path fill-rule="evenodd" clip-rule="evenodd" d="M21.1792 0.211271C17.374 0.885844 14.2648 2.49513 11.5805 5.17955C8.9167 7.84327 7.26666 11.0918 6.59646 14.9916C6.30858 16.667 6.3615 19.5324 6.71063 21.1691C7.18599 23.397 8.18216 25.7942 9.356 27.5346C9.65082 27.9717 10.9988 30.0675 12.3516 32.1918L14.8111 36.0542L14.2605 36.1625C13.9578 36.2221 13.5179 36.3021 13.2832 36.3402C12.2174 36.5134 9.71537 37.1642 8.21684 37.6583C5.21978 38.6462 3.00507 39.8817 1.62295 41.3367C0.494787 42.5244 -0.00223321 43.6354 7.54111e-06 44.965C0.0024617 46.4242 0.465764 47.4934 1.62861 48.7226C2.56887 49.7167 3.62501 50.4371 5.36426 51.2706C8.58112 52.8124 12.4556 53.7762 17.818 54.3687C19.9438 54.6036 25.6835 54.6957 28.0081 54.5323C38.3323 53.8063 45.7059 50.996 47.5667 47.0778C47.8853 46.4067 47.946 46.1524 47.9905 45.3034C48.0724 43.7364 47.6317 42.6432 46.3915 41.3376C45.0117 39.8852 42.7941 38.6463 39.8164 37.6648C38.3385 37.1776 35.8018 36.5174 34.7304 36.341C34.4956 36.3025 34.0556 36.2221 33.7525 36.1624L33.2015 36.054L35.8793 31.8716C40.0713 25.3241 40.2862 24.9331 40.932 22.6742C41.5346 20.567 41.7869 17.4864 41.5143 15.5649C41.1421 12.9409 40.2624 10.4292 39.015 8.42939C36.5697 4.50893 32.6969 1.62956 28.4046 0.540662C26.1458 -0.032437 23.2883 -0.162721 21.1792 0.211271ZM25.554 3.36177C27.6757 3.53633 30.1489 4.45259 32.0923 5.78402C33.1848 6.53254 34.8147 8.11686 35.5668 9.16158C36.4004 10.3193 37.1552 11.7909 37.5992 13.1243C38.8927 17.0088 38.457 21.4669 36.4543 24.8396C35.457 26.519 24.0879 44.2281 24.007 44.2281C23.9351 44.2281 14.0454 28.8367 11.7002 25.075C10.3969 22.9843 9.69659 20.4155 9.69318 17.7125C9.69019 15.3143 10.1829 13.2125 11.2268 11.1711C13.5306 6.66581 17.871 3.72552 22.8225 3.31567C23.8247 3.23276 24.0279 3.23618 25.554 3.36177ZM22.6196 9.77651C20.2294 10.2313 18.0382 11.8434 16.9259 13.9655C16.2075 15.3364 16.0574 15.9837 16.0574 17.7125C16.0574 19.0496 16.0913 19.3612 16.3067 20.0066C17.2002 22.684 19.0353 24.519 21.7127 25.4126C22.3581 25.628 22.6697 25.6618 24.0068 25.6618C25.7356 25.6618 26.3828 25.5118 27.7537 24.7934C29.6251 23.8126 30.9871 22.1633 31.7068 20.0066C31.9223 19.3612 31.9561 19.0496 31.9561 17.7125C31.9561 16.3754 31.9223 16.0638 31.7068 15.4184C30.8206 12.7628 28.992 10.9213 26.3542 10.0282C25.8129 9.8449 25.3561 9.786 24.2735 9.75954C23.5106 9.74097 22.7664 9.74866 22.6196 9.77651ZM25.2872 13.148C27.5615 13.8318 28.9725 15.9881 28.6937 18.3534C28.5906 19.2271 28.0058 20.4099 27.355 21.0607C26.7042 21.7115 25.5214 22.2963 24.6476 22.3994C23.6788 22.5136 22.826 22.3722 21.9521 21.9526C20.1101 21.068 19.075 19.1486 19.3199 17.0716C19.4229 16.1979 20.0078 15.0151 20.6586 14.3643C21.8215 13.2013 23.7655 12.6905 25.2872 13.148ZM19.792 43.8635C23.0391 48.9719 23.0861 49.0297 24.0068 49.0297C24.9274 49.0297 24.9745 48.9719 28.2215 43.8635C30.9349 39.5948 31.2353 39.163 31.4942 39.1614C31.9695 39.1585 34.8625 39.675 36.2242 40.0057C40.4773 41.0389 43.7383 42.7175 44.5529 44.2927C45.8418 46.7853 39.8887 49.8083 31.5573 50.892C28.9857 51.2266 27.0495 51.3419 24.0068 51.3419C19.8983 51.3419 16.603 51.0428 13.3011 50.3703C7.82674 49.2552 3.83372 47.2618 3.31547 45.385C2.81674 43.5788 6.36865 41.3238 11.7893 40.0054C13.2387 39.6529 15.8693 39.1791 16.4309 39.1695L16.8044 39.1631L19.792 43.8635Z" fill="white"/>
</svg>
