<svg width="48" height="48" viewBox="0 0 48 48" fill="none" xmlns="http://www.w3.org/2000/svg">
<path fill-rule="evenodd" clip-rule="evenodd" d="M38.335 0.034189C38.1493 0.0677484 37.8118 0.205548 37.585 0.340536C37.3584 0.47543 35.1271 2.63448 32.6268 5.13832L28.0807 9.69078H17.1829H6.28505V6.17988C6.28505 3.80644 6.2513 2.59502 6.18099 2.44053C5.97757 1.99414 5.53736 1.91849 4.45709 2.1445C2.78521 2.49434 1.31656 3.61999 0.591003 5.10776C0.379991 5.54028 0.161667 6.11782 0.105891 6.39099C-0.03144 7.06302 -0.0370645 37.6628 0.0999855 38.3864C0.152574 38.664 0.363961 39.2312 0.569724 39.6468C1.21654 40.953 2.294 41.8883 3.69291 42.3579L4.39644 42.594H15.5585C21.6977 42.594 26.7207 42.626 26.7207 42.6652C26.7207 42.7043 25.7926 43.6635 24.6584 44.797C22.9443 46.5096 22.5961 46.9024 22.5961 47.1224C22.5961 47.505 22.7386 47.7158 23.0768 47.8337C23.4974 47.9803 47.0987 47.9803 47.5193 47.8337C47.6828 47.7767 47.8578 47.653 47.9082 47.5587C47.9667 47.4493 48 42.9383 48 35.1077V22.8282L47.753 22.6339C47.2866 22.267 47.1236 22.3495 45.8757 23.5832L44.719 24.7267V17.4977C44.719 13.5216 44.6928 10.2003 44.6608 10.1168C44.5131 9.73193 44.1959 9.69078 41.3771 9.69078H38.6819L40.7503 7.60503C42.9774 5.35936 43.0714 5.22494 43.0626 4.29586C43.0602 4.03536 42.9806 3.6557 42.8857 3.45219C42.65 2.94589 40.3263 0.590732 39.7704 0.294603C39.2674 0.0266897 38.8231 -0.053928 38.335 0.034189ZM40.2929 2.78663C40.9777 3.46466 41.5612 4.10979 41.5895 4.22021C41.6656 4.51803 41.4326 4.88353 40.7168 5.58893L40.0755 6.22103L38.4852 4.62874L36.895 3.03645L37.5964 2.32439C38.342 1.56742 38.5606 1.42559 38.8602 1.50452C38.9633 1.53171 39.6081 2.10859 40.2929 2.78663ZM4.80749 14.3284L4.83205 25.0592L5.03772 25.2649C5.3332 25.5603 5.78765 25.5384 6.0655 25.2154L6.28505 24.9601V18.0754V11.1906H16.4278H26.5705L24.5833 13.1916C22.7924 14.995 22.5961 15.2237 22.5961 15.5057C22.5961 15.9381 22.9074 16.2527 23.3351 16.2527C23.6477 16.2527 23.946 15.9735 28.5933 11.3317L33.5199 6.41076L35.1115 8.00437L36.7029 9.59788L29.4388 16.8624L22.1748 24.1269L20.5842 22.5363L18.9937 20.9457L20.4667 19.4543C21.771 18.134 21.9399 17.9275 21.9399 17.6529C21.9399 17.2245 21.6271 16.9089 21.2028 16.9089C20.901 16.9089 20.7285 17.0526 19.1498 18.6197C18.2019 19.5606 17.3845 20.4068 17.3332 20.5001C17.254 20.6445 14.9093 27.2096 14.9093 27.287C14.9093 27.302 14.337 27.3142 13.6376 27.3142C12.9382 27.3142 12.2887 27.3555 12.1944 27.4059C11.7091 27.6657 11.8318 28.5158 12.3824 28.7077C12.7748 28.8445 31.7647 28.8599 32.2392 28.7239C32.4121 28.6742 32.6109 28.5582 32.6808 28.4661C32.8822 28.2005 32.8425 27.7488 32.5975 27.5186L32.3813 27.3154L25.3722 27.2913L18.3633 27.2673L20.4713 26.5259L22.5794 25.7846L29.8759 18.4876L37.1724 11.1906H40.1958H43.2192V18.7137V26.2368L38.1103 31.3451C33.5283 35.9265 33.0014 36.4837 33.0014 36.7479C33.0014 37.185 33.2792 37.4757 33.6967 37.4757C34.0278 37.4757 34.2883 37.2288 40.3176 31.2L46.5939 24.9243V27.9941V31.0638H45.8378C44.9739 31.0638 44.7907 31.1333 44.6297 31.5219C44.5371 31.7455 44.5392 31.851 44.6403 32.0618C44.8195 32.4356 45.1381 32.5607 45.9142 32.5623L46.5939 32.5637V33.5949V34.626H45.8075C44.8458 34.626 44.5878 34.7747 44.5878 35.3291C44.5878 35.8835 44.8458 36.0321 45.8075 36.0321H46.5939V37.0633V38.0944L45.9142 38.0958C45.1381 38.0974 44.8195 38.2226 44.6403 38.5963C44.542 38.8013 44.5382 38.9154 44.6231 39.1204C44.7724 39.4808 45.0771 39.5943 45.8952 39.5943H46.5939V40.6255V41.6566H45.8148C45.1697 41.6566 45.0016 41.6883 44.8378 41.8409C44.5615 42.0983 44.4991 42.3602 44.6429 42.6601C44.8194 43.0283 45.1411 43.1535 45.9142 43.1551L46.5939 43.1565V44.797V46.4374H35.8386H25.0835L28.7143 42.8021C32.0096 39.5028 32.3452 39.1386 32.3452 38.8608C32.3452 38.4769 31.9878 38.0944 31.6292 38.0944C31.4238 38.0944 31.0664 38.3995 29.817 39.6412L28.2605 41.1879L16.8275 41.186C10.5327 41.185 5.13156 41.1461 4.80937 41.0995C2.93116 40.8279 1.49973 39.2359 1.49336 37.4118C1.48689 35.5588 2.87005 33.9107 4.76634 33.5119C5.0396 33.4544 5.38953 33.4074 5.54402 33.4074C5.71726 33.4074 5.91308 33.3192 6.05491 33.1772L6.28505 32.9472V30.1264V27.3056L6.05491 27.0756C5.80537 26.826 5.39844 26.7765 5.15199 26.9656C4.81612 27.2235 4.78518 27.4575 4.78518 29.7435V31.9977L4.52739 32.0538C3.5388 32.2692 2.56201 32.7282 1.97294 33.2543C1.84405 33.3694 1.6635 33.5204 1.57182 33.5899C1.41208 33.7108 1.40609 33.1477 1.43121 20.2739L1.45736 6.83166L1.73812 6.14491C2.19033 5.03895 3.11462 4.13238 4.15712 3.77213C4.42522 3.67951 4.67569 3.60236 4.71375 3.60068C4.75172 3.59899 4.7939 8.42649 4.80749 14.3284ZM37.4325 5.73208L39.0025 7.30412L38.3915 7.90969L37.7805 8.51526L36.1885 6.92531L34.5965 5.33536L35.1789 4.7477C35.4992 4.42448 35.7841 4.16003 35.8119 4.16003C35.8398 4.16003 36.5691 4.8674 37.4325 5.73208ZM20.7456 24.8533C20.7064 24.8663 20.2736 25.0214 19.7838 25.198L18.8933 25.5188L18.2243 24.8593L17.5553 24.1997L17.8962 23.2282L18.2371 22.2566L19.527 23.543C20.2364 24.2505 20.7848 24.8401 20.7456 24.8533ZM41.9537 33.7811C41.8506 33.8246 39.9569 35.6741 37.7455 37.8913C33.7764 41.8708 33.7256 41.9266 33.7852 42.2349C33.913 42.8955 33.7672 42.8753 38.3951 42.8753H42.5494L42.7436 42.6282C42.9335 42.387 42.938 42.2871 42.938 38.2856V34.19L42.727 33.9969C42.4618 33.7541 42.1948 33.6797 41.9537 33.7811ZM41.4381 38.8444V41.3754H38.8843H36.3305L38.8602 38.8444C40.2515 37.4523 41.4008 36.3134 41.414 36.3134C41.4272 36.3134 41.4381 37.4523 41.4381 38.8444Z" fill="white"/>
</svg>
