<svg width="48" height="48" viewBox="0 0 48 48" fill="none" xmlns="http://www.w3.org/2000/svg">
<path fill-rule="evenodd" clip-rule="evenodd" d="M12.0326 0.144478C10.0484 0.624162 8.29868 2.25442 7.62993 4.24659C6.49068 7.64042 8.56518 11.4308 12.0061 12.242C12.8007 12.4294 14.3238 12.429 15.0627 12.2412C16.7559 11.8107 18.3323 10.5343 19.1013 8.97117C20.3007 6.5329 19.8505 3.76017 17.9422 1.83216C17.1373 1.01889 16.0827 0.417425 14.965 0.134322C14.2421 -0.0488798 12.8118 -0.0438994 12.0326 0.144478ZM11.7517 16.4972C8.32407 16.9712 5.12038 18.787 2.97059 21.4741C1.31485 23.5435 0.35665 25.9352 0.0630001 28.7316C-0.0602411 29.9042 -0.00916729 30.4851 0.273936 31.1312C0.972075 32.7249 3.24374 34.0327 6.63473 34.7932C8.1645 35.1363 8.1561 35.1379 7.73687 34.5888C7.03238 33.6661 6.92945 32.486 7.46187 31.4357C7.71675 30.933 8.02583 30.6634 11.843 27.6149L15.9499 24.3349L16.2237 23.5622C16.8762 21.7214 18.1213 19.851 19.5292 18.597L20.1304 18.0613L19.3987 17.7278C17.4329 16.832 15.9966 16.4971 13.8869 16.4424C13.0813 16.4215 12.1204 16.4462 11.7517 16.4972ZM26.0939 17.5266C23.5314 17.9841 20.9138 19.5933 19.5386 21.5567C19.3993 21.7555 19.4034 21.7595 19.6497 21.666C19.9765 21.5417 20.914 21.5416 21.361 21.6657C21.5508 21.7184 21.91 21.8909 22.1591 22.0489L22.6122 22.3362L23.23 21.8394C23.9401 21.2682 25.1255 20.6729 26.045 20.4255C26.9136 20.1918 28.8808 20.1907 29.7559 20.4235C30.6884 20.6716 32.0557 21.3823 32.8077 22.0099C33.1702 22.3125 33.4668 22.6006 33.4668 22.6504C33.4668 22.8444 33.7164 22.7112 34.788 21.9448L35.9008 21.1489L35.7086 20.8791C35.603 20.7306 35.286 20.402 35.0043 20.1488C32.5202 17.9152 29.2716 16.9592 26.0939 17.5266ZM37.937 17.6194C37.3943 17.9139 37.308 18.5516 37.7446 19.0402L38.0187 19.3469L39.7491 19.4493C40.7009 19.5056 41.4675 19.5852 41.4527 19.6262C41.4001 19.7716 28.4431 28.8972 28.3435 28.8589C28.2879 28.8375 26.6208 27.6683 24.639 26.2607C22.6572 24.8531 20.9231 23.6585 20.7854 23.6062C20.6477 23.5539 20.4295 23.5376 20.3004 23.5699C20.0669 23.6285 9.78929 31.7251 9.37035 32.1806C9.11098 32.4625 9.07514 33.0386 9.2974 33.3558C9.4933 33.6354 10.0289 33.8082 10.337 33.691C10.468 33.6413 12.5289 32.047 14.9169 30.1481C17.3049 28.2492 19.5489 26.4661 19.9036 26.1857L20.5484 25.6756L24.2488 28.3093C26.2841 29.7578 28.0559 30.9718 28.1862 31.007C28.3166 31.0423 28.5363 31.028 28.6745 30.9753C28.8128 30.9226 32.0653 28.6537 35.9025 25.9334C39.7395 23.2131 42.8941 21.0025 42.9126 21.021C42.931 21.0394 42.8084 21.8757 42.64 22.8792C42.3851 24.3985 42.3534 24.7507 42.4504 24.9848C42.5567 25.2415 43.0495 25.5726 43.3253 25.5726C43.5297 25.5726 44.0063 25.2805 44.1061 25.094C44.2363 24.8507 45.1851 19.2906 45.1853 18.7698C45.1855 18.4358 45.132 18.3185 44.885 18.1106C44.7198 17.9716 44.5331 17.8575 44.47 17.8572C44.407 17.8568 42.9931 17.7696 41.3281 17.6633C39.6631 17.5569 38.2788 17.4711 38.252 17.4725C38.2251 17.4738 38.0834 17.54 37.937 17.6194ZM36.836 27.7261C35.5954 28.6032 35.4613 28.727 35.3875 29.0613C34.7417 31.991 32.9497 34.0439 30.243 34.9545C27.3117 35.9406 23.9031 34.9328 22.0132 32.5213C21.1727 31.4489 20.7744 30.5847 20.4902 29.2175L20.3243 28.4192L19.2051 29.2971C17.6598 30.5095 17.7818 30.3205 18.0382 31.1048C19.166 34.5536 22.2068 37.2325 25.8326 37.9713C28.4203 38.4987 31.2993 37.9705 33.4576 36.5722L34.1808 36.1037L35.4152 37.3353L36.6495 38.5669L36.6087 39.2081L36.5679 39.8493L40.4128 43.7041C42.5275 45.8242 44.3764 47.6216 44.5214 47.6984C44.8344 47.8641 45.2637 47.8778 45.6419 47.7339C46.0624 47.5741 47.7713 45.7979 47.9106 45.376C48.1634 44.6099 48.161 44.6068 43.9428 40.398C41.2505 37.7117 39.9721 36.5012 39.7767 36.4535C39.6216 36.4155 39.3359 36.427 39.1419 36.4791L38.7891 36.5736L37.5049 35.3078L36.2207 34.042L36.5531 33.5792C37.0314 32.9136 37.7169 31.4121 37.9571 30.5042C38.2229 29.5003 38.411 27.598 38.2921 27.1182L38.2031 26.7595L36.836 27.7261ZM13.9512 33.475C12.8078 34.3838 11.7764 35.1916 11.659 35.27C11.4621 35.4015 11.5216 35.4184 12.4221 35.4874C13.3052 35.5548 16.7837 35.4108 17.6139 35.2723L17.9229 35.2208L17.5043 34.5715C17.0323 33.8394 16.5874 32.974 16.3294 32.2864C16.2336 32.0312 16.1271 31.8225 16.0927 31.8225C16.0582 31.8225 15.0945 32.5661 13.9512 33.475Z" fill="white"/>
</svg>
