<svg width="48" height="49" viewBox="0 0 48 49" fill="none" xmlns="http://www.w3.org/2000/svg">
<path fill-rule="evenodd" clip-rule="evenodd" d="M2.01644 0.136051C0.749637 0.491153 -0.174269 1.88368 0.0277888 3.13348C0.179426 4.07157 0.814986 4.91482 1.65514 5.29293C2.25352 5.56212 3.24427 5.56212 3.84265 5.29293C4.39456 5.04458 5.01444 4.42902 5.25095 3.89439L5.43367 3.48136L10.8516 3.4822L16.2695 3.48305L15.1981 3.95016C13.5177 4.6829 11.2273 6.0789 10.3536 6.903C9.98146 7.25388 9.93226 7.57048 10.1987 7.89958C10.5017 8.27365 10.8516 8.18473 11.7777 7.49828C13.2793 6.38537 15.0764 5.40804 16.8328 4.749C17.8731 4.35869 19.9237 3.81655 20.7413 3.71562L21.2696 3.65036L21.3088 4.2648C21.3523 4.94853 21.5091 5.20401 22.0174 5.41912C22.4432 5.59939 25.588 5.59939 26.0138 5.41912C26.5221 5.20401 26.6789 4.94853 26.7225 4.2648L26.7616 3.65036L27.2899 3.71515C27.5805 3.75074 28.3736 3.92153 29.0523 4.09476C36.464 5.98623 42.2058 11.7735 44.0004 19.1615C44.1572 19.807 44.3408 20.6943 44.4084 21.1332C44.5721 22.1972 44.5712 25.9 44.4069 26.9546C44.0709 29.1102 43.4664 31.0489 42.5182 33.0106C40.8956 36.368 38.5144 39.0886 35.3065 41.2504C34.3319 41.9072 32.2415 42.9634 31.0848 43.3834C30.0945 43.7429 28.0237 44.2828 27.2899 44.3726L26.7616 44.4374L26.7225 43.823C26.6789 43.1392 26.5221 42.8838 26.0138 42.6687C25.588 42.4884 22.4432 42.4884 22.0174 42.6687C21.5091 42.8838 21.3523 43.1392 21.3088 43.823L21.2696 44.4374L20.7413 44.3726C20.4507 44.337 19.6577 44.1662 18.9789 43.993C13.0478 42.4794 8.16482 38.497 5.51291 33.0106C4.55577 31.0304 3.99579 29.2477 3.62539 27.0015C3.43572 25.8513 3.46474 21.9957 3.67205 20.8086C4.35531 16.895 5.9159 13.5551 8.44744 10.5884C9.05934 9.87133 9.13379 9.56176 8.7755 9.22516C8.4573 8.9263 8.09008 8.96245 7.75 9.32619C6.36461 10.8078 4.86918 13.095 4.00518 15.0536C1.68256 20.3191 1.45806 25.9809 3.35648 31.4145C5.30926 37.0035 9.73208 41.7541 15.204 44.14L16.2695 44.6047L10.8516 44.6056L5.43367 44.6064L5.25499 44.2026C4.80872 43.1936 3.87007 42.591 2.75228 42.5957C1.94132 42.5991 1.38135 42.8285 0.824094 43.3858C0.265431 43.9445 0.0368025 44.5035 0.0368025 45.3106C0.0368025 46.4165 0.653866 47.3759 1.65514 47.8264C2.25352 48.0956 3.24427 48.0956 3.84265 47.8264C4.39456 47.578 5.01444 46.9625 5.25095 46.4278L5.43367 46.0148H13.3529H21.2722L21.3074 46.7107C21.3464 47.4839 21.4857 47.7275 22.0174 47.9526C22.4432 48.1328 25.588 48.1328 26.0138 47.9526C26.5451 47.7277 26.6849 47.4838 26.7238 46.7134L26.7588 46.0202L31.123 45.9941L35.4873 45.9679L35.6667 45.7462C35.8949 45.4642 35.8949 45.1571 35.6668 44.875C35.4921 44.6591 35.4396 44.652 33.6246 44.6017C32.6001 44.5733 31.8144 44.5415 31.8786 44.5313C32.1514 44.4874 33.9973 43.6045 34.9072 43.0824C40.5605 39.8391 44.4492 34.3266 45.6019 27.9218C46.5083 22.8852 45.5939 17.5772 43.0581 13.1566C40.7123 9.06742 37.089 5.80596 32.8273 3.94772L31.7618 3.48305L37.1731 3.4822L42.5843 3.48136L42.8339 3.99138C43.306 4.95632 44.1771 5.48926 45.2823 5.48926C46.3882 5.48926 47.3476 4.87219 47.7981 3.87092C48.0673 3.27254 48.0673 2.28178 47.7981 1.6834C47.3476 0.682131 46.3882 0.0650677 45.2823 0.0650677C44.1771 0.0650677 43.306 0.598003 42.8339 1.56294L42.5843 2.07297H34.6717H26.7591L26.7239 1.37703C26.6848 0.603825 26.5456 0.360267 26.0138 0.135206C25.588 -0.0450686 22.4432 -0.0450686 22.0174 0.135206C21.4857 0.360267 21.3464 0.603825 21.3074 1.37703L21.2722 2.07297H13.3529H5.43367L5.25499 1.66913C4.7168 0.452375 3.29272 -0.221775 2.01644 0.136051ZM3.43046 1.60303C4.32601 2.14902 4.32601 3.4053 3.43046 3.95129C2.56205 4.48085 1.38811 3.80595 1.38811 2.77716C1.38811 1.74838 2.56205 1.07348 3.43046 1.60303ZM25.424 2.77716V4.13861H24.0156H22.6072V2.77716V1.41572H24.0156H25.424V2.77716ZM45.9639 1.60303C47.1406 2.32037 46.6519 4.13795 45.2823 4.13795C44.5528 4.13795 43.9216 3.50671 43.9216 2.77716C43.9216 1.74838 45.0955 1.07348 45.9639 1.60303ZM22.795 6.96901C16.4876 7.34918 10.8031 11.413 8.22998 17.3814C6.46283 21.4803 6.46283 26.6074 8.22998 30.7063C10.0002 34.8125 13.2506 38.0609 17.3635 39.8339C20.8375 41.3317 25.1959 41.5704 28.9121 40.4664C34.3658 38.8463 38.818 34.3941 40.4381 28.9404C41.3539 25.858 41.3539 22.2298 40.4381 19.1474C39.4149 15.7027 37.1977 12.537 34.2658 10.3343C30.9571 7.8485 27.0792 6.71071 22.795 6.96901ZM27.0671 8.55119C29.2139 9.00611 31.4274 9.95949 33.1232 11.1594C34.2172 11.9336 36.0792 13.777 36.8138 14.8133C40.7681 20.3912 40.7872 27.625 36.8625 33.2001C36.1271 34.2447 34.2665 36.1198 33.2641 36.8265C27.6251 40.8016 20.4502 40.8267 14.8594 36.8908C13.7631 36.119 11.9303 34.2808 11.1312 33.1515C9.92418 31.4458 8.98554 29.2607 8.5096 27.0485C8.3265 26.1976 8.29749 25.7863 8.29749 24.0439C8.29749 22.3015 8.3265 21.8902 8.5096 21.0393C8.98554 18.8271 9.92418 16.6419 11.1312 14.9363C11.9053 13.8423 13.7487 11.9803 14.785 11.2457C16.8815 9.7595 19.2566 8.79701 21.7799 8.41111C23.0597 8.21543 25.8288 8.28876 27.0671 8.55119ZM10.9941 20.3827C10.8813 20.4282 10.744 20.5495 10.6889 20.6523C10.6238 20.7742 10.5889 21.9647 10.5889 24.0742C10.5889 27.1181 10.5996 27.3224 10.7682 27.531C10.9386 27.7417 11.0123 27.7542 12.2493 27.7829C13.4629 27.811 13.5684 27.7994 13.807 27.6117C14.1578 27.3359 14.1618 26.8581 13.8156 26.5858C13.61 26.4242 13.4352 26.3912 12.7828 26.3912H11.9973V23.7292C11.9973 22.1127 11.9587 20.9563 11.8988 20.7846C11.8446 20.6291 11.6947 20.4538 11.5657 20.395C11.2958 20.272 11.2703 20.2715 10.9941 20.3827ZM16.7155 20.4332C15.5809 20.7388 14.7269 21.4531 14.2219 22.519C13.9502 23.0926 13.9221 23.2356 13.9221 24.0439C13.9221 24.8522 13.9502 24.9952 14.2219 25.5688C15.1402 27.5071 17.4628 28.3267 19.3006 27.3609C19.9574 27.0157 20.6748 26.2651 20.9809 25.603C21.2183 25.0893 21.2458 24.9274 21.2458 24.0439C21.2458 23.1565 21.2188 22.9997 20.9764 22.4747C20.4963 21.4354 19.4214 20.597 18.2956 20.3835C17.6459 20.2603 17.3197 20.2705 16.7155 20.4332ZM24.9781 20.4274C23.6342 20.8051 22.7629 21.6188 22.3318 22.8985C21.5387 25.2529 23.3023 27.7164 25.7996 27.7426C26.7237 27.7523 27.3493 27.532 27.9619 26.9812C28.9279 26.1126 29.4896 24.2753 28.9851 23.634C28.7929 23.3897 28.7756 23.3866 27.5835 23.3866C26.3915 23.3866 26.3742 23.3897 26.182 23.634C26.075 23.7701 25.9874 23.9545 25.9874 24.0439C25.9874 24.1333 26.075 24.3177 26.182 24.4537C26.3584 24.6781 26.4366 24.7011 27.0215 24.7011C27.3761 24.7011 27.6871 24.7347 27.7125 24.7757C27.7724 24.8727 27.4315 25.6326 27.2263 25.8596C26.7508 26.3854 25.6509 26.5541 24.9055 26.2155C23.6565 25.6481 23.1315 24.1245 23.777 22.9403C24.4014 21.7947 25.7117 21.3734 26.9121 21.9322C27.5359 22.2226 27.776 22.2261 28.0367 21.9488C28.3441 21.6215 28.2998 21.2894 27.9054 20.9644C27.2442 20.4193 25.8904 20.171 24.9781 20.4274ZM32.9397 20.3854C32.3161 20.5156 31.5848 20.9061 31.1215 21.3563C29.6224 22.8132 29.5957 25.2021 31.0621 26.6684C32.7561 28.3625 35.6368 28.0312 36.852 26.0028C38.3081 23.5721 36.7619 20.5574 33.9496 20.3432C33.6241 20.3185 33.1697 20.3375 32.9397 20.3854ZM18.5698 21.892C20.4156 22.7274 20.4464 25.3188 18.6206 26.169C17.6808 26.6066 16.6292 26.414 15.922 25.6747C15.4698 25.2021 15.2648 24.6933 15.2648 24.0439C15.2648 23.7554 15.3345 23.3523 15.4196 23.1479C15.62 22.667 16.1697 22.0961 16.645 21.8752C17.1586 21.6366 18.0223 21.6441 18.5698 21.892ZM34.4558 21.807C34.6586 21.8677 35.0085 22.0795 35.2335 22.2775C35.7961 22.7728 36.0339 23.2975 36.0339 24.0439C36.0339 24.7902 35.7961 25.315 35.2335 25.8103C33.7243 27.1387 31.3467 26.0595 31.3423 24.0439C31.3401 23.099 31.9969 22.1354 32.8544 21.8251C33.2658 21.6763 33.9921 21.668 34.4558 21.807ZM44.5597 42.667C43.7326 42.8993 43.0758 43.477 42.7489 44.2594L42.6039 44.6064H40.4582C38.4298 44.6064 38.2992 44.617 38.0653 44.801C37.8858 44.9422 37.8179 45.0822 37.8179 45.3106C37.8179 45.539 37.8858 45.679 38.0653 45.8202C38.2992 46.0042 38.4299 46.0148 40.4551 46.0148H42.5976L42.7762 46.4186C43.2225 47.4276 44.1612 48.0302 45.279 48.0255C46.0899 48.0221 46.6499 47.7927 47.2071 47.2354C47.7658 46.6767 47.9944 46.1177 47.9944 45.3106C47.9944 44.5035 47.7658 43.9445 47.2071 43.3858C46.5138 42.6925 45.474 42.4102 44.5597 42.667ZM3.43046 44.1365C4.32601 44.6825 4.32601 45.9388 3.43046 46.4847C2.56205 47.0143 1.38811 46.3394 1.38811 45.3106C1.38811 44.5811 2.01935 43.9498 2.7489 43.9498C2.95837 43.9498 3.25977 44.0323 3.43046 44.1365ZM25.424 45.3106V46.6721H24.0156H22.6072V45.3106V43.9492H24.0156H25.424V45.3106ZM45.9639 44.1365C47.1406 44.8538 46.6519 46.6714 45.2823 46.6714C44.5528 46.6714 43.9216 46.0402 43.9216 45.3106C43.9216 44.8515 44.1905 44.3866 44.6008 44.1365C44.7715 44.0323 45.0729 43.9498 45.2823 43.9498C45.4918 43.9498 45.7932 44.0323 45.9639 44.1365Z" fill="white"/>
</svg>
