<svg width="48" height="49" viewBox="0 0 48 49" fill="none" xmlns="http://www.w3.org/2000/svg">
<path fill-rule="evenodd" clip-rule="evenodd" d="M5.20408 0.303714L4.90037 0.607428V5.81867V11.0299L5.20408 11.3336L5.5078 11.6373H8.52903H11.5503V14.1311V16.6248L6.79663 16.6254C3.9327 16.6257 1.89357 16.6675 1.66706 16.7303C0.868031 16.9523 0.231198 17.595 0.0150762 18.3977C-0.070853 18.7168 0.186311 21.0045 1.418 30.8766C2.32748 38.1665 2.99268 43.1432 3.09378 43.4145C3.18594 43.6619 3.41941 44.0224 3.61257 44.2155C4.20337 44.8063 4.68383 44.8869 7.61935 44.8869H10.1967L12.7037 46.5541C15.8213 48.6275 15.6411 48.6365 15.6833 46.407L15.712 44.8869H29.3538C44.4809 44.8869 43.7199 44.9207 44.4251 44.2155C44.6183 44.0224 44.8518 43.6619 44.9439 43.4145C45.045 43.1432 45.7102 38.1665 46.6197 30.8766C48.2418 17.8748 48.1978 18.423 47.6809 17.656C47.2174 16.9682 46.46 16.6263 45.3973 16.6254L44.7998 16.6248V20.5242V24.4237L42.8341 28.3464C41.7512 30.5072 40.7368 32.4006 40.5756 32.562C39.8898 33.2477 39.8771 33.2495 35.9201 33.2495H32.3312V32.4183V31.5871H34.5588H36.7864L34.9745 27.9823L33.1625 24.3774V20.5011V16.6248H23.1876H13.2128V14.1311V11.6373H16.234H19.2552L19.5589 11.3336L19.8627 11.0299V8.83991V6.64991H31.5H43.1373V4.48682C43.1373 1.89304 43.0474 1.46308 42.3608 0.776585C41.6948 0.110659 41.2133 0 38.9811 0C36.7601 0 36.2384 0.117828 35.5905 0.765571C34.9858 1.3704 34.825 1.97741 34.825 3.65558V4.98743H27.3438H19.8627V2.79743V0.607428L19.5589 0.303714L19.2552 0H12.3815H5.5078L5.20408 0.303714ZM12.9706 3.57235C14.161 4.16565 15.2519 4.77723 15.3948 4.93153C15.6101 5.16407 15.6545 5.31556 15.6545 5.81867C15.6545 6.32178 15.6101 6.47327 15.3948 6.70581C15.2519 6.86011 14.1531 7.47616 12.953 8.07475C10.9085 9.09468 10.7393 9.16025 10.2678 9.11578C9.87824 9.0791 9.69048 8.99431 9.43654 8.74037L9.10851 8.41234V5.82501V3.23778L9.36827 2.95827C10.043 2.23229 10.4055 2.29401 12.9706 3.57235ZM34.825 9.14362V9.97486H38.9811H43.1373V9.14362V8.31238H38.9811H34.825V9.14362ZM34.825 17.456V23.2747H36.4874H38.1499V17.456V11.6373H36.4874H34.825V17.456ZM39.8124 17.456V23.2747H41.4749H43.1373V17.456V11.6373H41.4749H39.8124V17.456ZM25.3273 18.6563C25.6382 18.8484 25.9523 19.1632 26.1462 19.4764L26.4606 19.9848L26.4912 22.9286C26.5197 25.6805 26.5339 25.8723 26.7083 25.8723C26.811 25.8723 27.1767 26.0131 27.521 26.1852C28.2957 26.5722 29.1297 27.4342 29.5054 28.2358C29.754 28.766 29.7856 28.9568 29.7856 29.9246C29.7856 30.8924 29.754 31.0831 29.5054 31.6133C29.1297 32.415 28.2957 33.277 27.521 33.664C27.1767 33.8361 26.811 33.9769 26.7083 33.9769C26.5339 33.9769 26.5197 34.1687 26.4912 36.9206L26.4606 39.8643L26.1462 40.3727C25.7202 41.0614 25.0273 41.4839 24.2297 41.5416C23.0808 41.6247 22.2458 41.1299 21.7374 40.0648C21.4393 39.4401 21.3429 39.3407 20.4614 38.7511C18.9235 37.7224 16.6747 36.6944 15.161 36.328L14.8752 36.2588V39.7416V43.2244H12.4508H10.0264L9.43737 40.6008C9.1134 39.1579 8.73955 37.4863 8.60665 36.8862L8.36507 35.7952L7.33403 35.7375C6.52294 35.6922 6.17559 35.6214 5.70532 35.4055C4.87678 35.0251 4.03785 34.2019 3.62587 33.3649L3.28984 32.6824V29.9246V27.1667L3.62587 26.4843C4.0365 25.6501 4.87325 24.8273 5.70532 24.4394C6.29976 24.1624 6.32054 24.1605 9.47218 24.0913C12.7214 24.0198 13.6102 23.9257 15.2908 23.4756C17.0284 23.0101 18.8702 22.1624 20.4736 21.0898C21.2971 20.539 21.47 20.3728 21.6456 19.963C21.9571 19.2364 22.2939 18.857 22.899 18.5509C23.6639 18.1639 24.5964 18.2043 25.3273 18.6563ZM23.4913 20.2534L23.1876 20.5571V29.9246V39.292L23.4913 39.5957C23.8755 39.9799 24.1622 39.9799 24.5464 39.5957L24.8501 39.292V29.9246V20.5571L24.5464 20.2534C24.3793 20.0864 24.142 19.9497 24.0189 19.9497C23.8957 19.9497 23.6584 20.0864 23.4913 20.2534ZM20.3822 23.1793C18.1938 24.5296 15.2215 25.4713 12.3555 25.7223L11.5503 25.7928V29.9246V34.0564L12.3555 34.127C15.3297 34.3877 18.065 35.2597 20.4845 36.7183C21.0168 37.0393 21.4688 37.3018 21.4888 37.3018C21.5088 37.3018 21.5251 33.9821 21.5251 29.9246C21.5251 25.8671 21.49 22.5525 21.4472 22.5588C21.4044 22.5651 20.9251 22.8443 20.3822 23.1793ZM35.4484 24.9897C35.4484 25.0187 36.1747 26.4944 37.0624 28.2691L38.6764 31.4958L39.0107 31.4635C39.3385 31.4318 39.376 31.3693 40.9827 28.1842L42.6205 24.9372H39.0344C37.0621 24.9372 35.4484 24.9608 35.4484 24.9897ZM6.71652 25.9132C6.48679 25.9852 6.16427 26.1323 5.99989 26.2399C5.70501 26.4332 5.10818 27.1711 5.10818 27.3425C5.10818 27.3912 5.80954 27.4309 6.66675 27.4309H8.22532V28.2621V29.0933H6.56285H4.90037V29.9246V30.7558H6.56285H8.22532V31.5871V32.4183H6.66675C5.7846 32.4183 5.10818 32.4599 5.10818 32.5141C5.10818 32.7608 5.83749 33.5248 6.3008 33.7633C6.77232 34.0063 6.94688 34.0318 8.35198 34.0644L9.8878 34.0998V29.9341V25.7684L8.51106 25.7754C7.71463 25.7794 6.9582 25.8375 6.71652 25.9132ZM26.5126 29.9246C26.5126 31.2508 26.5528 32.2105 26.6084 32.2105C26.8544 32.2105 27.6188 31.4814 27.856 31.0208C28.3911 29.981 28.0926 28.6977 27.1483 27.9773C26.904 27.7911 26.6612 27.6387 26.6084 27.6387C26.5528 27.6387 26.5126 28.5983 26.5126 29.9246ZM43.9686 35.7433V36.5745H38.1499H32.3312V35.7433V34.912H38.1499H43.9686V35.7433ZM10.7613 38.6123L11.3972 41.51L12.3049 41.54L13.2128 41.57V38.7721V35.9742L12.8751 35.9137C12.6894 35.8804 11.9947 35.822 11.3315 35.7839L10.1255 35.7146L10.7613 38.6123ZM43.9686 39.0682V39.8994H38.1499H32.3312V39.0682V38.237H38.1499H43.9686V39.0682ZM33.9937 42.3932V43.2244H33.1625H32.3312V42.3932V41.5619H33.1625H33.9937V42.3932ZM37.3187 42.3932V43.2244H36.4874H35.6562V42.3932V41.5619H36.4874H37.3187V42.3932ZM40.6436 42.3932V43.2244H39.8124H38.9811V42.3932V41.5619H39.8124H40.6436V42.3932ZM43.9686 42.3932V43.2244H43.1373H42.3061V42.3932V41.5619H43.1373H43.9686V42.3932Z" fill="white"/>
</svg>
