<svg width="48" height="49" viewBox="0 0 48 49" fill="none" xmlns="http://www.w3.org/2000/svg">
<path fill-rule="evenodd" clip-rule="evenodd" d="M11.9887 4.76176C11.9623 9.46341 11.9593 9.52871 11.7525 9.97256C11.4606 10.599 10.6774 11.395 10.0491 11.7037L9.52263 11.9624L4.76131 11.9891L0 12.0158V29.6461C0 43.1152 0.026457 47.3345 0.112114 47.5224C0.36064 48.068 -0.731038 48.0358 17.5425 48.0358C36.2146 48.0358 34.8945 48.0829 35.0813 47.41C35.1832 47.0431 35.2337 31.1484 35.1331 31.1484C35.106 31.1484 32.5624 32.8924 29.4805 35.024C26.3985 37.1556 23.6135 39.0778 23.2914 39.2957C22.7191 39.6828 22.597 39.7182 17.881 40.8615L13.056 42.0314H8.53894C5.62032 42.0314 3.95804 41.9972 3.84142 41.9347C3.5715 41.7903 3.356 41.3107 3.42327 41.0043C3.45507 40.8597 3.58773 40.6411 3.71814 40.5186L3.95531 40.2957L7.45251 40.268L10.9496 40.2403L11.0549 39.8892C11.1128 39.6961 12.4404 37.6609 14.0052 35.3666L16.8504 31.1953L25.9927 24.8625L35.1352 18.5297L35.1591 9.76945C35.1755 3.79946 35.1513 0.891074 35.0832 0.638419C34.9007 -0.0397043 35.6499 0.000450225 23.1796 0.000450225H12.0154L11.9887 4.76176ZM5.76987 5.81892L1.36038 10.2309L5.30818 10.2054L9.25599 10.1798L9.58718 9.92706C10.2353 9.43264 10.2312 9.46341 10.2038 5.21407L10.1794 1.40689L5.76987 5.81892ZM32.2212 2.73349C32.5725 3.00988 32.6792 3.33046 32.5502 3.72141C32.3556 4.31087 32.3176 4.31612 28.237 4.31612H24.5661L24.2919 4.04189C23.85 3.6 23.9713 2.84814 24.5203 2.62663C24.6309 2.58197 26.3516 2.54276 28.3441 2.53947C31.9038 2.53366 31.9714 2.53703 32.2212 2.73349ZM32.1851 6.1015C32.455 6.24589 32.6705 6.72549 32.6032 7.0319C32.5714 7.17648 32.4387 7.39507 32.3083 7.5176L32.071 7.74052H29.5846H27.0983L26.8143 7.42275C26.5747 7.15443 26.5388 7.05207 26.5844 6.76602C26.616 6.56712 26.7386 6.3398 26.8812 6.21596C27.1198 6.00871 27.1683 6.00487 29.5644 6.00487C31.0586 6.00487 32.0746 6.0423 32.1851 6.1015ZM43.8604 14.7507C43.6398 14.8287 39.6051 17.5383 39.2815 17.8257C39.2148 17.8849 42.8693 23.2886 43.0526 23.4019C43.1794 23.4803 47.4994 20.4247 47.7159 20.1034C47.983 19.7069 48.0665 19.2283 47.9463 18.7822C47.8378 18.3792 45.7505 15.3007 45.3975 15.023C45.1696 14.8438 44.5444 14.6313 44.2826 14.6442C44.2052 14.6479 44.0152 14.6959 43.8604 14.7507ZM31.4592 15.6522C31.7369 15.9131 31.8187 16.2567 31.6906 16.6243C31.489 17.2024 32.3478 17.1693 17.5427 17.1693C8.44868 17.1693 3.96282 17.1377 3.84142 17.0727C3.5715 16.9283 3.356 16.4487 3.42327 16.1423C3.48134 15.8779 3.77265 15.5491 4.03422 15.4525C4.11162 15.424 10.2615 15.4081 17.7008 15.4172L31.2266 15.4337L31.4592 15.6522ZM36.6761 19.5891C36.182 19.9353 35.7638 20.2546 35.7469 20.2987C35.6901 20.4475 39.5115 25.897 39.6249 25.8289C39.9672 25.6233 41.4721 24.5564 41.5128 24.4906C41.5792 24.3833 37.8213 18.9509 37.6841 18.9558C37.6239 18.9581 37.1702 19.243 36.6761 19.5891ZM25.2301 19.9453C25.6199 20.2733 25.6418 20.8676 25.2767 21.2107L25.0346 21.4381L14.543 21.4628L4.05148 21.4873L3.77162 21.252C3.43227 20.9664 3.32851 20.6101 3.47881 20.2471C3.71317 19.6815 3.12596 19.7103 14.5113 19.7062L24.9415 19.7024L25.2301 19.9453ZM26.5969 26.563C22.4178 29.4546 18.9445 31.8725 18.8786 31.936C18.7824 32.0287 19.1279 32.5846 20.6377 34.7662C21.6712 36.2594 22.5592 37.4953 22.6111 37.5127C22.6631 37.53 26.1663 35.1486 30.3959 32.2208L38.0863 26.8975L37.6819 26.3256C37.4596 26.0111 36.6094 24.7827 35.7928 23.5959C34.9761 22.4091 34.2826 21.4083 34.2517 21.3717C34.2209 21.3352 30.7762 23.6713 26.5969 26.563ZM19.0636 24.2702C19.5927 24.7771 19.3093 25.6162 18.5632 25.7517C18.3897 25.7832 15.0321 25.7965 11.1016 25.7813L3.95541 25.7538L3.71823 25.5308C3.58773 25.4083 3.45507 25.1897 3.42327 25.0451C3.35816 24.7487 3.56493 24.2698 3.82312 24.1194C3.93073 24.0568 6.53778 24.0228 11.3938 24.0209L18.8005 24.0181L19.0636 24.2702ZM11.3617 31.9811C11.6165 32.2959 11.6736 32.6076 11.5371 32.9372C11.3112 33.4827 11.2295 33.4938 7.47043 33.4938H4.04857L3.77021 33.2596C3.43218 32.9751 3.3287 32.6185 3.47881 32.256C3.70135 31.7188 3.74563 31.7132 7.63114 31.7367L11.1812 31.7582L11.3617 31.9811ZM16.516 34.8243C15.9807 35.6083 15.5427 36.2974 15.5427 36.3557C15.5427 36.4904 17.3666 39.123 17.46 39.123C17.5443 39.123 20.6395 38.3866 20.802 38.3279C20.8723 38.3024 20.2939 37.3821 19.3143 35.9604C18.4329 34.6812 17.6616 33.5815 17.6005 33.5167C17.5132 33.424 17.2808 33.7043 16.516 34.8243ZM8.26123 36.1236C8.53115 36.268 8.74665 36.7476 8.67938 37.054C8.64758 37.1986 8.51482 37.4171 8.38442 37.5397C8.14921 37.7606 8.12848 37.7626 6.05132 37.7626C3.97417 37.7626 3.95344 37.7606 3.71823 37.5397C3.58783 37.4171 3.45507 37.1986 3.42327 37.054C3.35816 36.7575 3.56493 36.2787 3.82312 36.1283C4.04416 35.9995 8.02171 35.9953 8.26123 36.1236ZM13.628 39.0543C13.2026 39.6776 12.8704 40.2035 12.8897 40.2227C12.9195 40.2525 13.9203 40.0185 15.2179 39.6783L15.5655 39.5871L14.9955 38.7687C14.682 38.3186 14.4201 37.9437 14.4133 37.9355C14.4067 37.9274 14.0532 38.4309 13.628 39.0543ZM32.3676 39.7372L32.6021 39.9716V42.4634V44.9551L32.2957 45.2289L31.9893 45.5027H29.6497C27.1234 45.5027 26.9167 45.469 26.6845 45.02C26.5215 44.7049 26.5174 44.5528 26.6629 44.2335C26.8715 43.7755 27.1325 43.7201 29.0792 43.7201H30.8664V41.8844C30.8664 40.8101 30.9063 39.9743 30.9626 39.8691C31.2245 39.3798 31.9425 39.3124 32.3676 39.7372Z" fill="white"/>
</svg>
