<svg width="48" height="49" viewBox="0 0 48 49" fill="none" xmlns="http://www.w3.org/2000/svg">
<path fill-rule="evenodd" clip-rule="evenodd" d="M37.8101 0.13135C37.6408 0.207278 36.9367 0.844459 36.2454 1.54731C35.0517 2.76103 34.9885 2.84639 34.9885 3.2443C34.9885 4.02369 35.8129 4.61757 36.4398 4.28985C36.7831 4.11029 38.9787 1.93875 39.1527 1.60651C39.4684 1.00391 39.2476 0.390326 38.6208 0.128375C38.21 -0.0432844 38.1996 -0.0432842 37.8101 0.13135ZM29.8503 0.387864L29.5504 0.68778V2.22081C29.5504 3.73075 29.5544 3.75774 29.8144 4.01774C30.1465 4.34987 30.6014 4.45443 30.9985 4.28995C31.5125 4.07704 31.6025 3.7564 31.6025 2.13729V0.68778L31.3026 0.387864C30.8803 -0.0344602 30.2726 -0.0344602 29.8503 0.387864ZM23.1604 1.15145C22.4893 1.33963 21.5995 1.97538 21.1367 2.59737C20.651 3.25015 20.5262 3.49137 20.3122 4.19217L20.1397 4.7565L10.2007 11.8565C4.73432 15.7615 0.202851 19.0369 0.130925 19.1354C0.0263695 19.2784 0 21.9577 0 32.4245C0 45.4641 0.0011287 45.5376 0.214035 46.1066C0.499689 46.8701 1.23722 47.6076 2.0007 47.8933L2.57283 48.1073H24.0097C45.4067 48.1073 45.4476 48.1069 46.0117 47.8959C46.6961 47.6399 47.3711 47.0119 47.7164 46.3101L47.9681 45.7987L47.9949 32.5836C48.0121 24.0958 47.9857 19.3013 47.9211 19.1807C47.8658 19.0774 44.864 16.8815 41.2506 14.3011C37.6371 11.7206 34.6807 9.59035 34.6807 9.56695C34.6807 9.54366 34.819 9.27955 34.988 8.98005C35.392 8.26407 35.469 7.66639 35.2528 6.92271C34.7234 5.10197 32.306 4.51107 30.9087 5.86094L30.574 6.18436L28.3435 3.96315C26.4204 2.04792 26.0212 1.69906 25.4462 1.43116C24.6497 1.06003 23.8397 0.960916 23.1604 1.15145ZM24.7074 3.41565C24.8598 3.4965 27.692 6.27834 31.0012 9.59763C37.491 16.1071 37.399 15.9994 37.1578 16.8044C36.9312 17.5605 36.8466 17.6002 30.6711 19.844C26.8872 21.2188 24.7252 22.0565 24.4296 22.2622L23.9774 22.5771L20.9132 19.5129L17.8489 16.4487L18.1674 16.0156C18.3897 15.7133 19.1171 13.8478 20.5757 9.83906C21.725 6.68015 22.7169 3.99937 22.7798 3.88189C23.0693 3.34085 24.0974 3.09213 24.7074 3.41565ZM33.0565 7.33754C33.3141 7.57056 33.2917 7.80552 32.9847 8.09395L32.7252 8.33774L32.3947 8.00355L32.0642 7.66947L32.3521 7.4186C32.6917 7.12279 32.8048 7.10976 33.0565 7.33754ZM17.6927 11.5487L16.5852 14.6066L14.0559 17.1718C11.0297 20.2409 10.9283 20.3955 10.9284 21.9429C10.9285 23.4111 11.026 23.558 13.9395 26.4774C16.0977 28.6401 16.4426 28.9444 17.0637 29.2344C17.7164 29.539 17.8201 29.5575 18.6541 29.5164C19.7543 29.4624 20.412 29.1658 21.2423 28.3493C21.5543 28.0425 21.8489 27.7914 21.897 27.7914C21.9452 27.7914 22.7749 28.4264 23.741 29.2023C25.8245 30.8758 26.354 31.1774 27.2082 31.1774C28.266 31.1774 29.0442 30.6744 29.5107 29.6896C30.003 28.65 29.732 27.4387 28.8221 26.6112C28.5737 26.3853 27.7604 25.7162 27.0148 25.1242C25.7413 24.113 25.6729 24.0409 25.8861 23.9306C26.0806 23.83 28.3452 22.9893 35.6462 20.3074C37.3636 19.6766 37.9649 19.3615 38.4268 18.8501C39.0906 18.1153 39.2412 17.6972 39.244 16.5811C39.246 15.8135 39.2771 15.5915 39.3773 15.6297C39.4491 15.657 40.7768 16.5856 42.3274 17.6932C45.1306 19.6953 45.1456 19.708 44.9158 19.8838C43.4656 20.9934 24.1241 34.71 24.0097 34.71C23.8953 34.71 4.55384 20.9935 3.10361 19.8838C2.87449 19.7086 2.93862 19.6598 10.79 14.0525C15.1445 10.9425 18.7283 8.4188 18.7538 8.44435C18.7794 8.46989 18.3018 9.86687 17.6927 11.5487ZM36.4975 9.01627C36.3529 9.12996 36.1814 9.38421 36.1164 9.58121C36.0171 9.88205 36.0282 10.0007 36.1859 10.3235C36.4365 10.8363 36.8098 10.9511 38.2495 10.9584C39.9041 10.9666 40.324 10.7497 40.324 9.88677C40.324 8.99072 39.956 8.80942 38.1369 8.80942C36.9122 8.80942 36.7314 8.83219 36.4975 9.01627ZM20.9821 25.6374C19.8568 26.7646 19.3257 27.2235 19.0043 27.3462C18.2091 27.6499 18.0724 27.5564 15.4165 24.8912L13.0309 22.4972V22.0081C13.0309 21.7391 13.082 21.4182 13.1445 21.2949C13.207 21.1716 13.957 20.3664 14.8111 19.5055L16.3641 17.9403L19.4423 21.0184L22.5204 24.0966L20.9821 25.6374ZM9.06971 26.7654C12.8255 29.4459 15.8882 31.6708 15.8755 31.7095C15.8477 31.7946 2.16067 44.5161 2.09685 44.5161C2.07222 44.5161 2.05211 39.4103 2.05211 33.1697C2.05211 26.3069 2.08946 21.8367 2.14651 21.8575C2.19843 21.8762 5.31384 24.0848 9.06971 26.7654ZM45.9673 33.1782C45.9673 39.4141 45.9477 44.5161 45.9237 44.5161C45.859 44.5161 32.1707 31.7966 32.1439 31.7118C32.1208 31.6379 45.7495 21.8565 45.8903 21.8461C45.9327 21.8429 45.9673 26.9424 45.9673 33.1782ZM25.7286 26.8283C27.3368 28.1165 27.7035 28.4499 27.7035 28.6237C27.7035 28.7463 27.3183 29.1253 27.1936 29.1253C27.0705 29.1253 23.4967 26.2788 23.4967 26.1806C23.4967 26.1108 24.0174 25.5341 24.0805 25.5341C24.0983 25.5341 24.8401 26.1165 25.7286 26.8283ZM20.7833 35.1382C23.2398 36.8928 23.6871 37.1752 24.0097 37.1752C24.3323 37.1752 24.7779 36.894 27.2213 35.1488C28.7819 34.0343 30.1256 33.0967 30.2075 33.0652C30.3049 33.0278 32.7566 35.2372 37.2897 39.4473C41.103 42.9889 44.223 45.9246 44.223 45.971C44.223 46.0172 35.1232 46.0552 24.0012 46.0552C9.64676 46.0552 3.78994 46.0233 3.816 45.9451C3.83621 45.8846 6.94516 42.9548 10.7247 39.4345C15.046 35.4098 17.6589 33.0465 17.7641 33.0676C17.856 33.0861 19.2146 34.0178 20.7833 35.1382Z" fill="white"/>
</svg>
