<svg width="48" height="52" viewBox="0 0 48 52" fill="none" xmlns="http://www.w3.org/2000/svg">
<path fill-rule="evenodd" clip-rule="evenodd" d="M20.8036 0.049797C12.9116 0.673106 5.97788 5.32078 2.3979 12.387C0.754474 15.6309 0 18.8378 0 22.5798C0 24.7841 0.172712 26.1915 0.695465 28.2473C2.78567 36.468 9.64117 42.9967 17.9215 44.6525C19.8822 45.0445 21.0475 45.1396 23.2031 45.0831C25.8571 45.0136 28.2068 44.5807 30.3374 43.7685C30.9039 43.5526 30.9861 43.4891 30.9622 43.2861C30.9376 43.0776 29.7311 38.4761 29.6833 38.4087C29.6727 38.3937 29.2622 38.5346 28.7713 38.7219C26.9108 39.4319 25.2399 39.7803 23.3125 39.8604C21.0837 39.953 19.1305 39.6765 17.0458 38.9732C11.5104 37.106 7.33429 32.6616 5.80256 27.0075C5.07037 24.3046 5.05411 21.0641 5.75871 18.2865C7.30358 12.1974 12.1775 7.32357 18.2665 5.7787C21.0441 5.0741 24.2847 5.09036 26.9875 5.82255C29.992 6.63644 32.5875 8.14077 34.7932 10.3465C36.7071 12.2604 38.0806 14.479 38.9532 17.0658C40.6823 22.1915 39.9299 27.7647 36.907 32.2232C36.5456 32.7562 36.2631 33.202 36.2793 33.2137C36.2954 33.2255 37.452 33.5386 38.8495 33.9095C40.247 34.2805 41.4438 34.6041 41.5089 34.6288C41.7555 34.7222 43.2034 31.8752 43.8286 30.068C44.6637 27.654 44.9777 25.9189 45.0568 23.2823C45.1229 21.0771 45.0328 19.9435 44.6325 17.9415C42.795 8.75183 35.0471 1.489 25.7211 0.213778C24.2516 0.0128661 22.1556 -0.0570817 20.8036 0.049797ZM21.0043 8.38805C15.8142 8.96549 11.3248 12.3496 9.35375 17.1701C8.03999 20.383 7.95328 24.097 9.11621 27.3467C10.5364 31.3154 13.789 34.5769 17.7222 35.9763C19.4078 36.576 20.6696 36.7869 22.5741 36.7869C23.9804 36.7869 25.2757 36.613 26.4737 36.2633C27.212 36.0478 28.6223 35.4994 28.7654 35.3723C28.8116 35.3312 28.5944 34.3393 28.2827 33.1682C27.971 31.9969 27.7369 31.0177 27.7625 30.992C27.7882 30.9665 28.9176 31.2422 30.2724 31.6048C31.6272 31.9675 32.7986 32.2642 32.8756 32.2642C33.2078 32.2642 34.7156 30.1433 35.3903 28.7271C36.4633 26.4751 36.9088 24.1023 36.7422 21.5261C36.3743 15.8336 32.5107 10.8757 27.0096 9.03664C26.4389 8.84587 25.5881 8.62318 25.1189 8.54169C23.9757 8.34339 22.0517 8.27143 21.0043 8.38805ZM23.9373 13.0614L23.9648 14.7325L24.8673 14.9721C25.7805 15.2143 27.8285 16.1209 27.8285 16.2828C27.8285 16.3495 26.4728 18.978 26.381 19.0894C26.371 19.1015 25.9135 18.8858 25.3645 18.6102C24.0458 17.948 22.9946 17.6799 22.0477 17.764C21.1523 17.8436 20.7544 18.0705 20.5986 18.5907C20.5041 18.9061 20.5117 19.0455 20.6402 19.3531C20.7708 19.6657 20.9043 19.7776 21.4277 20.0131C21.7745 20.1692 22.6451 20.4643 23.3627 20.6691C26.4056 21.5371 27.4779 22.233 28.0247 23.6946C28.7835 25.7229 28.0766 27.9418 26.3369 28.9922C25.7537 29.3443 24.5786 29.7553 24.155 29.7553H23.9146V31.6118V33.4684H22.4093H20.904V31.6295V29.7906L19.8753 29.5358C18.7643 29.2605 17.6517 28.8287 16.8148 28.348L16.2882 28.0455L17.0412 26.542C17.4554 25.7151 17.8209 25.0385 17.8534 25.0385C17.8859 25.0385 18.043 25.1315 18.2026 25.2452C19.2528 25.9929 21.3613 26.67 22.6602 26.6766C24.01 26.6834 24.5168 26.3908 24.5168 25.6052C24.5168 25.289 24.4505 25.1503 24.1762 24.8915C23.8227 24.5582 23.2968 24.3482 21.1549 23.6852C19.5934 23.2018 18.5862 22.7054 17.9915 22.1261C17.3812 21.5317 17.1226 21.0188 16.9846 20.1295C16.7094 18.356 17.4486 16.6361 18.9216 15.6227C19.388 15.3017 20.5015 14.8023 20.7504 14.8023C20.8822 14.8023 20.904 14.5607 20.904 13.0962V11.3902H22.4069H23.9098L23.9373 13.0614ZM32.0773 35.4405C32.1069 35.5426 32.9315 38.6292 33.91 42.2997C34.8883 45.9702 35.7057 48.9937 35.7263 49.0187C35.7469 49.0436 36.4061 48.4228 37.1912 47.639L38.6188 46.2141L41.1259 48.7228C42.5048 50.1025 43.6789 51.2314 43.735 51.2314C43.8672 51.2314 48 47.0968 48 46.9646C48 46.9095 46.8711 45.7362 45.4914 44.3573L42.9827 41.8501L44.4077 40.4226C45.1914 39.6375 45.8122 38.9782 45.7874 38.9577C45.7624 38.9371 42.7389 38.1197 39.0683 37.1413C35.3978 36.1629 32.3112 35.3382 32.2091 35.3086C32.0655 35.2671 32.0357 35.2969 32.0773 35.4405Z" fill="white"/>
</svg>
