<svg width="48" height="51" viewBox="0 0 48 51" fill="none" xmlns="http://www.w3.org/2000/svg">
<path fill-rule="evenodd" clip-rule="evenodd" d="M29.9001 0.0611317C29.1547 0.147746 28.7422 0.471079 28.5724 1.1018C28.3847 1.7986 28.5714 2.15612 29.7586 3.3735L30.8164 4.45823L26.6356 8.63993L22.4549 12.8215L19.9127 10.2937C18.5145 8.90326 17.2595 7.69236 17.124 7.60265C16.842 7.41607 16.1157 7.38706 15.7941 7.54963C15.6744 7.61013 12.7395 10.4917 9.27217 13.9532L2.96797 20.2467V19.1433C2.96797 13.4744 6.83491 8.3464 12.4614 6.55401C15.7026 5.52142 19.3365 5.78904 22.354 7.28251L23.2511 7.72654L24.322 6.66335L25.393 5.60006L25.0197 5.36802C24.3311 4.93994 22.4613 4.07569 21.6563 3.81345C17.3946 2.42503 12.9282 2.80578 8.84887 4.90535C4.56111 7.11227 1.39047 11.2032 0.391268 15.8177C-0.822229 21.4219 0.820252 27.0323 4.85564 31.0677C11.0198 37.2318 20.7519 37.5557 27.3147 31.8154C30.4837 29.0436 32.6009 24.8524 32.8313 20.8952L32.8923 19.8487L31.1615 21.5687C29.5239 23.196 29.4204 23.3216 29.2402 23.8996C28.766 25.4206 27.5947 27.3313 26.3029 28.6909C24.4027 30.6911 22.3615 31.8973 19.7317 32.5744C18.1819 32.9734 15.9093 33.0732 14.3205 32.812C11.9033 32.4147 9.31204 31.2102 7.70215 29.7356L7.20399 29.2794L11.8633 24.6142L16.5227 19.9491L19.14 22.5651C21.8912 25.3148 22.0346 25.423 22.7791 25.3117C23.1143 25.2617 23.8619 24.5473 30.2779 18.1462L37.4044 11.0362L38.5086 12.1199C39.8181 13.4051 40.1713 13.5699 40.9367 13.2527C41.2076 13.1404 41.4765 12.9326 41.6131 12.73C41.8375 12.3968 41.8399 12.3586 41.8629 8.69565C41.9106 1.06821 41.9124 1.14914 41.6902 0.772086C41.5806 0.5859 41.3643 0.339214 41.2096 0.223895C40.9326 0.0172764 40.8487 0.0138876 35.7277 0.00112966C32.8673 -0.00594699 30.2449 0.0209642 29.9001 0.0611317ZM32.9419 29.8921C32.8248 30.1974 31.3026 32.1359 30.6002 32.8742C29.7167 33.8029 28.4348 34.8954 27.4641 35.5469C27.0965 35.7935 26.7943 36.0185 26.7926 36.0468C26.7908 36.075 30.0973 39.4017 34.1401 43.4395C40.5926 49.8837 41.541 50.794 41.901 50.8886C42.728 51.1058 42.7865 51.0654 45.4015 48.4708C47.9701 45.9222 48.0919 45.757 47.9684 44.9886C47.9043 44.5903 47.4929 44.1588 40.5111 37.1665C36.4469 33.0962 33.0921 29.7659 33.056 29.7659C33.0198 29.7659 32.9685 29.8227 32.9419 29.8921Z" fill="white"/>
</svg>
