<svg width="48" height="48" viewBox="0 0 48 48" fill="none" xmlns="http://www.w3.org/2000/svg">
<path fill-rule="evenodd" clip-rule="evenodd" d="M7.44012 0.137231C5.63563 0.536327 4.12431 1.37343 2.78237 2.71716C1.15873 4.34297 0.323126 6.07442 0.0568431 8.36485C-0.381354 12.1345 1.75013 16.0135 5.20091 17.726C5.68291 17.9651 6.07721 18.1732 6.07721 18.1882C6.07721 18.2032 5.96997 18.6185 5.83885 19.1111C5.41522 20.7028 5.30807 21.504 5.25891 23.4489C5.20495 25.5857 5.33053 26.7949 5.79909 28.6483C5.95183 29.2523 6.07684 29.7519 6.07693 29.7587C6.07712 29.7654 5.68291 29.9666 5.20091 30.2057C1.75013 31.9183 -0.381354 35.7973 0.0568431 39.5669C0.240976 41.1504 0.785198 42.7244 1.22161 42.9358C1.56374 43.1014 1.95062 42.9694 2.11558 42.6308C2.23035 42.3953 2.21512 42.2999 1.95918 41.6508C1.17931 39.6727 1.1811 37.4227 1.96397 35.5366C2.77823 33.5751 4.59503 31.8088 6.55564 31.0728C9.40307 30.004 12.591 30.6293 14.8341 32.6967C15.6374 33.4371 16.215 34.2348 16.6897 35.2597C17.1595 36.2738 17.3498 37.0437 17.4182 38.2059C17.5561 40.5528 16.6613 42.7458 14.8831 44.4194C13.6831 45.5487 12.4929 46.1733 10.9421 46.4875C9.92709 46.6932 8.20062 46.6244 7.2088 46.3386C6.29688 46.076 5.05222 45.4278 4.3201 44.8344C3.63395 44.2782 3.28881 44.2203 2.98229 44.6101C2.87514 44.7463 2.78744 44.9351 2.78744 45.0298C2.78744 45.3067 3.31475 45.8299 4.16135 46.3933C6.51353 47.9584 9.32769 48.3902 12.0445 47.6029C14.4778 46.8978 16.6617 45.0684 17.7941 42.7868C18.1701 42.0291 18.261 41.9091 18.4292 41.9487C18.5371 41.9741 19.0475 42.1033 19.5635 42.2359C22.4006 42.9652 25.7776 42.9344 28.8409 42.1513C29.3415 42.0233 29.7704 41.9186 29.7939 41.9186C29.8174 41.9186 29.9861 42.2333 30.1688 42.618C31.4516 45.3191 33.9267 47.2276 36.954 47.8501C37.2642 47.9139 38.0256 47.966 38.6459 47.966C39.2663 47.966 40.0276 47.9139 40.3378 47.8501C43.9134 47.1149 46.6509 44.6371 47.6761 41.2078C47.9848 40.1746 48.0983 38.0821 47.9045 36.992C47.3678 33.974 45.3164 31.3032 42.583 30.0638C42.2528 29.9141 41.9827 29.776 41.9827 29.7569C41.9827 29.7377 42.1083 29.22 42.2618 28.6064C43.0176 25.5855 43.0176 22.3463 42.2618 19.3253C42.1083 18.7117 41.9827 18.1986 41.9827 18.1853C41.9827 18.1718 42.377 17.9651 42.859 17.726C44.6374 16.8433 46.1574 15.3103 47.0591 13.4897C47.8173 11.9588 47.9445 11.3563 47.9427 9.3029C47.9413 7.68189 47.924 7.508 47.6871 6.73801C46.6376 3.32614 43.9741 0.863894 40.5432 0.133848C39.707 -0.044082 37.5905 -0.0447399 36.7473 0.132626C33.8508 0.741891 31.5423 2.54666 30.1874 5.26119C29.9938 5.64891 29.8273 5.97582 29.8172 5.98766C29.8072 5.9995 29.3074 5.88502 28.7066 5.73331C26.8579 5.26636 25.6475 5.14087 23.513 5.19483C21.5681 5.24399 20.7669 5.35114 19.1752 5.77477C18.6826 5.90589 18.2673 6.01313 18.2523 6.01313C18.2372 6.01313 18.0292 5.61883 17.7901 5.13683C16.6064 2.75166 14.2782 0.881753 11.6813 0.230473C10.8932 0.0328046 10.545 -0.00131498 9.37845 0.00498258C8.6124 0.00921228 7.75443 0.0676762 7.44012 0.137231ZM11.0393 1.46235C12.6114 1.78541 14.0218 2.5866 15.2123 3.83267C17.9163 6.66291 18.191 10.8197 15.8884 14.0664C15.6594 14.3894 15.4766 14.7544 15.4766 14.8888C15.4766 15.2332 15.7871 15.5065 16.1785 15.5065C16.4622 15.5065 16.5522 15.4425 16.8732 15.013C18.1636 13.2862 18.7667 11.4621 18.761 9.3029C18.7595 8.70839 18.7214 8.03164 18.6764 7.79901C18.6314 7.56637 18.6079 7.3626 18.6241 7.34624C18.6404 7.32979 19.0135 7.21738 19.4534 7.09641C22.4498 6.27199 25.937 6.30273 28.9279 7.18006L29.4552 7.33477L29.3785 7.73133C29.2546 8.37162 29.2826 10.357 29.426 11.104C30.0572 14.3904 32.4218 17.1205 35.5665 18.1938C36.0712 18.3661 36.8013 18.5563 37.189 18.6163C37.889 18.7248 40.185 18.6898 40.4886 18.5661C40.6085 18.5173 40.6712 18.6183 40.7955 19.061C41.7085 22.3153 41.7237 25.4039 40.8429 28.6848L40.6484 29.4091L40.3521 29.3428C40.1892 29.3063 39.3791 29.2785 38.5519 29.2809C37.4076 29.2844 36.902 29.3257 36.4371 29.4538C33.5916 30.2377 31.4643 31.9497 30.2335 34.4461C29.4787 35.977 29.3406 36.6504 29.3406 38.7976V40.6112L28.8393 40.7568C25.8216 41.634 22.5211 41.6408 19.3012 40.7762C18.6975 40.6141 18.5789 40.552 18.6326 40.4265C18.6684 40.3424 18.7173 39.6816 18.741 38.9578C18.7762 37.8869 18.7495 37.4736 18.5973 36.7378C17.8355 33.0534 14.96 30.1631 11.3058 29.409C10.3941 29.2208 8.7596 29.1775 7.91008 29.319C7.6516 29.3619 7.42818 29.3863 7.41361 29.373C7.33597 29.3022 6.98942 27.922 6.82286 27.0207C6.35948 24.5128 6.51776 21.5714 7.25194 19.0458C7.38024 18.6045 7.44002 18.513 7.56626 18.5651C7.65198 18.6004 8.31426 18.6501 9.038 18.6753C10.5648 18.7286 11.6285 18.5561 12.8916 18.0503C14.2357 17.5122 14.5482 17.1864 14.2427 16.6421C13.9918 16.1952 13.6945 16.1828 12.8407 16.5835C10.3521 17.7513 7.52452 17.6045 5.18973 16.1862C4.41475 15.7154 3.24867 14.5797 2.7037 13.765C1.72419 12.3004 1.3219 10.819 1.40433 8.98013C1.46515 7.62324 1.6849 6.77993 2.27471 5.64083C3.43403 3.40143 5.64014 1.7996 8.14507 1.3786C8.74249 1.27812 10.3726 1.32531 11.0393 1.46235ZM40.7138 1.54647C42.1699 1.94585 43.9253 3.0718 44.8038 4.16992C46.0159 5.68528 46.5613 7.10205 46.6551 8.97881C46.7732 11.3463 45.9138 13.4757 44.1659 15.1456C42.1727 17.0498 39.3488 17.8074 36.7191 17.1433C34.2425 16.5177 32.0152 14.5477 31.1357 12.205C30.2776 9.91894 30.4979 7.28261 31.7149 5.27651C32.9949 3.16654 34.9078 1.84772 37.377 1.37287C37.8814 1.27587 40.1592 1.39439 40.7138 1.54647ZM38.9218 4.12293C38.3719 4.37267 37.8925 4.82703 37.6419 5.33582C37.4537 5.71781 37.4176 5.96407 37.377 7.14105L37.33 8.50396L36.6742 8.53225C35.9086 8.56524 35.6851 8.7099 35.6851 9.17281C35.6851 9.67775 35.9717 9.86686 36.7368 9.86686H37.377V12.1227C37.377 14.2533 37.3874 14.389 37.565 14.5665C37.6694 14.671 37.8783 14.7545 38.035 14.7545C38.1917 14.7545 38.4005 14.671 38.5049 14.5665C38.6825 14.389 38.6929 14.2533 38.6929 12.1227V9.86686H39.3382C40.1053 9.86686 40.4788 9.65256 40.4788 9.21248C40.4788 8.71977 40.2337 8.55791 39.4449 8.52943L38.7399 8.50396L38.7131 7.42689C38.6838 6.24361 38.7469 5.9887 39.1697 5.58358C39.42 5.34381 39.5269 5.31457 40.3503 5.26034C41.3561 5.19417 41.5127 5.09886 41.5127 4.55285C41.5127 4.04745 41.2968 3.945 40.2364 3.94735C39.5337 3.94894 39.2097 3.99218 38.9218 4.12293ZM10.0787 5.2578C9.30466 5.56845 8.64765 6.33177 8.47809 7.11746C8.41925 7.38995 8.38513 7.41683 8.16114 7.36636C7.4763 7.21221 6.69296 6.74515 6.12684 6.15328C5.52378 5.52296 5.26445 5.41825 4.85239 5.63866C4.59954 5.77401 4.28974 6.84309 4.22639 7.79901C4.13775 9.137 4.54381 10.2927 5.42293 11.2049C5.67943 11.4709 5.88923 11.6981 5.88923 11.7099C5.88923 11.7697 4.88528 11.9347 4.52172 11.9347C3.88914 11.9347 3.57163 12.3594 3.78622 12.9185C3.86188 13.1158 4.71957 13.5476 5.56025 13.8117C6.46146 14.0949 7.87408 14.1624 8.80302 13.9667C11.001 13.5037 12.7786 11.8139 13.3633 9.63188C13.4465 9.3217 13.5396 8.72954 13.5705 8.31597C13.6181 7.6755 13.6723 7.49437 13.9362 7.09406C14.5467 6.16775 14.5879 5.31937 14.032 5.12386C13.8067 5.04463 13.683 5.07602 13.2284 5.32783L12.6912 5.62541L12.1876 5.37623C11.5208 5.04632 10.7181 5.0012 10.0787 5.2578ZM11.8784 6.79901C12.264 7.08588 12.275 7.1091 12.2779 7.63847C12.2901 9.93313 10.9828 11.8906 9.03641 12.4922C8.38484 12.6936 7.20391 12.8414 7.20767 12.7211C7.20908 12.6763 7.37977 12.535 7.58712 12.407C8.26153 11.9909 8.2149 11.4106 7.47706 11.0367C6.88123 10.7348 6.22929 10.1405 5.92579 9.62248C5.67455 9.19378 5.46832 8.17883 5.55903 7.81743C5.61232 7.6051 5.62604 7.60124 5.82277 7.74327C6.24932 8.05147 7.26839 8.52877 7.7345 8.63865C7.99975 8.70116 8.47094 8.7599 8.7815 8.76911C9.5012 8.79054 9.74267 8.60829 9.74352 8.04292C9.74436 7.41843 9.91111 6.97751 10.2404 6.72946C10.7924 6.31354 11.2521 6.33299 11.8784 6.79901ZM28.8567 16.7287C28.6025 16.8301 28.5189 16.9656 28.453 17.3831C28.4039 17.6942 28.3408 17.7465 27.4607 18.206C25.575 19.1903 22.9332 20.0968 22.4669 19.9195C22.3376 19.8704 21.4443 19.8302 20.4818 19.8302C18.4493 19.8302 18.1154 19.9208 17.7497 20.5714C17.5553 20.9174 17.5444 21.0504 17.5444 23.0872C17.5444 25.0007 17.5636 25.2735 17.7184 25.5622C17.9923 26.0728 18.3091 26.2546 19.0023 26.2988C19.5486 26.3336 19.6126 26.3585 19.6161 26.5381C19.6183 26.6484 19.6764 27.7723 19.7453 29.0358C19.8658 31.245 19.8788 31.3396 20.0866 31.5078C20.3797 31.7451 20.8151 31.6901 21.0399 31.3877C21.2109 31.1576 21.2127 31.0642 21.0889 28.8029C21.0183 27.5124 20.9769 26.425 20.9969 26.3862C21.0169 26.3474 21.3296 26.3157 21.6919 26.3157C22.054 26.3157 22.4216 26.2784 22.5088 26.2329C22.6141 26.1777 23.0051 26.2442 23.6775 26.4316C24.6303 26.6972 24.7013 26.7046 24.9214 26.5603C25.2245 26.3618 25.3207 25.9769 25.1455 25.6642C25.0361 25.4691 24.8214 25.3661 24.0266 25.1273L23.043 24.8319L23.0175 23.0872L22.9919 21.3424L23.3934 21.2374C24.4004 20.9742 26.1185 20.3495 27.2306 19.842L28.4476 19.2866V23.0832C28.4476 25.1712 28.4251 26.8797 28.3975 26.8797C28.3699 26.8797 28.1339 26.7715 27.8731 26.6393C27.2864 26.342 26.8908 26.3632 26.6365 26.7054C26.3054 27.1508 26.491 27.415 27.5382 27.9896C28.3738 28.448 28.4476 28.5115 28.4476 28.7693C28.4476 29.0766 28.8068 29.5115 29.0605 29.5115C29.2451 29.5115 29.5974 29.3331 29.6916 29.1919C29.7296 29.135 29.7613 26.3775 29.7621 23.064C29.7635 17.443 29.7525 17.0298 29.5991 16.895C29.3713 16.6951 29.0956 16.6333 28.8567 16.7287ZM21.5861 23.1225V25.005L20.2467 24.9788L18.9073 24.9528L18.8893 23.0964L18.8712 21.2401H20.2287H21.5861V23.1225ZM40.6985 30.82C43.1147 31.4493 45.2819 33.3977 46.1562 35.7267C47.0142 38.0128 46.7939 40.6491 45.5769 42.6552C44.7055 44.0917 43.5932 45.1143 42.1397 45.815C40.9815 46.3735 40.3596 46.5277 39.0157 46.5899C37.1829 46.6747 35.7444 46.2862 34.2299 45.2975C30.9527 43.1581 29.711 38.9087 31.3079 35.2979C32.3818 32.8694 34.8507 31.0314 37.612 30.6043C38.2232 30.5099 39.9784 30.6324 40.6985 30.82ZM34.8398 33.7969C34.4128 33.9821 34.1118 34.2687 33.8901 34.7009C33.7237 35.0253 33.7113 35.2945 33.7113 38.572C33.7113 40.8271 33.7472 42.1896 33.811 42.359C33.9463 42.7178 34.444 43.2286 34.8127 43.3867C35.1957 43.5511 41.9956 43.5779 42.423 43.4168C42.7819 43.2814 43.2927 42.7837 43.4508 42.4151C43.5535 42.1757 43.5806 41.376 43.5806 38.5811C43.5806 35.2947 43.5682 35.0254 43.4017 34.7009C43.1756 34.2599 42.874 33.9779 42.4308 33.7927C41.9199 33.5791 35.3335 33.5828 34.8398 33.7969ZM7.44012 34.8639C7.33672 34.9063 7.16754 35.0349 7.06414 35.1498C6.88574 35.3479 6.87475 35.5115 6.8489 38.3579C6.8254 40.9419 6.84232 41.401 6.9709 41.672C7.13182 42.011 7.44265 42.2006 7.83743 42.2006C8.13952 42.2006 13.2763 39.2522 13.4102 39.002C13.5616 38.7191 13.5159 38.2012 13.3174 37.9487C13.2155 37.8192 12.7608 37.5008 12.307 37.2412C11.8532 36.9816 10.703 36.3205 9.75113 35.7721C8.06066 34.7983 7.82596 34.706 7.44012 34.8639ZM42.0767 35.1511C42.2573 35.3317 42.2647 35.4644 42.2647 38.5609C42.2647 41.3248 42.2439 41.8125 42.1183 41.9916L41.9721 42.2006H38.6459H35.3198L35.1735 41.9916C35.0479 41.8125 35.0272 41.3248 35.0272 38.5609C35.0272 35.4644 35.0345 35.3317 35.2152 35.1511C35.3959 34.9703 35.5284 34.9631 38.6459 34.9631C41.7634 34.9631 41.8959 34.9703 42.0767 35.1511ZM10.193 37.5929C11.0351 38.076 11.6907 38.5034 11.6499 38.5428C11.5712 38.6188 8.96676 40.1372 8.50948 40.3737L8.23906 40.5135V38.4795V36.4454L8.45055 36.58C8.56682 36.654 9.351 37.1099 10.193 37.5929ZM38.176 36.5514C37.2934 36.7772 36.7155 37.4193 36.5687 38.3375C36.382 39.5049 37.431 40.6957 38.6459 40.6957C39.8602 40.6957 40.9098 39.5048 40.7234 38.3387C40.6065 37.6081 40.2018 37.0334 39.5846 36.7221C39.2252 36.5408 38.5414 36.4579 38.176 36.5514ZM39.1334 38.0812C39.5192 38.4438 39.3935 39.0745 38.8942 39.2813C38.19 39.573 37.614 38.66 38.1453 38.0944C38.4073 37.8156 38.8443 37.8098 39.1334 38.0812Z" fill="white"/>
</svg>
