<svg width="48" height="47" viewBox="0 0 48 47" fill="none" xmlns="http://www.w3.org/2000/svg">
<path fill-rule="evenodd" clip-rule="evenodd" d="M0.27455 0.274025C-0.0751299 0.623705 -0.0919108 1.04107 0.230676 1.36356C0.460171 1.59315 0.465515 1.59372 2.40891 1.59372H4.35699L3.18796 2.76556L2.01892 3.93741H1.28375C0.596199 3.93741 0.530857 3.95513 0.27455 4.21144C-0.0751299 4.56112 -0.0919108 4.97849 0.230676 5.30098C0.45389 5.52429 0.501607 5.53113 1.82439 5.53113H3.18796V6.98572V8.44022L2.23716 9.48786C1.66905 10.1138 1.19628 10.7322 1.0626 11.024C0.601355 12.0314 0.700259 13.2855 1.31675 14.2497C1.57755 14.6576 4.52152 17.5512 5.12601 17.9939C5.31257 18.1305 5.50719 18.1957 5.64809 18.1688C5.85227 18.1297 6.26261 18.6858 10.1786 24.3087C12.5469 27.7093 14.5192 30.5511 14.5616 30.624C14.6109 30.7088 13.8448 33.1373 12.4288 37.3856C11.2134 41.0316 10.2191 44.0917 10.2191 44.1859C10.2191 44.4346 10.7274 44.9053 10.996 44.9053C11.5793 44.9053 11.5751 44.9151 13.7354 38.4343L15.7668 32.3402L16.983 34.0994C17.652 35.067 18.2857 35.9325 18.3913 36.0227C18.8513 36.4156 19.6876 36.0527 19.6876 35.4604C19.6876 35.2677 19.2324 34.5412 18.0395 32.8303L16.3914 30.4662L18.8441 23.1079L21.297 15.7497L23.6094 15.7519L25.9218 15.7542L27.6758 20.6341L29.4297 25.5142L27.6992 27.983C25.8196 30.6646 25.7489 30.8193 26.1989 31.2692C26.3547 31.4251 26.5338 31.4993 26.754 31.4993C27.1626 31.4993 27.3101 31.3309 28.8749 29.0767C29.5194 28.1483 30.0725 27.4171 30.104 27.4518C30.1355 27.4866 31.5373 31.3329 33.2191 35.9992C36.4482 44.9592 36.4254 44.9053 36.9966 44.9053C37.2838 44.9053 37.781 44.4349 37.781 44.1633C37.781 44.0566 36.3017 39.8725 34.4937 34.8653L31.2064 25.7615L31.4333 25.4195C31.7953 24.8739 38.1414 15.8377 38.1777 15.8161C38.2743 15.7587 43.1246 17.4878 43.1246 17.5797C43.1246 17.6397 41.9223 22.5269 40.4528 28.4402C38.9833 34.3535 37.781 39.2902 37.781 39.4109C37.781 39.5315 37.8684 39.7413 37.9753 39.8771C38.1262 40.0691 38.2517 40.1241 38.5378 40.1241C38.9563 40.1241 39.2382 39.9033 39.3423 39.4937C39.3788 39.3506 40.5934 34.4664 42.0415 28.64C44.6698 18.065 44.6748 18.0464 44.9192 18.0179C45.0538 18.0022 45.2542 17.8934 45.3643 17.7761C45.592 17.5337 47.0944 13.2372 47.1965 12.5363C47.3823 11.2604 46.5614 9.74182 45.3554 9.13068L44.9058 8.90287V7.217V5.53113H46.2225C47.4956 5.53113 47.5469 5.52354 47.7693 5.30098C48.0919 4.97849 48.0751 4.56112 47.7255 4.21144L47.4514 3.93741H45.5472H43.643L44.812 2.76556L45.9811 1.59372H46.7601C47.4624 1.59372 47.562 1.57103 47.7693 1.36356C48.0919 1.04107 48.0751 0.623705 47.7255 0.274025L47.4514 0H24H0.548575L0.27455 0.274025ZM11.2263 2.60094L10.2191 3.60817L9.21182 2.60094L8.2046 1.59372H10.2191H12.2335L11.2263 2.60094ZM19.1011 2.60094L18.0939 3.60817L17.0867 2.60094L16.0794 1.59372H18.0939H20.1083L19.1011 2.60094ZM26.9759 2.60094L25.9687 3.60817L24.9615 2.60094L23.9543 1.59372H25.9687H27.9832L26.9759 2.60094ZM34.8508 2.60094L33.8435 3.60817L32.8363 2.60094L31.8291 1.59372H33.8435H35.858L34.8508 2.60094ZM42.7256 2.60094L41.7184 3.60817L40.7111 2.60094L39.7039 1.59372H41.7184H43.7328L42.7256 2.60094ZM7.31287 2.95306L8.29384 3.93741H6.28164H4.26943L5.25041 2.95306C5.78993 2.41167 6.25398 1.96871 6.28164 1.96871C6.30929 1.96871 6.77335 2.41167 7.31287 2.95306ZM15.1877 2.95306L16.1687 3.93741H14.1565H12.1443L13.1252 2.95306C13.6648 2.41167 14.1288 1.96871 14.1565 1.96871C14.1841 1.96871 14.6482 2.41167 15.1877 2.95306ZM23.0625 2.95306L24.0435 3.93741H22.0313H20.0191L21.0001 2.95306C21.5396 2.41167 22.0036 1.96871 22.0313 1.96871C22.059 1.96871 22.523 2.41167 23.0625 2.95306ZM30.9373 2.95306L31.9183 3.93741H29.9061H27.8939L28.8749 2.95306C29.4144 2.41167 29.8785 1.96871 29.9061 1.96871C29.9338 1.96871 30.3978 2.41167 30.9373 2.95306ZM38.8122 2.95306L39.7932 3.93741H37.781H35.7687L36.7497 2.95306C37.2892 2.41167 37.7533 1.96871 37.781 1.96871C37.8086 1.96871 38.2727 2.41167 38.8122 2.95306ZM22.7813 6.31561V7.10019L22.0965 7.14416C20.4616 7.24906 19.226 8.379 18.9392 10.0315C18.874 10.4074 18.8444 11.5253 18.8621 12.9532C18.8906 15.254 18.892 15.2674 19.118 15.5079C19.243 15.6409 19.4012 15.7497 19.4695 15.7497C19.6352 15.7497 19.6315 15.7765 19.3535 16.6113L19.1132 17.333L17.9707 16.6047C17.3424 16.2042 15.6199 15.108 14.1429 14.1687L11.4575 12.4609L11.6502 12.1091C11.7791 11.8736 11.8226 11.6769 11.7817 11.5138C11.744 11.3632 11.0017 10.5836 9.83497 9.46911C7.59598 7.33034 7.34427 7.17594 6.09414 7.17331C5.65587 7.17247 5.18132 7.20416 5.03948 7.24381L4.78167 7.3159V6.42352V5.53113H13.7815H22.7813V6.31561ZM43.3121 6.94738C43.3121 8.25779 43.2998 8.35894 43.148 8.30035C41.4389 7.64093 40.1161 7.82392 38.992 8.87549C38.7286 9.12177 38.4289 9.48842 38.326 9.69016C38.2231 9.892 37.7867 11.0888 37.3563 12.3499C36.7545 14.1128 36.5926 14.6923 36.6553 14.8574C36.7261 15.0436 36.3326 15.6498 33.6943 19.4187C32.0208 21.8091 30.6176 23.7767 30.576 23.7911C30.5345 23.8053 29.8516 22.0154 29.0584 19.8134C27.9523 16.7428 27.6469 15.7996 27.748 15.7659C27.8205 15.7418 27.9795 15.6223 28.1012 15.5007L28.3225 15.2793L28.2933 12.4442C28.2597 9.18852 28.2481 9.13499 27.3781 8.21504C26.7287 7.52843 26.0285 7.199 25.1015 7.14397L24.375 7.10075V6.31599V5.53113H33.8435H43.3121V6.94738ZM6.82106 8.92949C7.03087 9.04546 7.80504 9.71716 8.54162 10.4221L9.88072 11.7038L9.06914 12.5783C8.62281 13.0593 7.65055 14.0853 6.90862 14.8583L5.55959 16.2637L4.12562 14.9052C3.19639 14.0248 2.63119 13.4146 2.52 13.1716C2.30082 12.6928 2.30157 12.1477 2.52197 11.6716C2.73946 11.2019 4.68783 9.14802 5.14494 8.90643C5.62362 8.6535 6.33986 8.66334 6.82106 8.92949ZM25.8906 8.99137C26.0717 9.11558 26.3217 9.36551 26.4459 9.54664C26.666 9.86763 26.6726 9.9311 26.7001 12.0161L26.7285 14.1559H23.583H20.4376L20.4381 12.3044C20.4387 10.32 20.5044 9.88713 20.8812 9.38801C21.3354 8.78634 21.6544 8.71387 23.726 8.74115C25.4919 8.7645 25.5737 8.77397 25.8906 8.99137ZM43.1128 9.98303C43.9459 10.266 44.7341 10.5673 44.8643 10.6525C45.1788 10.8585 45.5377 11.4859 45.6139 11.9629C45.6654 12.2855 45.5801 12.6278 45.0882 14.0722C44.7653 15.0206 44.4672 15.8897 44.426 16.0035C44.352 16.2075 44.308 16.196 41.4175 15.214C39.8041 14.6659 38.4674 14.2045 38.447 14.1888C38.3794 14.1363 39.5798 10.7414 39.806 10.3448C40.0578 9.90353 40.8002 9.46854 41.3016 9.46854C41.4646 9.46854 42.2796 9.70001 43.1128 9.98303ZM14.6252 16.3536C16.7134 17.6819 18.4584 18.8029 18.5028 18.8447C18.5764 18.9138 15.4376 28.5448 15.2872 28.7116C15.2328 28.7719 7.15715 17.2809 7.09837 17.0598C7.0874 17.0186 7.79567 16.2261 8.67221 15.2986L10.2659 13.6122L10.5472 13.7753C10.7019 13.8649 12.537 15.0252 14.6252 16.3536ZM26.3535 33.9936C26.2198 34.0891 25.8514 34.7347 25.4428 35.5895C24.8996 36.7261 24.712 37.035 24.5424 37.0727C24.4246 37.0988 23.7381 37.2074 23.017 37.3141C21.4972 37.539 21.2813 37.6584 21.2813 38.2739C21.2813 38.6169 21.3557 38.7171 22.416 39.7984L23.5508 40.9557L23.3066 42.4071C23.0344 44.0255 23.0171 44.3228 23.1827 44.5384C23.3283 44.728 23.6595 44.9053 23.8683 44.9053C23.9573 44.9053 24.636 44.5678 25.3764 44.1553C26.1169 43.7428 26.7363 43.4053 26.7529 43.4053C26.7694 43.4053 27.3908 43.7425 28.1336 44.1545C28.8765 44.5667 29.5824 44.9041 29.7024 44.9045C29.9605 44.9054 30.4679 44.4306 30.4704 44.1859C30.4713 44.0917 30.3599 43.3318 30.2225 42.4973L29.9729 40.9799L31.0683 39.8254C32.1774 38.6566 32.3169 38.4357 32.2117 38.016C32.1157 37.6338 31.8004 37.5145 30.2416 37.2703C29.4253 37.1426 28.7483 37.0258 28.7373 37.0108C28.7262 36.9959 28.4332 36.3719 28.0861 35.6242C27.739 34.8766 27.3842 34.192 27.2975 34.1031C27.0572 33.8564 26.6171 33.8054 26.3535 33.9936ZM27.7723 38.3801C27.8889 38.4553 28.2585 38.5627 28.5937 38.6185C28.9288 38.6745 29.3449 38.7436 29.5183 38.7722L29.8335 38.8241L29.073 39.6033C28.6547 40.0319 28.3125 40.4614 28.3125 40.558C28.3126 40.6546 28.3759 41.0921 28.453 41.5303C28.5302 41.9686 28.5935 42.3834 28.5936 42.452C28.5937 42.5317 28.3088 42.4215 27.8058 42.1473C27.3725 41.9111 26.9044 41.7178 26.7656 41.7178C26.6267 41.7178 26.1586 41.9111 25.7253 42.1473C24.822 42.6398 24.8593 42.6793 25.0745 41.4563C25.2474 40.4739 25.2042 40.356 24.3588 39.5013L23.6963 38.8315L23.9653 38.7764C24.1133 38.746 24.5253 38.6765 24.8808 38.6218C25.2363 38.5672 25.6088 38.4788 25.7087 38.4253C25.8085 38.3719 26.0861 37.9229 26.3255 37.4277L26.761 36.527L27.1606 37.3853C27.3805 37.8572 27.6557 38.3049 27.7723 38.3801ZM17.5587 38.8351C17.4526 38.9512 17.1889 39.4298 16.9728 39.8989L16.5799 40.7519L15.6261 40.8775C14.8017 40.986 14.637 41.0379 14.4143 41.2595C13.9563 41.715 14.0625 42.0189 15.0216 42.9967L15.6783 43.6661L15.5267 44.5551C15.3096 45.8291 15.3216 45.9685 15.6735 46.2646C16.052 46.5831 16.2575 46.5466 17.2456 45.986C17.657 45.7526 18.0418 45.5615 18.1005 45.5615C18.1593 45.5615 18.5504 45.7544 18.9697 45.9901C19.9654 46.5501 20.1384 46.5808 20.5143 46.2646C20.8661 45.9686 20.8781 45.8288 20.6616 44.5588L20.5108 43.6735L21.271 42.8947C22.1223 42.0225 22.2132 41.7522 21.8121 41.2859C21.6212 41.064 21.4669 41.0119 20.6168 40.8824L19.6407 40.7335L19.2189 39.8723C18.9868 39.3986 18.7166 38.9241 18.6184 38.8177C18.3685 38.5468 17.8139 38.556 17.5587 38.8351ZM18.2786 41.6173C18.4425 42.0132 18.6828 42.1954 19.1178 42.2537C19.3281 42.2819 19.5001 42.3255 19.5001 42.3506C19.5001 42.3757 19.3735 42.5404 19.2189 42.7165C18.9202 43.0567 18.9003 43.1294 18.9337 43.7599L18.9551 44.1613L18.5398 43.9596L18.1247 43.7579L17.6746 43.957L17.2246 44.156L17.2833 43.7274C17.3472 43.2618 17.2269 42.9267 16.8847 42.6172C16.6074 42.3662 16.6351 42.3121 17.07 42.2537C17.505 42.1954 17.7452 42.0132 17.9092 41.6173C17.9717 41.4663 18.0548 41.3428 18.0939 41.3428C18.133 41.3428 18.216 41.4663 18.2786 41.6173Z" fill="white"/>
</svg>
