<svg width="48" height="49" viewBox="0 0 48 49" fill="none" xmlns="http://www.w3.org/2000/svg">
<path fill-rule="evenodd" clip-rule="evenodd" d="M2.32823 0.110729C1.37068 0.411034 0.676791 1.02113 0.244321 1.94318L0 2.46414V24.0219V45.5796L0.247515 46.1075C0.595726 46.85 1.09245 47.3594 1.81639 47.7156L2.43832 48.0219H24H45.5617L46.1836 47.7156C46.9076 47.3594 47.4043 46.85 47.7525 46.1075L48 45.5796V24.0199V2.46019L47.6938 1.83826C47.3375 1.11431 46.8282 0.617594 46.0856 0.269382L45.5577 0.0218675L24.1409 0.00420803C6.61489 -0.0101638 2.65212 0.0091865 2.32823 0.110729ZM7.46771 5.14124V7.48958H5.11937H2.77104V5.31305C2.77104 3.41953 2.79123 3.11416 2.9265 2.96471C3.06862 2.80765 3.26973 2.7929 5.27483 2.7929H7.46771V5.14124ZM37.7143 12.7029V22.6129H24H10.2857V12.7029V2.7929H24H37.7143V12.7029ZM45.0572 2.94836C45.2142 3.09049 45.229 3.2916 45.229 5.2967V7.48958H42.8806H40.5323V5.14124V2.7929H42.7088C44.6023 2.7929 44.9077 2.8131 45.0572 2.94836ZM7.46771 12.7029V15.0982H5.11937H2.77104V12.7029V10.3076H5.11937H7.46771V12.7029ZM45.229 12.7029V15.0982H42.8806H40.5323V12.7029V10.3076H42.8806H45.229V12.7029ZM7.46771 20.2645V22.6129H5.11937H2.77104V20.2645V17.9162H5.11937H7.46771V20.2645ZM45.229 20.2645V22.6129H42.8806H40.5323V20.2645V17.9162H42.8806H45.229V20.2645ZM7.46771 27.7792V30.1275H5.11937H2.77104V27.7792V25.4309H5.11937H7.46771V27.7792ZM37.7143 35.3408V45.2508H24H10.2857V35.3408V25.4309H24H37.7143V35.3408ZM45.229 27.7792V30.1275H42.8806H40.5323V27.7792V25.4309H42.8806H45.229V27.7792ZM7.46771 35.3408V37.7362H5.11937H2.77104V35.3408V32.9455H5.11937H7.46771V35.3408ZM45.229 35.3408V37.7362H42.8806H40.5323V35.3408V32.9455H42.8806H45.229V35.3408ZM7.46771 42.9025V45.2508H5.29118C3.39767 45.2508 3.09229 45.2306 2.94284 45.0954C2.78578 44.9532 2.77104 44.7521 2.77104 42.747V40.5542H5.11937H7.46771V42.9025ZM45.229 42.7307C45.229 44.6242 45.2088 44.9296 45.0735 45.079C44.9314 45.2361 44.7303 45.2508 42.7252 45.2508H40.5323V42.9025V40.5542H42.8806H45.229V42.7307Z" fill="white"/>
</svg>
