<svg width="48" height="49" viewBox="0 0 48 49" fill="none" xmlns="http://www.w3.org/2000/svg">
<path fill-rule="evenodd" clip-rule="evenodd" d="M22.0264 0.0497845C21.7939 0.0673538 21.1386 0.147026 20.5702 0.226887C10.9684 1.57521 3.02117 8.73954 0.671579 18.165C0.121294 20.3726 0 21.4327 0 24.0371C0 26.6415 0.121294 27.7017 0.671579 29.9092C2.82978 38.567 9.71704 45.371 18.4092 47.4325C20.5301 47.9355 21.4825 48.037 24.0464 48.033C26.7018 48.0289 27.9304 47.8801 30.1684 47.2916C38.6782 45.054 45.3501 38.2129 47.3961 29.6274C47.8698 27.6397 47.9981 26.4621 48 24.0841C48.0018 21.8313 47.9312 21.0822 47.5281 19.0733C46.8457 15.672 44.8608 11.4903 42.7264 8.9576C42.2495 8.39172 42.1242 8.29589 41.8288 8.27109C41.5807 8.25023 41.432 8.2958 41.2923 8.4355C40.9831 8.74471 41.0458 9.11939 41.5009 9.68208C47.2012 16.7287 48.2378 26.3497 44.1554 34.3192C43.0037 36.5674 41.8581 38.1269 39.9736 40.0113C37.1712 42.8138 34.0755 44.6746 30.4823 45.7165C28.9025 46.1745 28.8616 46.1692 29.7776 45.6247C33.4398 43.4479 36.2364 40.7867 38.2821 37.5319C38.9584 36.4559 39.849 34.6821 40.2578 33.5969L40.5676 32.7748H41.7821C43.1649 32.7748 43.4325 32.6937 43.9538 32.1167C44.4751 31.5397 44.494 31.3052 44.4625 25.8008L44.4343 20.8747L44.1525 20.4197C43.7536 19.7758 43.2518 19.5274 42.3496 19.5274C41.8771 19.5274 41.6454 19.4901 41.621 19.4099C41.6014 19.3454 41.473 18.764 41.3359 18.1181C40.7648 15.4292 39.467 12.3085 38.0147 10.132C35.968 7.06491 33.1833 4.46475 29.8084 2.46965C28.889 1.92613 28.9229 1.91429 30.2841 2.30335C33.3492 3.17937 36.2979 4.77686 38.8667 6.95311C39.486 7.47784 40.1595 7.27067 40.1595 6.5555C40.1595 6.2322 40.1014 6.15375 39.4682 5.62122C35.0852 1.93496 29.4872 -0.068221 23.7646 0.00177429C23.0411 0.0106059 22.259 0.0322152 22.0264 0.0497845ZM24.7916 2.09177C25.1569 2.37203 25.5805 2.73197 25.733 2.89178L26.0104 3.18229L25.78 3.33712C25.2819 3.67216 24.625 4.4485 24.3596 5.0156C23.8915 6.01592 23.8407 7.23112 24.2218 8.3112C24.4466 8.94858 24.2554 8.97752 23.8764 8.36354C23.4871 7.73292 22.8958 7.15868 22.545 7.07055C21.9126 6.91186 21.3538 7.27396 21.0014 8.07097C20.2227 9.83175 20.4182 11.4968 21.555 12.7861L21.9484 13.2324L21.669 13.5847C21.1872 14.1924 19.6645 15.6073 18.832 16.2208C18.3928 16.5444 17.9606 16.8698 17.8715 16.9438C17.4126 17.3254 17.6703 18.0463 18.2847 18.0993C18.5549 18.1226 18.74 18.0354 19.3558 17.5947C20.5713 16.7248 21.6376 15.7776 22.4383 14.8561C23.1154 14.0768 23.2151 13.9966 23.4308 14.0575C23.5627 14.0946 24.0934 14.1249 24.6102 14.1248C25.5055 14.1246 25.5837 14.1079 26.2746 13.7705C27.1513 13.3423 28.0558 12.5338 28.3851 11.884C29.0332 10.6051 28.0224 9.74212 26.0264 9.87027L25.3251 9.91527L25.4844 9.61096C25.5728 9.44193 25.9152 9.1224 26.2544 8.89231C27.0183 8.37397 27.6905 7.51119 27.9042 6.77478C27.9906 6.47676 28.0894 6.15526 28.1236 6.06027C28.1711 5.92836 28.3231 6.1281 28.7669 6.90585C30.169 9.36301 31.2793 12.6603 31.8835 16.1615C32.176 17.8559 32.231 18.5366 32.0705 18.4718C31.9979 18.4425 30.8816 17.9737 29.5897 17.4299C27.093 16.379 26.3825 16.1804 25.4814 16.2815C24.4892 16.3927 23.9662 16.626 21.1306 18.2214L18.3087 19.8092H17.0257C16.32 19.8092 15.7219 19.7756 15.6964 19.7344C15.6289 19.6251 15.8853 17.526 16.1561 15.9717C16.9127 11.6303 18.328 7.99994 20.4096 5.06126C21.3931 3.67282 23.5373 1.5925 23.993 1.58461C24.0669 1.58329 24.4263 1.81151 24.7916 2.09177ZM18.2213 2.4565C14.3213 4.74595 10.8709 8.1994 9.11217 11.5736C8.80503 12.1628 8.79047 12.2283 8.90472 12.5085C9.04236 12.8461 9.37787 13.0093 9.74466 12.9173C9.92505 12.872 10.1302 12.6134 10.5654 11.8827C12.5681 8.52091 15.5487 5.63701 19.1625 3.56496C20.1086 3.02247 20.2886 2.97145 19.9424 3.34389C19.2583 4.07973 18.2124 5.72608 17.4205 7.31342C15.7614 10.639 14.7801 14.3497 14.2712 19.222L14.2099 19.8092H11.0247H7.83948L7.84098 19.5978C7.84361 19.2089 8.21256 17.6122 8.5445 16.5531C8.72517 15.9765 8.87296 15.374 8.87296 15.2142C8.87296 14.6426 8.2011 14.3398 7.75915 14.7123C7.55047 14.8881 7.21882 15.8275 6.85513 17.2725C6.67286 17.997 6.33622 19.6187 6.33622 19.7726C6.33622 19.7928 6.03341 19.8092 5.66333 19.8092C4.80891 19.8092 4.3026 20.0759 3.91946 20.7278L3.65855 21.1716L3.63027 25.9486C3.5986 31.2935 3.61899 31.541 4.13912 32.1167C4.65643 32.6894 4.93227 32.7748 6.26378 32.7748H7.43134L7.74045 33.5969C8.15366 34.6959 9.02056 36.4242 9.70417 37.5117C11.7633 40.7881 14.5501 43.4426 18.2213 45.6247C19.0965 46.1449 19.0674 46.1601 17.8455 45.8199C11.5514 44.0677 6.07249 39.3592 3.39341 33.3999C-0.421569 24.9134 1.24704 15.093 7.6371 8.42442C10.6793 5.24954 14.5989 2.98 18.6911 2.02375C19.0896 1.93064 19.0412 1.97517 18.2213 2.4565ZM28.6892 3.47589C32.3521 5.48217 35.6406 8.70665 37.6574 12.2695C38.7287 14.1621 39.7343 16.9976 40.109 19.1824L40.1707 19.5419L37.323 19.5058C35.0616 19.4769 34.3988 19.44 34.1041 19.3261L33.7328 19.1827L33.566 17.8283C33.2197 15.0151 32.5051 12.0027 31.6435 9.72483C30.8259 7.56324 29.4853 5.10993 28.3589 3.71406C28.08 3.36841 27.8798 3.08551 27.9141 3.08551C27.9484 3.08551 28.2972 3.26121 28.6892 3.47589ZM26.7147 5.34679C26.7304 6.06271 26.4875 6.6875 25.9792 7.2391L25.5211 7.73621L25.4539 7.38069C25.3553 6.85915 25.4432 6.00211 25.6365 5.59943C25.7293 5.40598 25.9798 5.07338 26.193 4.8602C26.5745 4.47856 26.5815 4.47603 26.6429 4.69512C26.6773 4.81745 26.7096 5.11077 26.7147 5.34679ZM22.8824 9.47435C23.0271 9.77678 23.0836 10.071 23.0812 10.5078C23.0779 11.1006 22.8442 11.9171 22.6779 11.9171C22.535 11.9171 22.1293 11.1246 22.012 10.6162C21.9209 10.2217 21.922 10.0011 22.017 9.54096C22.0827 9.22255 22.1803 8.88019 22.234 8.78003C22.3279 8.60443 22.3374 8.60603 22.5058 8.82485C22.6017 8.94952 22.7712 9.24181 22.8824 9.47435ZM26.8891 11.3373C27.0706 11.4525 26.46 12.1083 25.8746 12.4269C25.3352 12.7205 24.1789 12.8832 24.0551 12.6829C23.9096 12.4472 24.9529 11.5429 25.5961 11.3472C25.9135 11.2507 26.7427 11.2443 26.8891 11.3373ZM26.3884 17.7489C26.8374 17.8319 31.1241 19.5669 32.8799 20.3762C33.7033 20.7558 34.312 20.8553 36.143 20.9093L37.9046 20.9613V26.1405V31.3197L37.6327 31.44C37.2869 31.5931 37.1099 31.9918 37.2382 32.329C37.3718 32.6804 37.6124 32.7748 38.3745 32.7748C39.1567 32.7748 39.143 32.6707 38.5413 34.0432C38.1013 35.0469 37.4106 36.2941 36.72 37.3315C34.8883 40.0837 32.0534 42.6648 28.8365 44.5093C27.8904 45.0518 27.7103 45.1028 28.0566 44.7304C29.0296 43.6837 30.7196 40.7559 31.4644 38.8262L31.7217 38.1598L33.1845 37.5108C33.9892 37.1539 34.8321 36.7308 35.0577 36.5707C35.6278 36.1662 35.9967 35.6272 36.1722 34.942C36.4733 33.7668 36.1758 33.0719 34.6612 31.4117C25.9125 21.8226 25.8954 21.8043 25.3379 21.5314C24.9399 21.3365 24.6253 21.2588 24.1404 21.2357C23.5275 21.2065 23.3024 21.2625 20.8357 22.0571C19.3798 22.526 18.0821 22.9097 17.9519 22.9097C17.537 22.9097 17.2271 22.1492 17.5402 21.8994C17.7329 21.7457 24.3784 18.0185 24.6457 17.9143C24.7812 17.8614 25.0823 17.7849 25.3148 17.7443C25.5474 17.7036 25.7616 17.6654 25.7908 17.6594C25.8201 17.6533 26.089 17.6936 26.3884 17.7489ZM42.8653 21.0494C43.028 21.212 43.028 31.0901 42.8653 31.2528C42.7858 31.3322 42.2452 31.3655 41.0332 31.3655H39.3139V26.1511V20.9367H41.0332C42.2452 20.9367 42.7858 20.9699 42.8653 21.0494ZM16.1568 21.4957C15.9698 21.8572 15.9733 22.7497 16.1632 23.1498C16.4952 23.8497 17.225 24.319 17.9809 24.319C18.3171 24.319 19.2093 24.0761 21.0869 23.4734C22.5359 23.0083 23.8618 22.6278 24.0335 22.6278C24.2052 22.6278 24.5181 22.7229 24.7287 22.8392C25.1475 23.0704 34.5678 33.3084 34.7193 33.697C34.862 34.0629 34.815 34.6818 34.6203 35.0011C34.4114 35.3438 34.0304 35.6238 33.8357 35.5777C33.7631 35.5605 31.9852 33.9935 29.885 32.0954C27.7845 30.1972 25.9569 28.617 25.8233 28.5834C25.2092 28.4293 24.7874 29.3029 25.2394 29.7928C25.3583 29.9218 26.9856 31.4062 28.8554 33.0912C30.7252 34.7764 32.2772 36.191 32.3044 36.2349C32.3779 36.3539 30.6121 37.1293 30.4649 37.0426C30.3969 37.0027 28.7492 35.6453 26.8032 34.0262C24.4646 32.0805 23.1687 31.0632 22.9808 31.0256C22.4426 30.9179 21.9899 31.6853 22.3348 32.1207C22.3977 32.2002 23.9429 33.5059 25.7686 35.0225L29.0879 37.7797L28.0493 38.2403L27.0107 38.7008L21.6456 34.1641C18.6948 31.6689 16.0879 29.5286 15.8528 29.4079C15.2218 29.0841 14.5813 29.0477 13.9185 29.2978C13.3622 29.5077 12.3149 30.2831 11.649 30.9779L11.2776 31.3655H8.30896C6.1253 31.3655 5.31053 31.3357 5.22757 31.2528C5.06503 31.0902 5.06503 21.4938 5.22757 21.3313C5.31269 21.2462 6.68338 21.2185 10.8202 21.2185H16.3001L16.1568 21.4957ZM15.384 30.7731C15.5288 30.8459 15.669 30.9623 15.6956 31.0315C15.7222 31.1007 15.2737 31.8367 14.6991 32.6669L13.6543 34.1763L12.9783 33.7483C11.7691 32.9827 11.765 32.8474 12.9184 31.7515C14.2034 30.5303 14.5936 30.3754 15.384 30.7731ZM17.5671 32.5098C17.901 32.7774 18.1744 33.0284 18.1744 33.0675C18.1744 33.1961 16.3798 35.7813 16.2905 35.7813C16.0886 35.7813 14.8812 34.9256 14.9426 34.8261C15.2043 34.4027 16.8782 32.0232 16.9143 32.0232C16.9393 32.0232 17.2331 32.2422 17.5671 32.5098ZM10.6581 33.0614C10.6581 33.3999 10.8711 33.8525 11.1918 34.1958C11.3186 34.3314 12.447 35.088 13.6994 35.8772L15.9767 37.3121L16.1891 37.9208C16.9792 40.1845 18.4389 42.8919 19.7088 44.4485C19.9512 44.7457 20.1155 44.9888 20.0741 44.9888C19.9495 44.9888 18.3833 44.0682 17.5189 43.487C13.9589 41.0932 11.1491 37.8291 9.53919 34.2171C8.83228 32.6311 8.80569 32.7748 9.8062 32.7748H10.6581V33.0614ZM20.1506 34.6153C20.6455 35.0247 20.875 35.2743 20.8285 35.3524C20.7897 35.4172 20.4016 35.963 19.966 36.5651L19.174 37.6598L18.9326 37.5013C18.7997 37.4141 18.4266 37.1769 18.1033 36.9741L17.5156 36.6053L17.9235 36.0289C18.1479 35.7119 18.551 35.1248 18.8194 34.7243C19.0879 34.3239 19.3289 33.9962 19.3549 33.9962C19.381 33.9962 19.7391 34.2748 20.1506 34.6153ZM22.4016 37.0355C22.4024 37.4785 22.2125 37.8948 21.7782 38.4021C21.5539 38.6642 21.3722 38.7878 21.2115 38.7878C20.9636 38.7878 20.4292 38.5178 20.4292 38.3925C20.4292 38.3524 20.7929 37.828 21.2375 37.2273L22.0457 36.135L22.2234 36.4044C22.3211 36.5526 22.4013 36.8366 22.4016 37.0355ZM24.6102 38.4701L25.3618 39.1783L24.8343 39.1321C24.5442 39.1067 24.0919 38.9934 23.8292 38.8805L23.3516 38.6749L23.5346 38.3335C23.6352 38.1457 23.7176 37.9385 23.7176 37.8732C23.7176 37.6635 23.8436 37.7478 24.6102 38.4701ZM19.4395 39.4983C20.3765 40.0853 20.5229 40.1472 21.0556 40.1812C21.5223 40.2108 21.7295 40.1757 22.0751 40.0084L22.509 39.7984L22.9489 40.0358C23.6295 40.4031 24.3349 40.5731 25.1675 40.5707C26.2062 40.5675 26.5246 40.4786 28.2429 39.7118C29.0648 39.345 29.7563 39.064 29.7797 39.0874C29.8031 39.1108 29.5541 39.6608 29.2264 40.3097C28.2317 42.2793 27.0311 43.942 25.6726 45.2314C24.9344 45.932 24.1866 46.492 23.989 46.492C23.786 46.492 22.5426 45.4822 21.8574 44.7609C21.0734 43.9355 20.3512 42.9885 19.6388 41.8517C19.1476 41.0679 18.3114 39.4519 18.0835 38.8459C17.9833 38.5795 17.9851 38.5774 18.1955 38.714C18.313 38.7903 18.8729 39.1432 19.4395 39.4983Z" fill="white"/>
</svg>
