<svg width="48" height="43" viewBox="0 0 48 43" fill="none" xmlns="http://www.w3.org/2000/svg">
<path fill-rule="evenodd" clip-rule="evenodd" d="M13.67 0.132693C11.628 0.884279 10.8203 3.28474 12.01 5.06636C12.6247 5.98682 13.5915 6.50095 14.7123 6.50321C15.4714 6.50471 15.957 6.36707 16.5288 5.98833C17.8648 5.10342 18.3771 3.26597 17.6833 1.8479C17.3451 1.15654 16.5859 0.452711 15.9026 0.197053C15.277 -0.0370256 14.2143 -0.0677046 13.67 0.132693ZM31.8343 2.47179C31.1524 2.68805 30.6963 2.97964 30.2135 3.50793C29.5743 4.20726 29.3271 4.86644 29.3231 5.88231C29.3202 6.58839 29.3504 6.71824 29.6645 7.35386C30.7298 9.50927 33.3989 10.0115 35.154 8.38663C37.1335 6.55396 36.4066 3.36401 33.8113 2.49506C33.2696 2.31371 32.3664 2.30311 31.8343 2.47179ZM10.3961 7.21267C9.80143 7.39355 9.05688 7.9741 9.21544 8.13322C9.25418 8.17216 9.87658 8.22507 10.5985 8.25087L11.9112 8.29778L9.01954 8.89897C7.42912 9.22969 5.96939 9.56153 5.77565 9.63639C5.58201 9.71135 5.324 9.89092 5.20241 10.0354C4.95548 10.3288 2.72765 15.8158 2.64265 16.3399C2.42724 17.6673 4.11373 18.535 5.09931 17.6037C5.35684 17.3603 5.60255 16.8355 6.41475 14.7948C6.96406 13.4144 7.42987 12.2851 7.44976 12.2851C7.46974 12.2851 8.58854 12.0529 9.93597 11.7691C11.2834 11.4853 12.4344 11.2551 12.4936 11.2575C12.5529 11.2599 11.6764 11.7349 10.5458 12.313L8.49021 13.364L7.98209 14.6306C7.51468 15.7955 7.44554 16.0702 7.11998 18.055L6.7661 20.2128L6.92315 23.0274C7.00946 24.5754 7.05581 25.8669 7.02616 25.8974C6.99652 25.9279 5.68474 26.1306 4.1112 26.3477C1.68006 26.6831 1.19155 26.7768 0.859146 26.9715C-0.165453 27.572 -0.299709 29.0333 0.597391 29.8209C1.21557 30.3637 1.27955 30.3632 5.4515 29.7837C7.52632 29.4955 9.40139 29.1952 9.6182 29.1163C10.0971 28.9419 10.5421 28.4578 10.6742 27.9673C10.7459 27.701 10.722 26.7166 10.5846 24.2836C10.4816 22.4574 10.3971 20.9378 10.397 20.9065C10.3968 20.8753 10.6059 20.891 10.8618 20.9416L11.3269 21.0336L12.1843 23.6055L13.0416 26.1775L13.6189 25.671C14.1312 25.2216 15.3926 24.3125 15.8895 24.0344C16.0641 23.9367 16.0521 23.8748 15.5738 22.4012L15.0767 20.8696L15.3931 19.2746C15.6378 18.0408 15.74 17.687 15.8441 17.712C16.4479 17.8565 16.5996 17.8254 18.0057 17.2682L19.4502 16.6959L20.1806 14.8423C20.5822 13.8229 20.9094 12.9616 20.9077 12.9284C20.9059 12.8952 20.139 13.1802 19.2035 13.5617C18.2681 13.9432 17.4483 14.2553 17.3817 14.2553C17.3125 14.2553 17.1346 13.8762 16.9651 13.3675L16.6694 12.4797L16.8744 11.4676C17.1836 9.94131 17.0863 9.26515 16.4541 8.54668C16.0933 8.13669 15.5501 7.95994 13.3684 7.54253C11.1703 7.12213 10.8212 7.08338 10.3961 7.21267ZM28.344 10.0431C28.127 10.0832 27.8526 10.1657 27.7341 10.2265C27.4818 10.356 26.815 10.9768 26.815 11.0821C26.815 11.122 27.5011 11.1662 28.3395 11.1804L29.8641 11.2062L26.6302 11.8885C24.8514 12.2638 23.2477 12.6438 23.0662 12.7329C22.8848 12.822 22.6422 13.0362 22.5272 13.209C22.4121 13.3817 21.7632 14.9207 21.0851 16.6289C19.9764 19.4218 19.8564 19.7798 19.895 20.1809C19.9467 20.7186 20.3182 21.2523 20.773 21.4424C21.4756 21.736 22.3362 21.5218 22.7194 20.9578C22.8342 20.7889 23.3903 19.4913 23.9552 18.0742L24.9822 15.4977L27.5639 14.9549C28.9838 14.6564 30.2511 14.3965 30.3801 14.3774C30.5091 14.3582 29.6162 14.8487 28.3958 15.4674C26.1832 16.5891 26.1766 16.5933 26.0267 16.9952C25.9441 17.2169 25.5448 18.3271 25.1395 19.4623L24.4026 21.5263L26.5235 21.585C27.7198 21.6181 29.3832 21.7323 30.3388 21.847C31.2731 21.959 32.4091 22.0379 32.8709 22.0228C33.6258 21.9981 33.7114 21.9768 33.7368 21.8077C33.8245 21.2232 33.8414 21.1988 34.0932 21.2945C34.2249 21.3446 34.4476 21.3856 34.5878 21.3856C34.7282 21.3856 36.4669 20.7316 38.4518 19.9325C41.6669 18.6379 42.0981 18.4395 42.4049 18.1146C42.9673 17.5191 42.9689 16.6353 42.4089 16.0046C42.1948 15.7635 41.5619 15.4795 41.2329 15.477C41.0873 15.4759 39.7616 15.9624 38.2867 16.5583C36.812 17.1541 35.5748 17.608 35.5375 17.5668C35.5002 17.5257 35.3368 17.0878 35.1743 16.5937L34.8789 15.6955L35.0806 14.6705C35.4196 12.9482 35.3253 12.2359 34.6676 11.5497C34.1664 11.0269 33.7435 10.8806 31.5162 10.4594C28.8832 9.96138 28.8263 9.95388 28.344 10.0431ZM45.915 13.081C45.3652 13.2769 45.1713 13.5327 44.6004 14.8154C43.0404 18.3203 40.6888 21.0169 37.9795 22.4076C36.1198 23.3622 34.5219 23.7016 32.3534 23.6023C31.6035 23.568 30.5255 23.4763 29.9579 23.3985C27.5725 23.0719 24.3425 23.1172 22.124 23.5085C19.0123 24.0573 16.1255 25.4247 14.3435 27.1936C13.5512 27.9802 13.305 28.4012 13.305 28.9695C13.305 29.4605 13.4137 29.7327 13.7725 30.1415C14.4433 30.9055 15.1416 30.8147 16.1631 29.8305C18.2437 27.8262 20.6761 26.8069 24.2571 26.4388C25.5736 26.3035 28.3221 26.3952 30.1925 26.6368C33.6518 27.0838 36.3556 26.7265 38.9646 25.4776C41.9531 24.047 44.3509 21.7538 46.315 18.4477C47.0754 17.1678 47.9082 15.3372 47.985 14.7767C48.0933 13.9872 47.6058 13.2583 46.8245 13.0413C46.3857 12.9194 46.3661 12.9203 45.915 13.081ZM24.5766 29.0027L24.6102 30.0526L21.6549 30.459C20.0295 30.6826 18.5239 30.9299 18.3091 31.0088C16.9552 31.5055 16.6485 33.2491 17.7455 34.2121C18.4007 34.7875 18.4088 34.7874 22.9999 34.1458C27.3293 33.5409 27.5495 33.4891 28.0521 32.9574C28.5374 32.4441 28.5626 32.2508 28.4608 29.8139C28.3908 28.1363 28.3793 28.0605 28.1877 28.0091C28.0777 27.9796 27.2127 27.9549 26.2654 27.9542L24.5431 27.9529L24.5766 29.0027ZM30.8986 30.0304L31.5029 31.8464L32.107 36.7463C32.7746 42.1608 32.7714 42.1472 33.5003 42.6523C34.5872 43.4056 36.2417 42.7142 36.4348 41.4262C36.4733 41.1699 36.2746 39.2508 35.8725 35.996L35.2507 30.9624L34.8091 29.6932L34.3674 28.4241L32.538 28.383C31.5317 28.3605 30.6152 28.3134 30.5013 28.2783C30.3076 28.2187 30.3334 28.3322 30.8986 30.0304ZM14.6386 32.0567L14.0488 32.09L14.0971 32.3905C14.1237 32.5556 14.2562 33.5983 14.3917 34.7074C14.5597 36.0814 14.6934 36.8326 14.8118 37.0645C15.5978 38.605 17.8682 38.2378 18.142 36.5259L18.2024 36.1478L17.7474 35.9787C16.7945 35.6243 15.9622 34.7413 15.6861 33.7917C15.5973 33.4863 15.5535 33.0419 15.5725 32.6405C15.6013 32.034 15.59 31.9881 15.4159 32.005C15.3127 32.0151 14.9629 32.0384 14.6386 32.0567Z" fill="white"/>
</svg>
