<svg width="48" height="42" viewBox="0 0 48 42" fill="none" xmlns="http://www.w3.org/2000/svg">
<path fill-rule="evenodd" clip-rule="evenodd" d="M17.7276 0.148158C16.3389 0.484435 14.8197 1.58133 14.1072 2.7623C13.9148 3.08119 13.5274 4.01914 13.2465 4.84654L12.7357 6.35099L8.6982 6.40357C5.10511 6.45026 4.60569 6.47635 4.16086 6.64029C2.04513 7.4201 0.573666 9.01752 0.156018 10.9878C-0.052006 11.9691 -0.052006 36.02 0.156018 37.0013C0.510689 38.6745 1.76993 40.2552 3.32716 40.9821C3.78569 41.1963 4.42776 41.4202 4.75404 41.4798C5.16669 41.5551 11.0373 41.5876 24.047 41.5864C39.7036 41.5849 42.8544 41.5618 43.408 41.4445C45.0812 41.0898 46.6619 39.8306 47.3889 38.2733C47.603 37.8148 47.8269 37.1727 47.8865 36.8465C48.0378 36.0184 48.0378 11.9707 47.8865 11.1426C47.5152 9.11069 45.8428 7.27346 43.7464 6.5943C43.4596 6.50134 42.2054 6.44866 39.309 6.40787L35.2715 6.35099L34.7607 4.84654C34.4798 4.01914 34.0924 3.08119 33.9 2.7623C33.18 1.56884 31.6766 0.483635 30.291 0.156955C29.4256 -0.046971 18.5651 -0.054568 17.7276 0.148158ZM30.2013 3.56041C31.0098 4.01375 31.2786 4.48438 32.0483 6.79353C32.4142 7.89153 32.7994 8.89896 32.9043 9.03231C33.3458 9.59361 33.4029 9.59981 38.1205 9.59981C42.9436 9.59981 43.1349 9.621 43.8516 10.2345C44.0696 10.421 44.36 10.7932 44.4969 11.0614L44.746 11.5491V23.9946V36.44L44.5121 36.8898C44.2001 37.4899 43.8856 37.8084 43.3183 38.0983L42.8467 38.3393L24.3035 38.3699C11.372 38.3912 5.60883 38.368 5.25996 38.2932C4.5825 38.148 3.84177 37.5741 3.51689 36.9425L3.26118 36.4454L3.23459 24.2032C3.20441 10.2613 3.14873 11.2393 4.02131 10.3894C4.82781 9.60381 4.8575 9.59981 9.88677 9.59981C14.6043 9.59981 14.6614 9.59361 15.103 9.03231C15.2078 8.89896 15.5906 7.89873 15.9537 6.80943C16.6706 4.65851 16.9807 4.05753 17.5571 3.70126C18.3668 3.20084 18.2934 3.20604 24.1536 3.22983L29.6516 3.25212L30.2013 3.56041ZM22.048 11.3551C20.2508 11.6572 18.3086 12.4868 16.8542 13.5734C12.1821 17.0641 10.6834 23.343 13.2809 28.5429C15.6142 33.2136 20.7602 35.8697 25.8701 35.0409C33.9681 33.7276 38.3932 24.9553 34.6315 17.6722C32.2716 13.1028 27.0988 10.506 22.048 11.3551ZM39.343 12.9393C38.3345 13.3785 38.0963 14.7192 38.8864 15.5095C39.5348 16.1578 40.4607 16.1578 41.1092 15.5095C42.3498 14.2687 40.954 12.2375 39.343 12.9393ZM26.1528 14.6821C29.6877 15.6204 32.1824 18.4382 32.7069 22.0849C33.0262 24.3042 32.303 26.8491 30.8256 28.7052C28.9873 31.0147 25.7662 32.3113 22.8936 31.8982C19.1979 31.3666 16.4007 28.8501 15.4417 25.1941C15.2071 24.2992 15.2051 22.1946 15.4381 21.2593C16.3419 17.6312 19.101 15.0773 22.7518 14.4898C23.5109 14.3677 25.3627 14.4723 26.1528 14.6821Z" fill="white"/>
</svg>
