<svg width="48" height="54" viewBox="0 0 48 54" fill="none" xmlns="http://www.w3.org/2000/svg">
<path fill-rule="evenodd" clip-rule="evenodd" d="M8.62745 0.215399C7.62876 0.66821 7.25208 1.29786 7.18463 2.62743L7.13882 3.532L5.03341 3.56944L2.9281 3.60688L2.22484 3.93922C1.38133 4.33786 0.698144 5.00703 0.293647 5.83088L0 6.42884V28.5487V50.6685L0.343739 51.3667C0.738928 52.1695 1.35519 52.7663 2.2354 53.1987L2.82353 53.4877H24H45.1765L45.7516 53.2145C46.6054 52.809 47.2579 52.176 47.6563 51.3667L48 50.6685V28.5487V6.42884L47.7053 5.82868C47.3137 5.03119 46.5848 4.32207 45.7519 3.92834C45.0741 3.60792 45.0651 3.60677 42.9666 3.56944L40.8612 3.532L40.8154 2.62743C40.7479 1.29786 40.3712 0.66821 39.3725 0.215399C38.7585 -0.06298 37.7061 -0.0730193 37.1242 0.193961C36.1488 0.641334 35.7182 1.40421 35.7147 2.69027L35.7124 3.55302H24H12.2876L12.2853 2.69027C12.2818 1.40442 11.7948 0.574301 10.8007 0.15966C10.2441 -0.0724964 9.20366 -0.0458297 8.62745 0.215399ZM10.4622 1.82282C10.6862 2.04672 10.719 2.17346 10.719 2.81629V3.55302H9.72549H8.73203V2.93048C8.73203 1.9137 8.99054 1.58774 9.80863 1.5732C10.0968 1.56808 10.2759 1.63637 10.4622 1.82282ZM38.781 1.68217C39.1299 1.84123 39.268 2.19511 39.268 2.93048V3.55302H38.2745H37.281V2.81629C37.281 2.17346 37.3138 2.04672 37.5378 1.82282C37.8202 1.54026 38.3404 1.48149 38.781 1.68217ZM7.16403 6.40269C7.16465 7.79773 7.2503 8.25566 7.61046 8.79014C8.36131 9.90439 10.1053 10.2018 10.3426 9.25624C10.4638 8.77352 10.057 8.26821 9.54248 8.26225C9.21631 8.25848 8.87048 7.96076 8.78264 7.60792C8.75001 7.4771 8.73705 6.8759 8.75378 6.27197L8.78431 5.17394H22.2222H35.6601L35.7124 6.69027C35.7615 8.11187 35.7828 8.23746 36.0551 8.70052C36.422 9.32484 37.1036 9.74335 37.8546 9.80557C38.3485 9.84656 38.4185 9.8246 38.6238 9.56358C38.748 9.40567 38.8497 9.16306 38.8497 9.02439C38.8497 8.69969 38.4089 8.2589 38.0842 8.2589C37.9455 8.2589 37.7081 8.16133 37.5566 8.04212C37.2842 7.82784 37.281 7.80996 37.281 6.46753V5.10962L41.0196 5.14173C44.6187 5.17278 44.7738 5.18241 45.1765 5.39961C45.7103 5.68771 46.1152 6.11532 46.3213 6.6085C46.4581 6.93624 46.4837 7.60531 46.4837 10.869V14.7407L29.638 14.7678L12.7924 14.7949L12.5399 15.0883C12.2214 15.4586 12.2214 15.6997 12.5399 16.07L12.7924 16.3635L29.638 16.3906L46.4837 16.4176V26.7749C46.4837 37.9376 46.5093 37.4072 45.9446 37.919C45.3916 38.4202 45.3479 38.4261 41.8301 38.4811C38.5923 38.5317 38.4691 38.5411 38.0345 38.7732C37.3422 39.1429 36.793 39.6966 36.4737 40.3466L36.183 40.9386L36.1307 44.285C36.0941 46.6282 36.0405 47.6976 35.9517 47.8524C35.7345 48.2312 35.1048 48.7164 34.7473 48.7806C34.5592 48.8144 27.3699 48.8285 18.7712 48.8119C4.44727 48.7843 3.1108 48.7672 2.82133 48.6085C2.35765 48.3541 1.93067 47.8973 1.71284 47.4223C1.52952 47.0227 1.52084 46.321 1.51864 31.7142L1.51634 16.4244L5.9178 16.3939L10.3193 16.3635L10.5191 16.1166C10.7877 15.7849 10.7779 15.2467 10.4989 14.9941C10.291 14.8058 10.0364 14.7932 5.89762 14.7654L1.51634 14.736V10.8666C1.51634 6.65252 1.5291 6.54816 2.12319 5.9228C2.76486 5.24724 3.18641 5.14591 5.41176 5.13231L7.1634 5.12165L7.16403 6.40269ZM5.67226 19.5933C4.70285 19.9506 4.65349 20.1117 4.65401 22.9203C4.65454 26.3522 4.60099 26.2981 8 26.2981C10.4993 26.2981 10.6818 26.2573 11.1551 25.5938C11.3881 25.2672 11.4002 25.1591 11.4314 23.1086C11.4692 20.6373 11.4079 20.3245 10.7879 19.8246L10.3862 19.5007L8.22578 19.4746C6.5898 19.4547 5.96988 19.4836 5.67226 19.5933ZM16.3389 19.594C15.3385 19.961 15.268 20.1785 15.268 22.8994C15.268 24.9724 15.2846 25.176 15.4808 25.5101C15.5979 25.7094 15.8567 25.9682 16.0559 26.0853C16.3901 26.2815 16.5937 26.2981 18.6667 26.2981C21.2639 26.2981 21.4601 26.2441 21.8824 25.4108C22.1026 24.9764 22.1176 24.8151 22.1176 22.8994C22.1176 20.9837 22.1026 20.8225 21.8824 20.3881C21.4688 19.5722 21.2429 19.5047 18.8235 19.4753C17.2531 19.4562 16.634 19.4858 16.3389 19.594ZM26.9804 19.6018C26.0139 19.9527 25.8553 20.4739 25.9007 23.1488C25.9388 25.3941 26.0161 25.6701 26.7226 26.0853C27.0567 26.2815 27.2603 26.2981 29.3333 26.2981C31.4063 26.2981 31.6099 26.2815 31.9441 26.0853C32.1433 25.9682 32.4021 25.7094 32.5192 25.5101C32.7154 25.176 32.732 24.9724 32.732 22.8994C32.732 20.8264 32.7154 20.6228 32.5192 20.2887C32.099 19.5736 31.8395 19.5039 29.4902 19.4753C27.8722 19.4556 27.3039 19.4842 26.9804 19.6018ZM37.7745 19.52C37.6146 19.5461 37.3016 19.7408 37.079 19.9526C36.5624 20.444 36.522 20.7052 36.5667 23.2688C36.5995 25.1497 36.614 25.27 36.8449 25.5938C37.3182 26.2573 37.5007 26.2981 40 26.2981C43.4021 26.2981 43.3457 26.3555 43.3457 22.8994C43.3457 20.7498 43.328 20.5175 43.1414 20.2117C42.7476 19.5657 42.4869 19.5023 40.1569 19.4865C39.0065 19.4788 37.9345 19.4937 37.7745 19.52ZM9.88235 22.8994V24.6772H8.05229H6.22222V22.8994V21.1216H8.05229H9.88235V22.8994ZM20.4444 22.8994V24.6772H18.6667H16.8889V22.8994V21.1216H18.6667H20.4444V22.8994ZM31.1111 22.8994V24.6772H29.3333H27.5556V22.8994V21.1216H29.3333H31.1111V22.8994ZM41.7778 22.8994V24.6772H39.9477H38.1176V22.8994V21.1216H39.9477H41.7778V22.8994ZM5.49229 29.3541C5.29213 29.4563 5.02149 29.6998 4.89098 29.8953C4.66175 30.2383 4.65359 30.3317 4.65359 32.5981C4.65359 35.1473 4.67765 35.2701 5.26369 35.7099C5.52073 35.9027 5.73051 35.9212 7.94771 35.9478C10.2181 35.975 10.3724 35.9645 10.6999 35.762C10.9104 35.6319 11.1293 35.3611 11.2565 35.0738C11.4485 34.6398 11.4632 34.417 11.4324 32.4172C11.3955 30.0247 11.3807 29.9663 10.679 29.4419C10.4116 29.242 10.225 29.2241 8.1234 29.1973C6.12068 29.1716 5.81375 29.1899 5.49229 29.3541ZM16.2003 29.3196C15.7846 29.5044 15.4552 29.9278 15.3113 30.4621C15.2409 30.7237 15.2107 31.6509 15.2325 32.8799C15.2656 34.736 15.2843 34.8995 15.5049 35.2544C15.9164 35.9161 16.1613 35.9713 18.6841 35.9713C21.1929 35.9713 21.453 35.9104 21.8562 35.2275C22.0484 34.9019 22.0654 34.6855 22.0654 32.5541C22.0654 30.375 22.0524 30.2176 21.8497 29.9462C21.3217 29.2391 21.2792 29.2286 18.7901 29.2012C17.0518 29.1821 16.4476 29.2097 16.2003 29.3196ZM26.8706 29.318C26.3548 29.5475 26.0112 30.0413 25.9333 30.6649C25.8953 30.9684 25.8802 32.0395 25.8995 33.045C25.9302 34.6466 25.9606 34.9172 26.1438 35.2275C26.547 35.9104 26.8071 35.9713 29.3159 35.9713C31.8387 35.9713 32.0836 35.9161 32.4951 35.2544C32.7221 34.8892 32.732 34.7794 32.732 32.6249C32.732 30.5646 32.7146 30.3468 32.5229 30.0215C32.4078 29.8262 32.181 29.5673 32.0188 29.4464C31.743 29.2404 31.577 29.2247 29.4567 29.2012C27.7301 29.1822 27.1135 29.21 26.8706 29.318ZM37.7745 29.4546C37.6146 29.4808 37.3016 29.6755 37.079 29.8872C36.5624 30.3786 36.522 30.6399 36.5667 33.2034C36.5995 35.0843 36.614 35.2047 36.8449 35.5284C37.3182 36.192 37.5007 36.2328 40 36.2328C43.4021 36.2328 43.3457 36.2902 43.3457 32.8341C43.3457 30.6844 43.328 30.4522 43.1414 30.1464C42.7476 29.5003 42.4869 29.4369 40.1569 29.4212C39.0065 29.4134 37.9345 29.4284 37.7745 29.4546ZM9.85872 32.5988L9.88727 34.4027H8.0548H6.22222V32.5701V30.7376L8.02614 30.7662L9.83007 30.7948L9.85872 32.5988ZM20.4444 32.5726V34.4027H18.6667H16.8889V32.5726V30.7426H18.6667H20.4444V32.5726ZM31.1111 32.5726V34.4027H29.3333H27.5556V32.5726V30.7426H29.3333H31.1111V32.5726ZM41.7778 32.8341V34.6118H39.9477H38.1176V32.8341V31.0563H39.9477H41.7778V32.8341ZM5.43791 39.094C4.68967 39.5562 4.70588 39.4854 4.70588 42.3006V44.8434L4.96732 45.1231C5.47754 45.6692 5.62384 45.6968 8.00669 45.6968C10.0883 45.6968 10.2441 45.6832 10.6263 45.4684C11.3593 45.0564 11.451 44.704 11.451 42.2981C11.451 40.3995 11.4321 40.1812 11.2309 39.7655C10.845 38.9685 10.585 38.8993 7.97804 38.8998C5.99352 38.9002 5.71754 38.9213 5.43791 39.094ZM16.0512 39.1347C15.2758 39.6624 15.268 39.6942 15.268 42.2981C15.268 44.902 15.2758 44.9338 16.0512 45.4615C16.3835 45.6877 16.485 45.6968 18.6667 45.6968C20.8483 45.6968 20.9499 45.6877 21.2821 45.4615C22.0575 44.9338 22.0654 44.902 22.0654 42.2981C22.0654 39.6942 22.0575 39.6624 21.2821 39.1347C20.9499 38.9085 20.8483 38.8994 18.6667 38.8994C16.485 38.8994 16.3835 38.9085 16.0512 39.1347ZM26.7179 39.1347C26.057 39.5846 25.9346 39.8574 25.9346 40.8827C25.9346 41.9821 26.0864 42.2458 26.719 42.2458C27.27 42.2458 27.4623 41.9864 27.5292 41.1528L27.5842 40.4681H29.3477H31.1111V42.2981V44.1282H29.281C27.724 44.1282 27.451 44.1048 27.451 43.9713C27.451 43.7133 27.0537 43.3962 26.7306 43.3962C26.2364 43.3962 25.9357 43.7179 25.9492 44.232C25.9621 44.7282 26.2005 45.1094 26.7179 45.4615C27.0501 45.6877 27.1517 45.6968 29.3333 45.6968C31.515 45.6968 31.6165 45.6877 31.9488 45.4615C32.7242 44.9338 32.732 44.902 32.732 42.2981C32.732 39.6942 32.7242 39.6624 31.9488 39.1347C31.6165 38.9085 31.515 38.8994 29.3333 38.8994C27.1517 38.8994 27.0501 38.9085 26.7179 39.1347ZM45.4379 39.9718C45.4379 39.9865 43.685 41.7511 41.5425 43.8931L37.6471 47.7877L37.6993 44.52C37.7742 39.8416 37.4975 40.1268 42.0392 40.0467C43.7647 40.0163 45.2353 39.981 45.3072 39.9683C45.3791 39.9556 45.4379 39.9572 45.4379 39.9718ZM9.88235 42.2981V44.1282H8.05229H6.22222V42.2981V40.4681H8.05229H9.88235V42.2981ZM20.4444 42.2981V44.1282H18.6667H16.8889V42.2981V40.4681H18.6667H20.4444V42.2981ZM46.2222 50.6734C45.9403 51.2496 45.4125 51.6941 44.8021 51.8692C44.3152 52.0088 3.68481 52.0088 3.19791 51.8692C2.59566 51.6964 2.06421 51.2518 1.78123 50.6841C1.63556 50.3917 1.51634 50.0479 1.51634 49.9199C1.51634 49.6901 1.52408 49.6913 2.16993 50.0189L2.82353 50.3504H19.7146H36.6057L37.2832 50.0146C37.8776 49.72 38.4804 49.1586 42.1961 45.4389L46.4314 41.199L46.4587 45.6668L46.486 50.1345L46.2222 50.6734Z" fill="white"/>
</svg>
