<svg width="48" height="48" viewBox="0 0 48 48" fill="none" xmlns="http://www.w3.org/2000/svg">
<path fill-rule="evenodd" clip-rule="evenodd" d="M13.8455 0.245499C13.3494 0.741497 13.7009 1.59999 14.4 1.59999C14.8111 1.59999 15.2 1.2111 15.2 0.799997C15.2 0.388899 14.8111 0 14.4 0C14.2052 0 14.0002 0.0906997 13.8455 0.245499ZM16.2455 0.245499C15.9521 0.538798 15.9241 0.984196 16.1793 1.2993C16.3143 1.46599 16.6291 1.57999 17.4543 1.76089C19.33 2.17209 19.9979 2.89869 19.9994 4.52948C19.9999 5.01108 20.0415 5.15058 20.2455 5.35448C20.5757 5.68478 21.0296 5.67938 21.3677 5.34138C21.6173 5.09178 21.6246 5.05018 21.5777 4.15218C21.5167 2.98659 21.1616 2.15199 20.4043 1.39469C19.7967 0.787197 19.129 0.463998 17.9374 0.200499C16.7697 -0.0575999 16.5425 -0.0515998 16.2455 0.245499ZM29.7105 0.158299C28.5519 0.469798 27.5224 1.2413 26.8138 2.32879C26.5853 2.67959 26.4 3.08599 26.4 3.23649C26.4 3.61359 26.8084 3.99999 27.207 3.99999C27.5407 3.99999 27.695 3.86259 28.3271 3.00289C29.0653 1.99879 29.9453 1.59999 31.4227 1.59999C32.2305 1.59999 32.3309 1.57819 32.5545 1.35449C32.7093 1.1998 32.8 0.994796 32.8 0.799997C32.8 0.605198 32.7093 0.400199 32.5545 0.245499C32.3247 0.0155999 32.2437 0.000399997 31.2795 0.00659997C30.7133 0.0102 30.0072 0.0784997 29.7105 0.158299ZM33.8455 0.245499C33.3494 0.741497 33.7009 1.59999 34.4 1.59999C34.8111 1.59999 35.2 1.2111 35.2 0.799997C35.2 0.388899 34.8111 0 34.4 0C34.2052 0 34.0002 0.0906997 33.8455 0.245499ZM46.6454 0.245499C46.1493 0.741497 46.5008 1.59999 47.1999 1.59999C47.611 1.59999 47.9999 1.2111 47.9999 0.799997C47.9999 0.388899 47.611 0 47.1999 0C47.0051 0 46.8001 0.0906997 46.6454 0.245499ZM0.515288 0.284799C-0.0824097 0.882497 0.203389 1.42319 1.31659 1.80079C2.13528 2.07849 2.77578 2.52519 3.09428 3.04059C3.20748 3.22379 3.30008 3.39889 3.30008 3.42969C3.30008 3.46059 3.06388 3.55499 2.77508 3.63949C2.13598 3.82649 1.56848 4.27868 1.27519 4.83468C0.970686 5.41178 0.968586 6.48438 1.27079 7.05677C2.20988 8.83547 4.66487 8.84687 5.56187 7.07677C5.78547 6.63538 5.81397 6.47638 5.77097 5.90798C5.74357 5.54608 5.68867 5.14868 5.64897 5.02498C5.58927 4.83908 5.61407 4.79998 5.79157 4.79998C6.19397 4.79998 6.73676 5.10458 7.31156 5.65278C7.96336 6.27458 8.26646 6.34268 8.65456 5.95448C8.82076 5.78838 8.90006 5.59708 8.90006 5.36258C8.90006 4.87478 8.09866 4.01029 7.26686 3.60079C6.63346 3.28899 5.52357 3.04729 5.19867 3.15049C5.05417 3.19629 4.94697 3.07809 4.68317 2.58199C4.01127 1.3184 2.54578 0.262499 1.28319 0.1322C0.804187 0.0827997 0.695787 0.1043 0.515288 0.284799ZM43.6486 0.279899C42.4723 0.686597 41.4831 1.52099 40.9162 2.58449C40.653 3.07839 40.5457 3.19629 40.4013 3.15049C40.1081 3.05739 39.0329 3.27019 38.4514 3.53639C37.5579 3.94549 36.6999 4.85328 36.6999 5.38948C36.6999 5.72948 37.1283 6.13328 37.4891 6.13328C37.7407 6.13328 37.922 6.02288 38.3299 5.62118C38.8507 5.10818 39.4056 4.79998 39.8084 4.79998C39.9859 4.79998 40.0107 4.83908 39.951 5.02498C39.9113 5.14868 39.8564 5.54608 39.829 5.90798C39.7863 6.47218 39.8149 6.63598 40.0297 7.05797C40.3346 7.65707 40.6106 7.92437 41.1999 8.19157C42.0323 8.56897 42.9916 8.43307 43.6849 7.83967C44.3129 7.30207 44.544 6.79377 44.544 5.94998C44.544 4.78678 43.9312 3.96329 42.8249 3.63949C42.5362 3.55499 42.2999 3.46059 42.2999 3.42969C42.2999 3.39889 42.3925 3.22379 42.5057 3.04059C42.8242 2.52519 43.4647 2.07849 44.2834 1.80079C45.1373 1.51109 45.4691 1.1893 45.3604 0.756197C45.197 0.1051 44.6191 -0.0556998 43.6486 0.279899ZM25.0455 5.04548C24.5494 5.54148 24.9009 6.39998 25.6 6.39998C26.0111 6.39998 26.4 6.01108 26.4 5.59998C26.4 5.18888 26.0111 4.79998 25.6 4.79998C25.4052 4.79998 25.2002 4.89068 25.0455 5.04548ZM4.08427 5.48658C4.25507 6.05678 4.22777 6.28128 3.95457 6.55448C3.60508 6.90407 3.18548 6.88027 2.85898 6.49228C2.31758 5.84888 2.73538 5.12528 3.65928 5.10628C3.93348 5.10068 3.98147 5.14368 4.08427 5.48658ZM42.7716 5.44568C43.44 6.22278 42.3685 7.27767 41.6454 6.55448C41.3709 6.28008 41.3448 6.05718 41.519 5.47568L41.6381 5.07828L42.0907 5.12928C42.4168 5.16608 42.6071 5.25448 42.7716 5.44568ZM9.04556 6.64548C8.89076 6.80017 8.80006 7.00517 8.80006 7.19997C8.80006 7.39477 8.89076 7.59977 9.04556 7.75447C9.20026 7.90927 9.40525 7.99997 9.60005 7.99997C9.79485 7.99997 9.99985 7.90927 10.1546 7.75447C10.3094 7.59977 10.4001 7.39477 10.4001 7.19997C10.4001 7.00517 10.3094 6.80017 10.1546 6.64548C9.99985 6.49068 9.79485 6.39998 9.60005 6.39998C9.40525 6.39998 9.20026 6.49068 9.04556 6.64548ZM9.25006 9.25547C2.50778 11.4065 0.307689 12.1467 0.175089 12.3085C0.0788896 12.426 8.99305e-05 12.6512 8.99305e-05 12.8089C8.99305e-05 13.1212 -0.0649099 13.0409 3.30008 16.8879C4.37257 18.114 5.25007 19.1544 5.25007 19.1999C5.25007 19.2454 4.37257 20.2858 3.30008 21.5119C-0.0649099 25.359 8.99305e-05 25.2787 8.99305e-05 25.591C8.99305e-05 26.1524 0.203089 26.2584 2.95008 27.1309L5.55007 27.9567L5.60007 34.5748C5.64317 40.2794 5.67077 41.2134 5.80017 41.3428C5.96197 41.5045 23.7282 47.9998 24.0089 47.9998C24.1019 47.9998 26.0329 47.3248 28.3 46.4998C30.5671 45.6748 32.4846 44.9998 32.561 44.9998C32.6375 44.9998 32.7 45.0448 32.7 45.0998C32.7 45.3295 33.1113 45.5998 33.461 45.5998C33.7697 45.5998 33.9179 45.5065 34.486 44.9541L35.15 44.3084L37.0059 46.1541C38.6766 47.8155 38.8955 47.9998 39.1986 47.9998C39.497 47.9998 39.6892 47.8471 40.8876 46.6576C42.6655 44.8931 42.6576 45.012 41.0999 43.4498C40.4729 42.821 39.9801 42.2883 40.0049 42.266C40.0296 42.2437 40.5092 42.0579 41.0705 41.8531C41.6319 41.6483 42.1494 41.4107 42.2205 41.325C42.3223 41.2024 42.3606 39.7612 42.3999 34.5646L42.4499 27.96L45.0499 27.1341C47.7991 26.2607 47.9999 26.1557 47.9999 25.591C47.9999 25.2787 48.0649 25.359 44.6999 21.5119C43.6274 20.2858 42.7499 19.2454 42.7499 19.1999C42.7499 19.1544 43.6274 18.114 44.6999 16.8879C48.0649 13.0409 47.9999 13.1212 47.9999 12.8089C47.9999 12.6512 47.9207 12.4244 47.8239 12.3049C47.6884 12.1374 45.596 11.4349 38.7067 9.24377C33.7891 7.67967 29.6538 6.39998 29.5173 6.39998C29.217 6.39998 29.1933 6.42458 26.308 9.73086C25.075 11.1439 24.0363 12.3 24 12.3C23.9637 12.3 22.925 11.1439 21.692 9.73086C18.7266 6.33268 18.7908 6.39828 18.4405 6.40798C18.2807 6.41238 14.145 7.69377 9.25006 9.25547ZM20.3805 10.6717C21.5523 12.0232 22.4748 13.1636 22.4305 13.2059C22.3316 13.3003 6.94466 18.1999 6.74706 18.1999C6.55677 18.1999 2.26368 13.2951 2.36798 13.1968C2.48928 13.0824 17.8157 8.21187 18.05 8.21317C18.1861 8.21397 18.9307 8.99947 20.3805 10.6717ZM37.8205 10.6593C42.0717 12.012 45.5861 13.1529 45.6304 13.1948C45.7383 13.2969 41.494 18.1836 41.2895 18.1927C41.0922 18.2016 25.6823 13.311 25.5679 13.2032C25.4632 13.1045 29.7572 8.19997 29.9484 8.19997C30.0269 8.19997 33.5694 9.30667 37.8205 10.6593ZM23.4861 19.0089C23.8149 19.2749 24.2567 19.2523 24.5545 18.9544C24.7989 18.7101 24.8 18.6999 24.8 16.6961C24.8 15.1286 24.8277 14.6931 24.925 14.728C24.9938 14.7526 28.1433 15.7576 31.924 16.9613C35.7047 18.165 38.7981 19.1724 38.7983 19.1999C38.7988 19.2641 24.1995 23.903 24 23.902C23.7977 23.901 9.20375 19.2633 9.20325 19.1999C9.20305 19.1724 12.3409 18.1546 16.1764 16.9381L23.15 14.7263L23.2 16.7722C23.2489 18.7731 23.2552 18.8222 23.4861 19.0089ZM14.6193 22.6585C18.8712 24.0108 22.3862 25.1518 22.4305 25.194C22.5382 25.2968 18.2945 30.1835 18.0896 30.1927C17.8923 30.2016 2.48238 25.3109 2.36798 25.2031C2.26368 25.1048 6.55677 20.1999 6.74706 20.1999C6.82486 20.1999 10.3674 21.3063 14.6193 22.6585ZM43.5804 22.6716C44.7522 24.0231 45.6747 25.1631 45.6304 25.2049C45.5307 25.299 30.1429 30.1999 29.9471 30.1999C29.7567 30.1999 25.4636 25.295 25.5679 25.1967C25.6892 25.0823 41.0156 20.2118 41.2499 20.2131C41.386 20.2139 42.1306 20.9994 43.5804 22.6716ZM23.4455 21.0454C22.9494 21.5414 23.3009 22.3999 24 22.3999C24.4111 22.3999 24.8 22.011 24.8 21.5999C24.8 21.1888 24.4111 20.7999 24 20.7999C23.8052 20.7999 23.6002 20.8906 23.4455 21.0454ZM23.4861 34.2088C23.6159 34.3139 23.8472 34.3999 24 34.3999C24.1528 34.3999 24.3841 34.3139 24.5139 34.2088L24.75 34.0178L24.8 30.5057L24.85 26.9936L26.9854 29.4401C28.1599 30.7856 29.1874 31.912 29.2686 31.9432C29.3499 31.9744 29.4914 32.0002 29.5832 32.0005C29.7109 32.0009 40.0807 28.7526 40.6757 28.5258C40.7761 28.4876 40.7963 29.6677 40.7757 34.3631L40.7499 40.2483L39.7124 40.6282C39.1418 40.8372 38.6506 40.9838 38.6209 40.9541C38.5911 40.9244 38.8668 40.5894 39.2334 40.2098C39.7407 39.6842 39.8999 39.4507 39.8999 39.2319C39.8999 38.8431 39.6662 38.5366 39.2746 38.4116C38.6159 38.2015 32.005 36.6999 31.7386 36.6999C31.332 36.6999 30.9992 37.0589 31.0039 37.4923C31.006 37.689 31.2917 39.0802 31.6387 40.5839C32.2634 43.2911 32.2675 43.3188 32.0598 43.4083C31.6601 43.5805 24.9555 45.9998 24.8779 45.9998C24.8351 45.9998 24.8 44.5803 24.8 42.8453V39.6908L24.5545 39.4454C24.3998 39.2906 24.1948 39.1999 24 39.1999C23.8052 39.1999 23.6002 39.2906 23.4455 39.4454L23.2 39.6908V42.8453C23.2 44.5803 23.1662 45.9989 23.125 45.9978C23.0838 45.9966 19.495 44.7018 15.15 43.1204L7.25006 40.2453L7.22426 34.3656C7.19976 28.7945 7.20766 28.4889 7.37426 28.542C14.5831 30.8416 18.2815 31.9999 18.4148 31.9999C18.5077 31.9999 18.6501 31.9744 18.7314 31.9432C18.8126 31.912 19.8401 30.7856 21.0146 29.4401L23.15 26.9936L23.2 30.5057L23.25 34.0178L23.4861 34.2088ZM23.4455 36.2454C22.9494 36.7414 23.3009 37.5999 24 37.5999C24.1948 37.5999 24.3998 37.5092 24.5545 37.3544C24.7093 37.1997 24.8 36.9947 24.8 36.7999C24.8 36.6051 24.7093 36.4001 24.5545 36.2454C24.3998 36.0906 24.1948 35.9999 24 35.9999C23.8052 35.9999 23.6002 36.0906 23.4455 36.2454ZM35.4225 39.1586L37.4949 39.6345L37.0474 40.1129C36.2938 40.9186 36.2943 40.9198 38.4488 43.0934L40.2978 44.9587L39.7476 45.502L39.1975 46.0454L37.3527 44.2026C35.6534 42.505 35.48 42.3598 35.1532 42.3598C34.8696 42.3598 34.7102 42.4463 34.3593 42.7906C33.9802 43.1627 33.913 43.1961 33.8667 43.0356C33.7508 42.6344 32.9 38.8219 32.9 38.7038C32.9 38.6248 32.9834 38.5976 33.125 38.6305C33.2488 38.6592 34.2826 38.8968 35.4225 39.1586Z" fill="white"/>
</svg>
