<svg width="48" height="48" viewBox="0 0 48 48" fill="none" xmlns="http://www.w3.org/2000/svg">
<path fill-rule="evenodd" clip-rule="evenodd" d="M22.5 0.0206464C22.3403 0.0442593 21.7778 0.153033 21.2498 0.262485C16.8511 1.17448 13.1117 4.44913 11.5833 8.72761C11.0633 10.1834 10.8896 11.2863 10.8913 13.123C10.8929 14.9626 11.0084 15.7279 11.5211 17.2984C12.7646 21.1078 15.9538 24.3037 19.7903 25.585C21.3655 26.1111 22.1402 26.2301 24 26.2317C25.4191 26.233 25.8564 26.197 26.6986 26.0095C31.9544 24.8397 35.7679 20.9748 36.9315 15.6391C37.1817 14.4915 37.1806 11.7766 36.9295 10.6069C36.0682 6.59568 33.5847 3.26839 30.1143 1.47603C28.1218 0.446937 26.6006 0.0612915 24.3387 0.0117431C23.4871 -0.00693429 22.6597 -0.00286977 22.5 0.0206464ZM26.2742 1.75078C28.5891 2.23242 30.5246 3.27555 32.186 4.93697C36.2969 9.04794 36.7439 15.4531 33.2445 20.1049C29.5299 25.0428 22.6443 26.1755 17.4594 22.7017C17.0382 22.4195 16.2977 21.7928 15.814 21.309C11.2617 16.7568 11.2635 9.49513 15.8178 4.94084C17.637 3.12168 19.9671 1.96165 22.5 1.61442C23.4287 1.48707 25.3385 1.55607 26.2742 1.75078ZM25.9839 4.1711C24.3115 4.48581 23.5795 4.92149 21.9194 6.59074C20.3228 8.19603 19.805 8.50745 18.3525 8.73652C17.0166 8.94719 17.0403 8.93819 16.8682 9.29916C16.7131 9.62452 16.7165 9.64619 17.0316 10.3369C17.3732 11.0857 23.026 22.4323 23.093 22.5038C23.1318 22.5451 24.4839 21.9209 24.4839 21.8616C24.4839 21.845 23.9177 20.6996 23.2258 19.3165C22.5339 17.9335 21.9677 16.7797 21.9677 16.7527C21.9677 16.7257 22.0477 16.7036 22.1453 16.7036C22.4997 16.7036 23.58 16.2932 24.2419 15.9071C24.721 15.6276 25.2889 15.135 26.181 14.2253C27.2216 13.1639 27.5536 12.8867 28.0765 12.6419C28.7016 12.3495 29.7996 12.0634 30.31 12.0601C30.8382 12.0567 31.2581 11.6918 31.2581 11.2362C31.2581 10.9591 27.8813 4.33474 27.6616 4.18097C27.4014 3.99865 26.9156 3.99584 25.9839 4.1711ZM28.0157 8.08997C28.6813 9.42023 29.2258 10.5265 29.2258 10.5483C29.2258 10.5702 28.9101 10.6833 28.5242 10.7998C27.1477 11.2156 26.5899 11.5882 25.1129 13.0788C23.6884 14.5164 23.2469 14.8192 22.1486 15.1114C21.1663 15.3729 21.3121 15.5254 20.0299 12.8964C19.3981 11.6006 18.868 10.4854 18.8519 10.418C18.8337 10.3418 19.0425 10.2329 19.4032 10.1304C20.7244 9.75468 21.8057 9.06632 22.7132 8.02319C23.5284 7.08613 23.7886 6.84429 24.4295 6.42778C25.047 6.02645 25.983 5.68561 26.4915 5.67681L26.8057 5.67139L28.0157 8.08997ZM6.29032 23.6914C6.05081 23.7443 5.83906 23.8026 5.81971 23.821C5.77026 23.8682 6.30174 26.7052 6.37519 26.7864C6.42784 26.8445 6.76742 26.7979 7.63258 26.6139C7.89368 26.5584 7.89716 26.6282 7.53397 24.6633L7.33277 23.5746L7.02929 23.585C6.86235 23.5907 6.52984 23.6386 6.29032 23.6914ZM40.4227 25.0413C40.2743 25.848 40.1874 26.5378 40.2296 26.5741C40.3123 26.6452 41.6202 26.8931 41.66 26.8453C41.6987 26.7989 42.1935 24.1144 42.1935 23.9508C42.1935 23.8439 42.0189 23.7694 41.5776 23.6881C41.2388 23.6257 40.901 23.5746 40.8271 23.5746C40.73 23.5746 40.6174 23.9834 40.4227 25.0413ZM2.28174 26.0165C2.03806 26.295 1.83871 26.5503 1.83871 26.5839C1.83871 26.6796 3.93745 28.6069 4.04168 28.6069C4.15645 28.6069 5.03226 27.681 5.03226 27.5598C5.03226 27.4427 2.94977 25.5101 2.82358 25.5101C2.76919 25.5101 2.52532 25.738 2.28174 26.0165ZM43.9866 26.5186C42.8008 27.6361 42.8376 27.4944 43.5386 28.244C43.7253 28.4436 43.917 28.6069 43.9647 28.6069C44.0646 28.6069 46.1613 26.6759 46.1613 26.5839C46.1613 26.462 45.2722 25.5102 45.1618 25.514C45.0995 25.5161 44.5706 25.9682 43.9866 26.5186ZM0.237581 30.3928L0 30.6303V34.3926V38.1549L1.73952 40.4695L3.47903 42.7843L3.48145 45.373L3.48387 47.9617H4.25806H5.03226V45.1232V42.2846L3.29274 39.97L1.55323 37.6553L1.55081 34.6795L1.54839 31.7036H2.12903H2.70968V34.1888V36.6739L4.06161 38.0356L5.41355 39.3972L8.63419 39.4456C11.5343 39.4891 11.8885 39.512 12.1935 39.6744C12.6676 39.9268 13.0467 40.2991 13.2912 40.752C13.4921 41.1244 13.5011 41.2684 13.5288 44.5504L13.5576 47.9617H14.3326H15.1077L15.0755 44.4053C15.046 41.144 15.0276 40.8104 14.8544 40.3856C14.5981 39.7576 14.076 39.0878 13.508 38.6586C13.0065 38.2795 11.999 37.8972 11.5018 37.8972H11.2011L11.6092 37.4544C11.8337 37.211 12.1324 36.7645 12.2731 36.4625C12.4924 35.9915 12.529 35.7825 12.5305 34.994C12.5321 34.1616 12.5037 34.0151 12.2303 33.4456C11.8661 32.6866 11.2177 32.0227 10.4716 31.6447C9.96687 31.389 9.83187 31.3649 8.90323 31.3649C7.97294 31.3649 7.84006 31.3887 7.33064 31.6467C6.57629 32.0288 5.93303 32.6871 5.57294 33.4456C5.30361 34.0127 5.27439 34.1652 5.27594 34.994C5.27748 35.7825 5.31406 35.9915 5.53335 36.4625C5.67406 36.7645 5.97271 37.211 6.19723 37.4544C6.58258 37.8725 6.59235 37.8972 6.37345 37.8972C6.20884 37.8972 5.8681 37.6227 5.19977 36.9519L4.25806 36.0066V33.3185V30.6303L4.02048 30.3928C3.78687 30.1591 3.7561 30.1553 2.12903 30.1553C0.501968 30.1553 0.471194 30.1591 0.237581 30.3928ZM43.9795 30.3928L43.7419 30.6303V33.322V36.0138L42.7966 36.9555C42.146 37.6037 41.7815 37.8972 41.6271 37.8972C41.4186 37.8972 41.4315 37.8651 41.8116 37.4375C42.49 36.6744 42.7133 36.0736 42.7201 34.994C42.7253 34.1573 42.6986 34.0181 42.4239 33.4456C42.0596 32.6866 41.4112 32.0227 40.6652 31.6447C40.1604 31.389 40.0254 31.3649 39.0968 31.3649C38.1665 31.3649 38.0336 31.3887 37.5242 31.6467C36.7698 32.0288 36.1266 32.6871 35.7665 33.4456C35.4972 34.0127 35.4679 34.1652 35.4695 34.994C35.471 35.7825 35.5076 35.9915 35.7269 36.4625C35.8676 36.7645 36.1663 37.211 36.3908 37.4544L36.7989 37.8972H36.4982C36.001 37.8972 34.9934 38.2795 34.492 38.6586C33.8486 39.1448 33.348 39.8367 33.1059 40.5744C32.9158 41.1532 32.9032 41.4022 32.9032 44.5766V47.9617H33.6728H34.4424L34.4712 44.5504C34.4989 41.2684 34.5079 41.1244 34.7088 40.752C34.9533 40.2991 35.3324 39.9268 35.8065 39.6744C36.1115 39.512 36.4657 39.4891 39.3658 39.4456L42.5865 39.3972L43.9384 38.0356L45.2903 36.6739V34.1888V31.7036H45.871H46.4516L46.4492 34.6795L46.4468 37.6553L44.7073 39.97L42.9677 42.2846V45.1232V47.9617H43.7419H44.5161L44.5185 45.373L44.521 42.7843L46.2605 40.4695L48 38.1549V34.3926V30.6303L47.7624 30.3928C47.5288 30.1591 47.498 30.1553 45.871 30.1553C44.2439 30.1553 44.2131 30.1591 43.9795 30.3928ZM22.8464 31.47C21.8614 31.8275 21.1266 32.4952 20.6719 33.4456C20.3998 34.0143 20.3712 34.1627 20.3727 34.994C20.3743 35.7825 20.4108 35.9915 20.6301 36.4625C20.7708 36.7645 21.0695 37.211 21.294 37.4544L21.7021 37.8972H21.4014C20.9042 37.8972 19.8967 38.2795 19.3952 38.6586C18.7518 39.1448 18.2512 39.8367 18.0091 40.5744C17.819 41.1532 17.8065 41.4022 17.8065 44.5766V47.9617H18.576H19.3456L19.3744 44.5504C19.4007 41.4408 19.4192 41.1092 19.5836 40.8004C19.8361 40.3263 20.2084 39.9473 20.6613 39.7028C21.0337 39.5019 21.1603 39.494 24 39.494C26.8397 39.494 26.9663 39.5019 27.3387 39.7028C27.7916 39.9473 28.1639 40.3263 28.4164 40.8004C28.5808 41.1092 28.5993 41.4408 28.6256 44.5504L28.6544 47.9617H29.4294H30.2045L30.1723 44.4053C30.1427 41.144 30.1244 40.8104 29.9511 40.3856C29.6949 39.7576 29.1728 39.0878 28.6048 38.6586C28.1033 38.2795 27.0958 37.8972 26.5986 37.8972H26.2979L26.706 37.4544C26.9305 37.211 27.2292 36.7645 27.3699 36.4625C27.5892 35.9915 27.6257 35.7825 27.6273 34.994C27.6288 34.1616 27.6005 34.0151 27.3271 33.4456C26.9609 32.6826 26.31 32.0184 25.5684 31.6508C25.1104 31.4238 24.8674 31.3718 24.1452 31.3459C23.522 31.3236 23.1525 31.3589 22.8464 31.47ZM9.53226 32.9731C9.77168 33.0394 10.0905 33.2515 10.3681 33.5291C11.2566 34.4176 11.2566 35.5704 10.3681 36.4588C9.47961 37.3473 8.32684 37.3473 7.43835 36.4588C6.5731 35.5936 6.55306 34.4522 7.38764 33.5721C7.98977 32.9371 8.69284 32.7408 9.53226 32.9731ZM24.629 32.9731C24.8685 33.0394 25.1873 33.2515 25.4649 33.5291C26.3534 34.4176 26.3534 35.5704 25.4649 36.4588C24.5764 37.3473 23.4236 37.3473 22.5351 36.4588C21.6699 35.5936 21.6498 34.4522 22.4844 33.5721C23.0865 32.9371 23.7896 32.7408 24.629 32.9731ZM39.7258 32.9731C39.9652 33.0394 40.2841 33.2515 40.5616 33.5291C41.4501 34.4176 41.4501 35.5704 40.5616 36.4588C39.6732 37.3473 38.5204 37.3473 37.6319 36.4588C36.7666 35.5936 36.7466 34.4522 37.5812 33.5721C38.1833 32.9371 38.8864 32.7408 39.7258 32.9731Z" fill="white"/>
</svg>
