<svg width="48" height="46" viewBox="0 0 48 46" fill="none" xmlns="http://www.w3.org/2000/svg">
<path fill-rule="evenodd" clip-rule="evenodd" d="M36.758 0.162011C35.8088 0.419418 35.0196 0.862351 34.3006 1.5412C33.6146 2.18899 33.169 2.8685 32.8173 3.80335C32.6172 4.33524 32.578 4.60354 32.5711 5.48696L32.563 6.53789L32.3284 6.38662C32.1994 6.30348 30.9326 5.43094 29.5132 4.44766C28.0938 3.46439 26.6792 2.55272 26.3695 2.42181C25.8754 2.21301 25.6742 2.18402 24.7273 2.18552C23.6983 2.18711 23.6175 2.20185 22.9912 2.50139C22.3875 2.79014 22.0366 3.11277 18.6557 6.48797C15.2827 9.85538 14.9527 10.2128 14.6827 10.7924C14.0914 12.0617 14.0887 13.2297 14.6742 14.4807C15.4248 16.0848 17.3335 17.0977 19.0513 16.8034C20.3395 16.5828 20.7001 16.3281 23.0956 13.9464L25.273 11.7818L26.2199 12.4578C26.7407 12.8297 27.1934 13.1768 27.2259 13.2294C27.2584 13.2818 21.6489 18.9682 14.7604 25.8657C2.87155 37.7705 2.22292 38.437 1.97574 39.0046C1.60469 39.8566 1.48523 40.6535 1.61501 41.411C2.01778 43.7624 4.16948 45.3354 6.44852 44.9446C7.81738 44.7099 7.48762 44.9985 15.4142 37.0968L22.6643 29.8696L23.9045 31.1097L25.1446 32.3499L22.1433 35.3782C18.8567 38.6947 18.7354 38.8534 18.5179 40.1224C18.2865 41.4716 18.7056 42.7478 19.7101 43.7523C20.7146 44.7568 21.9908 45.176 23.34 44.9446C24.6777 44.7152 24.604 44.7765 29.8446 39.5358C35.0853 34.2951 35.024 34.3689 35.2534 33.0312C35.3457 32.493 35.3457 32.2148 35.2534 31.6767C35.0359 30.4076 34.9145 30.249 31.6281 26.9327L28.6271 23.9044L29.2917 23.2398L29.9563 22.5751L30.1749 23.0305C30.454 23.612 31.4 24.5605 31.9771 24.8374C32.9566 25.3074 33.0433 25.3134 38.7975 25.3147C44.6739 25.3159 44.8688 25.3008 45.8221 24.7712C46.3879 24.457 47.1412 23.7037 47.4554 23.1379C47.7474 22.6124 48 21.6637 48 21.0929C48 20.5222 47.7474 19.5734 47.4554 19.0479C47.1412 18.4822 46.3879 17.7289 45.8221 17.4146C44.944 16.9268 44.4595 16.87 41.1726 16.87H38.1577L38.1189 14.3129C38.0977 12.9064 38.0481 11.6395 38.0087 11.4976C37.9383 11.244 37.9442 11.2395 38.3552 11.2395C38.96 11.2395 40.1322 10.9165 40.8037 10.5646C41.6424 10.1253 42.7203 9.02122 43.1448 8.16661C44.6873 5.06176 43.241 1.49147 39.9523 0.285788C39.0589 -0.0417194 37.7029 -0.0942708 36.758 0.162011ZM38.8035 2.89421C39.8016 3.12074 40.6717 4.03532 40.8811 5.0779C41.2663 6.99584 39.5298 8.72797 37.6086 8.34219C36.1105 8.04133 35.1143 6.56079 35.4122 5.0779C35.6167 4.05963 36.4224 3.18315 37.3954 2.92058C37.9228 2.77822 38.2643 2.77184 38.8035 2.89421ZM25.4123 5.10615C25.5775 5.19089 26.9935 6.14751 28.5589 7.23195L31.4051 9.20365L30.3953 10.2167C29.8399 10.7738 29.3403 11.2026 29.2851 11.1694C29.2299 11.1363 28.5142 10.6263 27.6946 10.0359C25.5147 8.46587 25.3148 8.37231 24.663 8.61752C24.5177 8.67213 23.2375 9.87143 21.8182 11.2825C19.6502 13.438 19.1738 13.8671 18.8387 13.9664C17.7842 14.2787 16.81 13.3054 17.1192 12.2483C17.219 11.9072 17.72 11.3649 20.5828 8.49928C22.4236 6.6567 24.0352 5.10747 24.1642 5.05651C24.526 4.91396 25.0804 4.93602 25.4123 5.10615ZM3.7272 5.76511C3.23904 6.00572 3.00293 6.41374 3.00293 7.01667C3.00293 7.4003 3.0567 7.60816 3.2122 7.82624C3.63655 8.42111 3.6617 8.4243 7.8827 8.4243C12.1037 8.4243 12.1288 8.42111 12.5532 7.82624C12.8452 7.41672 12.8452 6.61663 12.5532 6.2071C12.1285 5.61168 12.1058 5.60886 7.86853 5.61121C4.52964 5.61308 3.9955 5.63288 3.7272 5.76511ZM0.72427 11.3956C0.236106 11.6362 0 12.0442 0 12.6472C0 13.0308 0.0537713 13.2387 0.209267 13.4567C0.634651 14.053 0.649103 14.0548 4.97361 14.0548C9.29811 14.0548 9.31256 14.053 9.73795 13.4567C10.03 13.0472 10.03 12.2471 9.73795 11.8376C9.31219 11.2409 9.30018 11.2394 4.95944 11.2417C1.53412 11.2436 0.992938 11.2632 0.72427 11.3956ZM34.6606 11.4966C34.7908 11.5938 34.9845 11.7899 35.091 11.9324C35.2755 12.1794 35.2866 12.3436 35.3314 15.4925C35.3773 18.7198 35.383 18.8004 35.5876 19.0872C36.0114 19.6814 36.0411 19.6853 40.2191 19.6853C43.8444 19.6853 44.0158 19.6932 44.3987 19.8786C44.8205 20.0828 45.1848 20.6455 45.1848 21.0929C45.1848 21.5404 44.8205 22.103 44.3987 22.3072C44.0104 22.4952 43.8576 22.5005 38.8504 22.5005C33.8432 22.5005 33.6905 22.4952 33.3021 22.3072C32.6827 22.0073 32.5161 21.5741 32.5161 20.2626C32.5161 19.0536 32.4092 18.6989 31.9396 18.3498C31.5312 18.0464 31.2966 17.9953 30.806 18.1034C30.4474 18.1824 30.1373 18.4585 27.8925 20.698C25.8701 22.7156 25.3615 23.2732 25.2843 23.5578C25.0834 24.2984 25.1067 24.328 28.8449 28.0788C31.8045 31.0484 32.3279 31.6145 32.4283 31.9551C32.679 32.806 32.765 32.6996 27.8867 37.5779C24.0602 41.4044 23.4064 42.0199 23.0616 42.1206C22.0046 42.4291 21.032 41.4559 21.343 40.4008C21.4434 40.0603 21.9665 39.4943 24.9247 36.5262C27.5496 33.8925 28.4114 32.9719 28.4818 32.7263C28.6969 31.9763 28.7266 32.0143 24.9596 28.2249C21.9774 25.225 21.4438 24.647 21.3433 24.307C21.0882 23.4441 20.883 23.6876 27.1988 17.3609C30.7777 13.7758 33.0797 11.5395 33.3138 11.4205C33.7563 11.1953 34.2982 11.226 34.6606 11.4966ZM3.7272 17.0261C3.23904 17.2667 3.00293 17.6747 3.00293 18.2777C3.00293 18.6613 3.0567 18.8692 3.2122 19.0872C3.63655 19.6821 3.6617 19.6853 7.8827 19.6853C12.1037 19.6853 12.1288 19.6821 12.5532 19.0872C12.8452 18.6777 12.8452 17.8776 12.5532 17.4681C12.1285 16.8727 12.1058 16.8699 7.86853 16.8722C4.52964 16.8741 3.9955 16.8939 3.7272 17.0261ZM19.1278 26.1838C19.2579 26.4031 19.642 26.8559 19.9813 27.1899C20.3207 27.5239 20.5982 27.8413 20.5982 27.8952C20.5982 27.9491 17.4417 31.1455 13.5836 34.9985C7.45919 41.1146 6.51833 42.0186 6.17009 42.1204C5.11371 42.4293 4.1417 41.4572 4.45053 40.4008C4.55235 40.0525 5.46646 39.1015 11.6663 32.8935C15.5709 28.9838 18.7938 25.785 18.8284 25.785C18.8629 25.785 18.9977 25.9645 19.1278 26.1838Z" fill="white"/>
</svg>
