<svg width="48" height="48" viewBox="0 0 48 48" fill="none" xmlns="http://www.w3.org/2000/svg">
<path fill-rule="evenodd" clip-rule="evenodd" d="M1.63907 0.097038C0.893572 0.388484 0.349127 0.941088 0.107475 1.65142C-0.0340287 2.06749 -0.0330909 4.25896 0.108787 4.67109C0.29502 5.21207 0.66336 5.68487 1.13841 5.99263L1.59321 6.28736V16.0176V25.7479L1.39526 25.8107C1.04652 25.9214 0.445244 26.5432 0.219721 27.0264L0.000948606 27.4953L1.08778e-05 36.7414C-0.000645532 43.4942 0.0283303 46.0734 0.107475 46.3062C0.3164 46.9204 0.754226 47.4128 1.35343 47.7073L1.92142 47.9866L24.0987 47.9622C45.3759 47.9388 46.2899 47.9309 46.621 47.7662C47.079 47.5382 47.5624 47.0589 47.7839 46.6124C47.9571 46.2634 47.9648 45.9017 47.9899 36.9195C48.0136 28.3652 48.0026 27.5545 47.858 27.1726C47.6708 26.6784 47.0865 26.0152 46.6956 25.8533L46.4166 25.7377V16.0125V6.28736L46.8714 5.99263C47.7995 5.39127 48.0388 4.74817 47.9951 2.97371C47.9701 1.95824 47.9283 1.63604 47.7839 1.34525C47.5624 0.898796 47.079 0.419429 46.621 0.191467C46.2899 0.0268022 45.3846 0.0192066 24.0987 0.00326518C7.27725 -0.00939416 1.85324 0.0132989 1.63907 0.097038ZM46.1425 1.84121C46.4127 2.11137 46.4166 2.13022 46.4166 3.16125C46.4166 4.19229 46.4127 4.21113 46.1425 4.48129L45.8684 4.75539H24.0049H2.14141L1.86731 4.48129C1.59715 4.21113 1.59321 4.19229 1.59321 3.16125C1.59321 2.13022 1.59715 2.11137 1.86731 1.84121L2.14141 1.56712H24.0049H45.8684L46.1425 1.84121ZM21.5668 15.9612V25.573H20.774H19.9812L19.9221 25.2213C19.4827 22.6051 17.9217 20.431 15.6503 19.2717L15.0319 18.9562L15.5342 18.4034C17.5157 16.223 17.102 12.7942 14.662 11.1746C12.484 9.72892 9.45606 10.3336 8.01449 12.5019C6.79376 14.338 6.98974 16.7686 8.49227 18.4291L8.98195 18.9701L8.41322 19.2473C6.15179 20.3497 4.5373 22.5772 4.08316 25.2213C4.02399 25.566 4.01452 25.573 3.60511 25.573H3.18735V15.9612V6.34953H12.3771H21.5668V15.9612ZM24.7551 15.9612V25.573H24.0049H23.2547V15.9612V6.34953H24.0049H24.7551V15.9612ZM44.8225 15.9612V25.573H44.4047C43.995 25.573 43.9859 25.5662 43.928 25.2213C43.4886 22.6051 41.9275 20.431 39.6562 19.2717L39.0377 18.9562L39.5401 18.4034C41.5216 16.223 41.1079 12.7942 38.6678 11.1746C36.4898 9.72892 33.4619 10.3336 32.0203 12.5019C30.7996 14.338 30.9956 16.7686 32.4981 18.4291L32.9878 18.9701L32.4191 19.2473C30.1576 20.3497 28.5432 22.5772 28.089 25.2213L28.0286 25.573H27.2359H26.443V15.9612V6.34953H35.6328H44.8225V15.9612ZM13.3673 12.3027C14.0071 12.6158 14.5562 13.1713 14.8826 13.836C15.1057 14.2904 15.1434 14.4823 15.1434 15.1642C15.1434 15.8269 15.1022 16.0489 14.8995 16.4813C14.5635 17.1976 14.1745 17.6106 13.4822 17.986C12.9293 18.2858 12.8377 18.3056 12.002 18.3056C11.1663 18.3056 11.0747 18.2858 10.5218 17.986C9.82947 17.6106 9.4405 17.1976 9.10451 16.4813C8.90177 16.0489 8.86061 15.8269 8.86061 15.1642C8.86061 14.4958 8.90055 14.2839 9.10798 13.8514C9.51946 12.9933 10.2695 12.3471 11.1396 12.1012C11.7856 11.9185 12.7627 12.0069 13.3673 12.3027ZM37.3732 12.3027C38.013 12.6158 38.562 13.1713 38.8885 13.836C39.1115 14.2904 39.1492 14.4823 39.1492 15.1642C39.1492 15.8269 39.1081 16.0489 38.9053 16.4813C38.5693 17.1976 38.1804 17.6106 37.4881 17.986C36.9352 18.2858 36.8436 18.3056 36.0078 18.3056C35.1721 18.3056 35.0805 18.2858 34.5276 17.986C33.8353 17.6106 33.4463 17.1976 33.1104 16.4813C32.9076 16.0489 32.8665 15.8269 32.8665 15.1642C32.8665 14.4958 32.9064 14.2839 33.1138 13.8514C33.5253 12.9933 34.2754 12.3471 35.1454 12.1012C35.7914 11.9185 36.7685 12.0069 37.3732 12.3027ZM13.6857 20.2414C15.1568 20.6287 16.4991 21.6118 17.3635 22.935C17.8026 23.6074 18.2848 24.8678 18.2848 25.3434V25.573H12.002H5.71922V25.3484C5.71922 24.9648 6.09525 23.8668 6.44502 23.2286C6.90432 22.3909 8.10489 21.2166 8.95438 20.7741C10.4881 19.9754 12.0199 19.8029 13.6857 20.2414ZM37.6915 20.2414C39.1626 20.6287 40.5049 21.6118 41.3693 22.935C41.8084 23.6074 42.2906 24.8678 42.2906 25.3434V25.573H36.0078H29.7251V25.3484C29.7251 24.9648 30.1011 23.8668 30.4509 23.2286C30.9102 22.3909 32.1107 21.2166 32.9602 20.7741C34.494 19.9754 36.0258 19.8029 37.6915 20.2414ZM23.161 36.7788V46.3905H12.6512H2.14141L1.86731 46.1164L1.59321 45.8423V36.8069C1.59321 26.9771 1.56714 27.4734 2.09555 27.2601C2.20611 27.2155 6.99106 27.1763 12.7287 27.173L23.161 27.1671V36.7788ZM46.1904 27.4771L46.4166 27.7402V36.7913V45.8423L46.1425 46.1164L45.8684 46.3905H35.3587H24.8489V36.7776V27.1648L35.4065 27.1893L45.964 27.214L46.1904 27.4771ZM11.6436 28.8605C11.5239 28.9085 11.3556 29.1122 11.2698 29.3132C11.1353 29.6284 11.0465 29.6999 10.6253 29.8326C10.0056 30.028 9.27293 30.5767 8.81119 31.1913C7.30191 33.1998 7.9813 36.0209 10.2471 37.1545C10.6072 37.3347 10.9595 37.4821 11.0299 37.4821C11.1348 37.4821 11.158 37.9077 11.158 39.8264C11.158 41.1158 11.1349 42.1708 11.1065 42.1708C10.9445 42.1708 10.4896 41.8536 10.234 41.5625C9.8742 41.1528 9.70822 40.7704 9.62551 40.1607C9.591 39.9062 9.50004 39.6022 9.42334 39.4853C9.23214 39.1934 8.69913 39.1006 8.38715 39.3051C8.02312 39.5436 7.93704 39.8689 8.05172 40.5723C8.25905 41.8438 9.14371 43.0387 10.2806 43.583C10.5975 43.7346 10.914 43.8602 10.9839 43.862C11.0539 43.8639 11.1956 44.0433 11.2987 44.2606C11.6386 44.9767 12.3655 44.9831 12.6959 44.2729C12.8434 43.9558 12.9409 43.8722 13.2632 43.786C14.2449 43.5234 15.3367 42.4648 15.7413 41.3833C16.4653 39.4481 15.6243 37.3373 13.7569 36.4032C13.3968 36.2229 13.0445 36.0755 12.974 36.0755C12.8692 36.0755 12.846 35.65 12.846 33.7312C12.846 32.3626 12.882 31.3869 12.9324 31.3869C12.98 31.3869 13.2015 31.5249 13.4247 31.6936C13.9022 32.0544 14.3148 32.8137 14.3983 33.4851C14.4982 34.289 15.1279 34.638 15.6861 34.1989C15.9959 33.9553 16.0702 33.5932 15.9471 32.9273C15.6796 31.4799 14.5553 30.1698 13.254 29.7889C12.9317 29.6946 12.8405 29.6128 12.7226 29.3125C12.5328 28.8294 12.1358 28.6631 11.6436 28.8605ZM35.6494 28.8605C35.5297 28.9085 35.3615 29.1122 35.2757 29.3132C35.1411 29.6284 35.0523 29.6999 34.6312 29.8326C34.0114 30.028 33.2788 30.5767 32.817 31.1913C31.3078 33.1998 31.9872 36.0209 34.253 37.1545C34.6131 37.3347 34.9654 37.4821 35.0358 37.4821C35.1406 37.4821 35.1639 37.9077 35.1639 39.8264C35.1639 41.1158 35.1407 42.1708 35.1123 42.1708C34.9504 42.1708 34.4955 41.8536 34.2399 41.5625C33.88 41.1528 33.7141 40.7704 33.6314 40.1607C33.5969 39.9062 33.5059 39.6022 33.4292 39.4853C33.238 39.1934 32.705 39.1006 32.393 39.3051C32.029 39.5436 31.9429 39.8689 32.0576 40.5723C32.2649 41.8438 33.1496 43.0387 34.2865 43.583C34.6033 43.7346 34.9198 43.8602 34.9898 43.862C35.0597 43.8639 35.2014 44.0433 35.3046 44.2606C35.6445 44.9767 36.3713 44.9831 36.7018 44.2729C36.8493 43.9558 36.9467 43.8722 37.2691 43.786C38.2507 43.5234 39.3425 42.4648 39.7471 41.3833C40.4712 39.4481 39.6301 37.3373 37.7627 36.4032C37.4026 36.2229 37.0503 36.0755 36.9799 36.0755C36.8751 36.0755 36.8518 35.65 36.8518 33.7312C36.8518 32.3626 36.8878 31.3869 36.9383 31.3869C36.9859 31.3869 37.2074 31.5249 37.4306 31.6936C37.9081 32.0544 38.3207 32.8137 38.4041 33.4851C38.5041 34.289 39.1338 34.638 39.692 34.1989C40.0017 33.9553 40.0761 33.5932 39.953 32.9273C39.6854 31.4799 38.5612 30.1698 37.2598 29.7889C36.9375 29.6946 36.8464 29.6128 36.7285 29.3125C36.5387 28.8294 36.1417 28.6631 35.6494 28.8605ZM11.158 33.5905C11.158 34.8733 11.1219 35.7942 11.0716 35.7942C11.0239 35.7942 10.8029 35.6552 10.5802 35.4854C9.66696 34.7888 9.37495 33.4828 9.91068 32.49C10.1462 32.0535 10.8477 31.3869 11.0716 31.3869C11.1219 31.3869 11.158 32.3078 11.158 33.5905ZM35.1639 33.5905C35.1639 34.8733 35.1278 35.7942 35.0774 35.7942C35.0298 35.7942 34.8088 35.6552 34.5861 35.4854C33.6728 34.7888 33.3808 33.4828 33.9165 32.49C34.1521 32.0535 34.8536 31.3869 35.0774 31.3869C35.1278 31.3869 35.1639 32.3078 35.1639 33.5905ZM13.8402 38.4718C14.3578 39.1486 14.5129 40.1551 14.2108 40.8779C13.9766 41.4388 13.2329 42.1708 12.8975 42.1708C12.8691 42.1708 12.846 41.1764 12.846 39.9611V37.7514L13.2336 37.9684C13.4468 38.0878 13.7197 38.3143 13.8402 38.4718ZM37.8461 38.4718C38.3636 39.1486 38.5187 40.1551 38.2167 40.8779C37.9824 41.4388 37.2387 42.1708 36.9034 42.1708C36.875 42.1708 36.8518 41.1764 36.8518 39.9611V37.7514L37.2395 37.9684C37.4526 38.0878 37.7256 38.3143 37.8461 38.4718Z" fill="white"/>
</svg>
