<svg width="48" height="48" viewBox="0 0 48 48" fill="none" xmlns="http://www.w3.org/2000/svg">
<path fill-rule="evenodd" clip-rule="evenodd" d="M3.69368 0.130314C3.53365 0.19997 3.30162 0.39872 3.17805 0.57197L2.95343 0.88697L2.92943 23.0354L2.90543 45.1838L1.94505 45.1842C1.15221 45.1845 0.93143 45.217 0.679148 45.3709C-0.226383 45.923 -0.226383 47.2572 0.679148 47.8093C0.980273 47.993 1.1794 47.9957 14.6019 47.996L28.219 47.9963L28.2187 28.7073C28.2184 9.75337 28.2152 9.41297 28.0357 9.11859C27.9352 8.95387 27.7538 8.754 27.6325 8.67459C27.1735 8.37384 4.66062 -0.00365505 4.32124 1.19644e-06C4.13618 0.0020637 3.85371 0.0606574 3.69368 0.130314ZM13.4645 14.4865C13.9291 14.8338 14.0989 15.1458 14.0989 15.6526C14.0989 16.1594 13.9291 16.4714 13.4645 16.8187C13.2333 16.9914 13.0456 17.0153 11.6981 17.0439C9.81565 17.0838 9.45968 17.0334 9.04455 16.6689C8.25405 15.9748 8.52724 14.6524 9.52568 14.34C9.67502 14.2933 10.5641 14.2637 11.5016 14.2742C13.0599 14.2916 13.228 14.3098 13.4645 14.4865ZM21.902 14.4865C22.3666 14.8338 22.5364 15.1458 22.5364 15.6526C22.5364 16.1594 22.3666 16.4714 21.902 16.8187C21.6708 16.9914 21.4831 17.0153 20.1355 17.0439C18.2531 17.0838 17.8972 17.0334 17.482 16.6689C16.6916 15.9748 16.9647 14.6524 17.9632 14.34C18.1125 14.2933 19.0016 14.2637 19.939 14.2742C21.4974 14.2916 21.6655 14.3098 21.902 14.4865ZM31.0315 31.7776V47.9963L39.0237 47.996C46.8333 47.9957 47.0229 47.9914 47.3215 47.8093C48.227 47.2572 48.227 45.923 47.3215 45.3709C47.0692 45.217 46.8484 45.1845 46.055 45.1842L45.094 45.1838L45.0937 33.0198C45.0934 21.1281 45.0893 20.849 44.9107 20.5561C44.8102 20.3914 44.631 20.1942 44.5126 20.1182C44.3451 20.0106 31.2172 15.5588 31.0675 15.5588C31.0477 15.5588 31.0315 22.8573 31.0315 31.7776ZM13.4645 20.1115C13.9291 20.4588 14.0989 20.7708 14.0989 21.2776C14.0989 21.7844 13.9291 22.0964 13.4645 22.4437C13.2333 22.6164 13.0456 22.6403 11.6981 22.6689C9.81565 22.7088 9.45968 22.6584 9.04455 22.2939C8.25405 21.5998 8.52724 20.2774 9.52568 19.965C9.67502 19.9183 10.5641 19.8887 11.5016 19.8992C13.0599 19.9166 13.228 19.9348 13.4645 20.1115ZM21.902 20.1115C22.3666 20.4588 22.5364 20.7708 22.5364 21.2776C22.5364 21.7844 22.3666 22.0964 21.902 22.4437C21.6708 22.6164 21.4831 22.6403 20.1355 22.6689C18.2531 22.7088 17.8972 22.6584 17.482 22.2939C16.6916 21.5998 16.9647 20.2774 17.9632 19.965C18.1125 19.9183 19.0016 19.8887 19.939 19.8992C21.4974 19.9166 21.6655 19.9348 21.902 20.1115ZM13.4645 25.7365C13.9291 26.0838 14.0989 26.3958 14.0989 26.9026C14.0989 27.4094 13.9291 27.7214 13.4645 28.0686C13.2333 28.2414 13.0456 28.2653 11.6981 28.2939C9.81565 28.3338 9.45968 28.2834 9.04455 27.9189C8.25405 27.2248 8.52724 25.9024 9.52568 25.59C9.67502 25.5433 10.5641 25.5137 11.5016 25.5242C13.0599 25.5416 13.228 25.5598 13.4645 25.7365ZM21.902 25.7365C22.3666 26.0838 22.5364 26.3958 22.5364 26.9026C22.5364 27.4094 22.3666 27.7214 21.902 28.0686C21.6708 28.2414 21.4831 28.2653 20.1355 28.2939C18.2531 28.3338 17.8972 28.2834 17.482 27.9189C16.6916 27.2248 16.9647 25.9024 17.9632 25.59C18.1125 25.5433 19.0016 25.5137 19.939 25.5242C21.4974 25.5416 21.6655 25.5598 21.902 25.7365ZM41.5894 25.7365C42.054 26.0837 42.2239 26.3958 42.2239 26.9026C42.2239 27.4094 42.054 27.7215 41.5894 28.0686C41.3432 28.2526 41.1891 28.2634 38.4077 28.2915C36.8 28.3078 35.3036 28.2944 35.0823 28.2618C34.2653 28.1413 33.7217 27.3303 33.9327 26.5465C34.0432 26.1365 34.4451 25.7124 34.8382 25.5913C34.9875 25.5454 36.5094 25.5157 38.2202 25.5255C41.2009 25.5425 41.3414 25.5513 41.5894 25.7365ZM13.4645 31.3615C13.9291 31.7088 14.0989 32.0208 14.0989 32.5276C14.0989 33.0344 13.9291 33.3464 13.4645 33.6936C13.2333 33.8664 13.0456 33.8903 11.6981 33.9189C9.81565 33.9588 9.45968 33.9084 9.04455 33.5439C8.25405 32.8498 8.52724 31.5274 9.52568 31.215C9.67502 31.1683 10.5641 31.1387 11.5016 31.1492C13.0599 31.1666 13.228 31.1848 13.4645 31.3615ZM21.902 31.3615C22.3666 31.7088 22.5364 32.0208 22.5364 32.5276C22.5364 33.0344 22.3666 33.3464 21.902 33.6936C21.6708 33.8664 21.4831 33.8903 20.1355 33.9189C18.2531 33.9588 17.8972 33.9084 17.482 33.5439C16.6916 32.8498 16.9647 31.5274 17.9632 31.215C18.1125 31.1683 19.0016 31.1387 19.939 31.1492C21.4974 31.1666 21.6655 31.1848 21.902 31.3615ZM41.5894 31.3615C42.054 31.7087 42.2239 32.0208 42.2239 32.5276C42.2239 33.0344 42.054 33.3465 41.5894 33.6936C41.3432 33.8776 41.1891 33.8884 38.4077 33.9165C36.8 33.9328 35.3036 33.9194 35.0823 33.8868C34.2653 33.7663 33.7217 32.9553 33.9327 32.1715C34.0432 31.7615 34.4451 31.3374 34.8382 31.2163C34.9875 31.1704 36.5094 31.1407 38.2202 31.1505C41.2009 31.1675 41.3414 31.1763 41.5894 31.3615ZM14.1566 40.9651V45.1838H11.3441H8.53155L8.53211 41.6448C8.5324 39.6031 8.57177 37.9646 8.62521 37.7722C8.73424 37.3799 9.14318 36.9581 9.52568 36.8436C9.67502 36.799 10.7781 36.7588 11.9769 36.7544L14.1566 36.7463V40.9651ZM21.9019 36.9865C22.0442 37.0928 22.2475 37.2963 22.3539 37.4386C22.5404 37.6882 22.5481 37.8285 22.5746 41.4406L22.6021 45.1838H19.7856H16.9691V40.9592V36.7344L19.3061 36.7639C21.4954 36.7913 21.6596 36.8054 21.9019 36.9865ZM41.5894 36.9865C41.7317 37.0928 41.935 37.2963 42.0414 37.4386C42.2279 37.6882 42.2356 37.8285 42.2621 41.4406L42.2896 45.1838H40.8793H39.469V42.3713V39.5588H38.0628H36.6565V42.3713V45.1838H35.2503H33.844L33.8446 41.6448C33.8449 39.6031 33.8843 37.9646 33.9377 37.7722C34.0464 37.3811 34.4542 36.9596 34.8382 36.8413C34.9875 36.7954 36.5094 36.7657 38.2202 36.7755C41.2009 36.7925 41.3414 36.8013 41.5894 36.9865Z" fill="white"/>
</svg>
