<svg width="48" height="59" viewBox="0 0 48 59" fill="none" xmlns="http://www.w3.org/2000/svg">
<path fill-rule="evenodd" clip-rule="evenodd" d="M1.324 0.349187C-0.0434493 1.10685 0.0102791 -0.0746372 0.000368147 29.409C-0.00615219 49.1421 0.0733941 57.0372 0.282566 57.4464C0.442706 57.7597 0.824276 58.2187 1.13021 58.4667C1.64766 58.8859 3.24619 58.9174 23.9861 58.9174C44.7259 58.9174 46.3245 58.8859 46.8419 58.4667C47.1479 58.2187 47.5294 57.7597 47.6896 57.4464C48.1035 56.6371 48.1035 2.27686 47.6896 1.46755C47.5294 1.15432 47.1479 0.695287 46.8419 0.447253C46.3245 0.028126 44.7359 -0.00317278 24.1165 0.000217798C6.20746 0.00282593 1.82763 0.0698563 1.324 0.349187ZM40.3078 4.0929C40.7647 5.63822 41.3873 6.4024 42.6984 7.02705L44.0669 7.67909L44.0677 29.4896L44.0687 51.3001L43.2281 51.4683C42.1087 51.6921 40.7313 53.0684 40.4017 54.2922L40.1354 55.2814L23.9511 55.2144L7.76713 55.1471L7.41268 54.1039C6.99147 52.8645 5.69757 51.6926 4.50227 51.4686L3.64263 51.3072V29.4693V7.63136L4.66162 7.32594C5.84415 6.9715 7.2455 5.50938 7.46771 4.39753L7.62003 3.63648H23.8963C39.1724 3.63648 40.1813 3.66465 40.3078 4.0929ZM16.0263 8.69469C15.1315 9.08461 13.5535 10.7682 13.5535 11.3331C13.5535 11.6304 13.6957 11.6547 14.2345 11.4499C15.2238 11.0738 17.1371 9.64718 17.6003 8.94038C17.9785 8.3632 17.9681 8.33164 17.4065 8.34129C17.0805 8.34703 16.4595 8.50586 16.0263 8.69469ZM30.3718 8.94038C30.835 9.64718 32.7484 11.0738 33.7376 11.4499C34.7071 11.8185 34.6387 11.2082 33.5751 9.99667C32.7095 9.01106 31.4578 8.33112 30.5087 8.33112C30.0069 8.33112 29.9983 8.36998 30.3718 8.94038ZM12.1986 9.56372C11.5247 10.336 11.2062 11.1226 11.2062 12.0151C11.2062 12.7918 11.176 12.8234 10.8546 12.3836C10.6611 12.1192 10.3721 11.9835 10.2123 12.0824C9.77852 12.3505 9.37165 14.0724 9.56152 14.8355C9.71175 15.4385 9.68515 15.4683 9.28715 15.1402C8.67919 14.6394 8.50888 14.9075 8.48671 16.3994C8.46533 17.8425 9.1823 19.098 10.1064 19.236C10.9245 19.358 12.1324 18.6236 12.7458 17.6307C13.3957 16.5793 13.4171 16.4163 12.9054 16.4163C12.6741 16.4163 12.9109 16.0473 13.4922 15.5011C14.3801 14.6671 14.4273 14.5557 14.0246 14.2443C13.6266 13.9363 13.6691 13.8713 14.4554 13.5868C15.6119 13.1687 16.1398 12.5542 15.6233 12.2274C15.0605 11.8714 14.1424 11.9343 13.2622 12.3896C12.4915 12.7882 12.4811 12.785 12.7677 12.2498C13.1506 11.5344 13.2168 9.71578 12.8723 9.37124C12.6861 9.18502 12.4769 9.24475 12.1986 9.56372ZM34.9642 9.70248C34.7271 10.3261 34.9238 11.8443 35.3257 12.495C35.4444 12.687 35.2104 12.6484 34.7211 12.3954C33.8307 11.9348 32.9137 11.8701 32.3488 12.2274C31.8324 12.5542 32.3603 13.1687 33.5167 13.5868C34.3031 13.8713 34.3456 13.9363 33.9476 14.2443C33.5449 14.5557 33.5921 14.6671 34.4799 15.5011C35.0612 16.0473 35.2981 16.4163 35.0667 16.4163C34.555 16.4163 34.5764 16.5793 35.2263 17.6307C35.8398 18.6236 37.0476 19.358 37.8658 19.236C38.7898 19.098 39.5068 17.8425 39.4854 16.3994C39.4635 14.9101 39.2924 14.6389 38.6907 15.1383C38.3021 15.4607 38.275 15.438 38.4372 14.9273C38.6474 14.2646 38.1934 12.3503 37.7625 12.084C37.6013 11.9843 37.311 12.1192 37.1175 12.3836C36.7959 12.8236 36.7659 12.7923 36.7659 12.0193C36.7659 11.0968 36.2498 9.92025 35.6139 9.39211C35.2715 9.10808 35.1721 9.15555 34.9642 9.70248ZM22.2397 10.667C21.0743 11.3774 20.5517 12.2905 20.5311 13.6509C20.4823 16.8683 24.2409 18.3696 26.554 16.0567C27.4079 15.2025 27.507 14.9618 27.507 13.7386C27.507 10.8675 24.6464 9.19937 22.2397 10.667ZM12.4602 14.2936C12.2724 14.351 11.9138 14.5768 11.6626 14.7954C11.2372 15.166 11.2062 15.1188 11.2062 14.1016V13.0101L12.0038 13.5998C12.5058 13.9709 12.6749 14.2281 12.4602 14.2936ZM36.7659 14.1094C36.7659 15.1428 36.7438 15.173 36.2889 14.7615C36.0265 14.5241 35.6452 14.3293 35.4413 14.3285C35.2318 14.3277 35.4107 14.0484 35.8531 13.6859C36.2834 13.3333 36.665 13.0404 36.7007 13.0351C36.7365 13.0299 36.7659 13.5135 36.7659 14.1094ZM11.1692 16.4163H11.8105L11.1822 17.0172C10.8369 17.3477 10.5213 17.5986 10.4809 17.5743C10.4407 17.5501 10.296 17.1409 10.1596 16.6649C9.96839 15.999 9.98222 15.8705 10.2196 16.1078C10.3893 16.2776 10.8166 16.4163 11.1692 16.4163ZM37.799 16.7126C37.6699 17.1625 37.5314 17.5501 37.4912 17.5743C37.4508 17.5986 37.1352 17.3477 36.7899 17.0172L36.1616 16.4163H36.8397C37.2124 16.4163 37.5901 16.299 37.6788 16.1555C37.9831 15.6631 38.0332 15.8957 37.799 16.7126ZM7.88658 19.4725C8.05585 20.9751 9.28584 22.2831 10.3401 22.0815C10.8176 21.9902 10.9394 22.0543 10.8301 22.3391C10.7501 22.5478 10.6846 22.9648 10.6846 23.2658C10.6846 23.7204 10.5265 23.6283 9.7514 22.7228C8.80855 21.6211 7.81564 21.2758 7.81564 22.0496C7.81564 23.6724 9.79078 25.3954 11.013 24.8385C11.5875 24.5767 11.611 24.6059 11.5108 25.4624L11.406 26.3609L10.8385 25.8278C10.2482 25.273 8.6638 24.6098 8.44707 24.8265C8.10227 25.1711 9.12179 26.7349 10.1559 27.4477C10.7939 27.8874 10.7944 27.8921 10.2211 27.8921C9.38939 27.8921 9.49945 28.2249 10.6854 29.2963C12.5392 30.9713 14.5968 30.4283 14.5968 28.2643C14.5968 27.3499 14.1221 25.8056 13.841 25.8056C13.7403 25.8056 13.5462 25.9172 13.4101 26.0534C13.2536 26.2099 13.1623 25.8335 13.1623 25.0318C13.1623 23.5605 12.9581 23.24 12.3434 23.747C11.9435 24.0772 11.931 24.0584 12.2067 23.5407C12.3736 23.2272 12.5103 22.54 12.5103 22.0131C12.5103 21.2789 12.4211 21.0893 12.1282 21.2017C11.8384 21.3131 11.8817 21.0687 12.3076 20.1921C12.6167 19.5563 12.7925 18.9587 12.6983 18.8646C12.3363 18.5028 10.8747 19.3933 10.543 20.1775L10.2034 20.9806L9.90502 20.1981C9.53701 19.2334 8.63616 18.242 8.12757 18.242C7.8292 18.242 7.77756 18.5057 7.88658 19.4725ZM38.9153 18.8289C38.613 19.1517 38.2312 19.7678 38.0671 20.1981L37.7688 20.9806L37.4292 20.1775C37.0974 19.3933 35.6358 18.5028 35.2738 18.8646C35.1797 18.9587 35.3554 19.5563 35.6645 20.1921C36.0904 21.0687 36.1337 21.3131 35.8439 21.2017C35.629 21.1193 35.4493 21.2101 35.4329 21.4091C35.3721 22.1545 35.5258 23.0877 35.792 23.5887C36.0411 24.0582 36.0247 24.0741 35.6288 23.747C35.014 23.24 34.8098 23.5605 34.8098 25.0318C34.8098 25.8335 34.7185 26.2099 34.562 26.0534C34.4259 25.9172 34.2319 25.8056 34.1312 25.8056C33.85 25.8056 33.3753 27.3499 33.3753 28.2643C33.3753 30.4283 35.4329 30.9713 37.2868 29.2963C38.4727 28.2249 38.5827 27.8921 37.751 27.8921C37.1777 27.8921 37.1785 27.8874 37.8162 27.4487C38.5238 26.9623 39.1388 26.2135 39.4346 25.478C39.8464 24.4538 38.4049 24.6888 37.1225 25.8549L36.5661 26.3609L36.4613 25.4624C36.3611 24.6059 36.3846 24.5767 36.9592 24.8385C38.1814 25.3954 40.1565 23.6724 40.1565 22.0496C40.1565 21.2758 39.1636 21.6211 38.2207 22.7228C37.4456 23.6283 37.2876 23.7204 37.2876 23.2658C37.2876 22.9648 37.2221 22.5478 37.142 22.3391C37.0327 22.0543 37.1545 21.9902 37.6321 22.0815C38.6863 22.2831 39.9163 20.9751 40.0856 19.4725C40.2454 18.0553 39.8459 17.8354 38.9153 18.8289ZM19.3381 18.7994C17.9921 19.1872 17.7265 20.1465 17.7265 24.6236C17.7265 29.7994 17.2829 29.457 23.9861 29.457C30.696 29.457 30.2458 29.8088 30.2451 24.5667C30.2445 19.3064 29.876 18.6051 27.072 18.5289C26.1373 18.5034 26.101 18.5391 25.5084 20.0677C25.1746 20.9284 24.8128 21.6326 24.7046 21.6326C24.4094 21.6326 24.4673 19.8627 24.7685 19.6765C24.912 19.5878 25.0293 19.2876 25.0293 19.0091C25.0293 18.5923 24.8449 18.5028 23.9861 18.5028C23.1272 18.5028 22.9428 18.5923 22.9428 19.0091C22.9428 19.2876 23.0602 19.5878 23.2036 19.6765C23.5049 19.8627 23.5628 21.6326 23.2675 21.6326C23.1593 21.6326 22.7975 20.9284 22.4637 20.0677C21.8949 18.6004 21.8054 18.5044 21.0305 18.5263C20.5762 18.5394 19.8146 18.6622 19.3381 18.7994ZM36.4368 28.0178C36.4026 28.0356 36.0641 28.244 35.6843 28.481L34.9937 28.9124L35.0323 27.9232L35.0706 26.9336L35.7847 27.4597C36.1773 27.7489 36.4707 28.0001 36.4368 28.0178ZM13.0058 28.5971C13.0233 28.8086 12.7781 28.7661 12.2536 28.4667L11.4756 28.0225L12.058 27.5786C12.6167 27.153 12.6477 27.1585 12.8102 27.709C12.9036 28.0249 12.9915 28.4247 13.0058 28.5971ZM15.8849 31.8286C17.5547 33.3854 17.5661 33.3909 17.8971 32.7949C18.08 32.4652 18.2338 32.1217 18.239 32.0317C18.244 31.9415 17.5414 31.6038 16.6778 31.2806C15.814 30.9577 15.0443 30.5913 14.9671 30.4663C14.8899 30.3417 14.687 30.2447 14.5162 30.2509C14.3454 30.2574 14.9614 30.9671 15.8849 31.8286ZM32.9909 30.4893C32.9059 30.627 32.136 30.9948 31.2802 31.3067C30.4242 31.6189 29.7281 31.9465 29.7331 32.0349C29.7383 32.1233 29.8922 32.4652 30.075 32.7949C30.406 33.3909 30.4175 33.3854 32.0872 31.8286C33.0107 30.9671 33.6268 30.2574 33.4559 30.2509C33.2851 30.2447 33.0757 30.3518 32.9909 30.4893ZM8.79369 39.9104C8.29971 40.1983 8.15991 41.5749 8.5973 41.8451C9.09806 42.1547 38.9041 41.9972 39.2825 41.6831C39.7754 41.2739 39.7215 40.5703 39.1578 40.0604C38.7257 39.6691 37.2993 39.6295 23.9655 39.6365C14.4567 39.6418 9.08867 39.7385 8.79369 39.9104ZM9.49215 44.0255C8.30362 44.2459 7.87928 45.6248 8.84168 46.1399C9.53727 46.5121 38.4349 46.5121 39.1305 46.1399C39.7144 45.8275 39.8 44.785 39.2773 44.3513C39.0212 44.1387 34.8043 44.037 24.4574 43.9932C16.5033 43.9595 9.76887 43.9741 9.49215 44.0255ZM8.65024 48.5485C8.21703 48.9818 8.25902 49.6849 8.747 50.1731C9.11006 50.5362 10.8617 50.5829 24.0828 50.5829C35.3442 50.5829 39.0859 50.5059 39.3219 50.2699C39.7243 49.8675 39.7243 48.951 39.3219 48.5485C38.8702 48.0968 9.10197 48.0968 8.65024 48.5485Z" fill="white"/>
</svg>
