<svg width="48" height="40" viewBox="0 0 48 40" fill="none" xmlns="http://www.w3.org/2000/svg">
<path fill-rule="evenodd" clip-rule="evenodd" d="M6.39851 0.408962C5.19131 0.957267 4.16614 2.24763 3.88082 3.57803C3.73396 4.26302 3.64947 9.65517 3.64947 18.3502V32.0434L1.82473 32.1078L0 32.1719L0.0112803 34.052C0.0190216 35.345 0.13492 36.1434 0.38242 36.609C0.922541 37.6251 2.09855 38.6791 2.97819 38.935C3.48557 39.0825 8.15291 39.1389 16.2731 39.0955L28.7861 39.0285L29.5797 38.4846C30.7469 37.6846 31.4785 36.419 31.65 34.9035L31.7964 33.6096L32.7079 33.6023C33.2093 33.5983 34.1356 33.4167 34.7666 33.1987L35.9141 32.8023L39.0763 35.97C40.8154 37.7123 42.5537 39.2875 42.9388 39.4702C45.6635 40.7632 48.6587 38.2502 47.8724 35.3311C47.6671 34.568 47.0184 33.7874 44.3083 31.0417L40.9953 27.6851L41.3498 26.6405C42.1688 24.228 41.9939 21.4244 40.8767 19.0573C40.2041 17.6322 38.2139 15.4353 36.8959 14.6629C35.6971 13.9604 33.501 13.2611 32.4938 13.2611H31.7393V9.16923V5.07741H35.4994C39.2517 5.07741 39.2594 5.0763 39.2581 4.57975C39.2541 2.91139 38.0673 1.1163 36.4967 0.402769C35.6686 0.0265422 34.6744 0 21.4545 0C8.15667 0 7.24431 0.0247728 6.39851 0.408962ZM31.1996 1.74511C30.3611 2.67163 30.2107 3.69525 30.2008 8.54949L30.1911 13.2383L28.845 13.6158C24.0644 14.9573 20.7252 20.0964 21.5195 24.8903C22.1934 28.9566 25.3698 32.4517 29.251 33.3975C30.1873 33.6258 30.1911 33.6308 30.1911 34.6427C30.1911 37.0954 27.6446 38.6178 25.6135 37.3794C24.4643 36.6787 24.1484 35.9838 24.04 33.9177L23.9425 32.0614H14.5702H5.19773V17.828V3.59462L5.69981 2.84305C6.74577 1.27754 6.37352 1.31801 19.664 1.31779C31.4367 1.31735 31.5818 1.32266 31.1996 1.74511ZM35.9331 1.67146C36.6893 1.97403 37.7112 3.08834 37.7112 3.61054C37.7112 3.68751 36.3675 3.75033 34.7252 3.75033C33.083 3.75033 31.7393 3.69105 31.7393 3.6185C31.7393 3.14429 32.6391 2.13129 33.3909 1.75927C34.4696 1.22534 34.7903 1.21428 35.9331 1.67146ZM8.06886 5.41404C7.83795 5.69251 8.00959 6.36135 9.06063 9.27717C10.3271 12.7908 10.6739 13.4137 11.2424 13.1956C11.5551 13.0755 14.0449 6.46487 14.0449 5.75399C14.0449 5.234 13.3902 4.97279 13.0213 5.3457C12.8665 5.50229 12.3463 6.7252 11.865 8.06333C11.3656 9.45212 10.9354 10.3539 10.8628 10.1645C10.7927 9.98207 10.3786 8.83923 9.94248 7.62496C9.03321 5.09245 8.68087 4.67685 8.06886 5.41404ZM17.158 5.48902C17.0368 5.71529 16.3839 7.42612 15.7069 9.29088C14.5974 12.3474 14.5098 12.715 14.8177 13.0226C15.3037 13.5086 15.7911 13.1317 16.235 11.9269C16.5934 10.9542 16.6161 10.9376 17.6997 10.8736L18.8003 10.8088L19.2008 11.9364C19.6364 13.1631 20.0887 13.5052 20.5994 12.9945C20.8878 12.7059 20.7783 12.2538 19.6675 9.14888C18.9752 7.21378 18.3106 5.50605 18.1905 5.35388C17.8744 4.95399 17.4119 5.01437 17.158 5.48902ZM20.8907 5.42222C20.3426 6.08267 20.9024 6.50755 22.4175 6.58099L23.7768 6.64668V9.85025C23.7768 12.5057 23.8341 13.0757 24.1115 13.1821C24.2955 13.2529 24.5941 13.1876 24.775 13.0374C25.0371 12.8198 25.1039 12.1419 25.1039 9.6952V6.62567H26.2782C27.6961 6.62567 28.438 6.19525 28.066 5.58811C27.8503 5.23555 27.427 5.1807 24.5036 5.12717C21.6752 5.07519 21.1426 5.11877 20.8907 5.42222ZM18.1248 9.00335C18.2564 9.43332 18.1967 9.501 17.6855 9.501C17.2091 9.501 17.1251 9.4258 17.2534 9.11394C17.3412 8.90094 17.4659 8.5413 17.5307 8.3146C17.6601 7.86184 17.8393 8.06953 18.1248 9.00335ZM33.8494 14.9314C40.412 16.6402 42.6625 24.7721 37.9202 29.6408C33.6656 34.0091 26.3343 32.7494 23.6877 27.1954C23.0567 25.8707 23.0027 25.575 23.0027 23.4353C23.0027 21.3786 23.0706 20.9683 23.5955 19.8482C25.4596 15.871 29.6819 13.8463 33.8494 14.9314ZM7.63071 17.0211C7.63071 17.611 7.70436 17.6847 8.29425 17.6847C8.88413 17.6847 8.95779 17.611 8.95779 17.0211C8.95779 16.4312 8.88413 16.3576 8.29425 16.3576C7.70436 16.3576 7.63071 16.4312 7.63071 17.0211ZM10.0637 17.0211V17.6847H15.1508H20.238V17.0211V16.3576H15.1508H10.0637V17.0211ZM27.8499 18.2201C25.7867 19.1186 25.6454 21.9174 27.6159 22.8525C28.5554 23.2984 29.1453 23.3088 29.948 22.8937C31.7829 21.9448 31.7484 19.1489 29.8909 18.2675C28.9825 17.8364 28.7441 17.8309 27.8499 18.2201ZM31.1366 23.4524C28.8527 26.0163 26.9625 28.181 26.9362 28.263C26.9099 28.3449 27.1233 28.5826 27.4102 28.7914L27.9321 29.1712L32.1646 24.3926C36.2045 19.8312 36.3801 19.5952 36.0245 19.2022C35.8196 18.9759 35.5704 18.7906 35.4706 18.7906C35.3709 18.7906 33.4205 20.8882 31.1366 23.4524ZM29.741 19.8819C30.113 20.577 30.0053 21.1901 29.4468 21.5562C28.307 22.3029 26.9736 20.8856 27.8766 19.8876C28.3884 19.3223 29.4397 19.319 29.741 19.8819ZM7.63071 20.8953V21.6728L13.879 21.6141L20.1274 21.5553L20.1966 20.8365L20.2661 20.1176H13.9483H7.63071V20.8953ZM34.5041 23.9582C33.3922 24.4634 32.9558 25.1265 32.9558 26.3107C32.9558 29.3006 37.0888 29.877 37.9487 27.0069C38.5559 24.9803 36.4184 23.0883 34.5041 23.9582ZM7.63071 24.6664C7.63071 25.3965 7.67605 25.4501 8.23895 25.3853C8.74567 25.3271 8.8587 25.1955 8.91643 24.5965C8.98101 23.9268 8.93943 23.8777 8.30818 23.8777C7.67892 23.8777 7.63071 23.9339 7.63071 24.6664ZM10.0637 24.6518V25.426H15.1508H20.238V24.6518V23.8777H15.1508H10.0637V24.6518ZM36.3399 25.4702C36.4858 25.6162 36.6053 25.9944 36.6053 26.3107C36.6053 27.0527 36.2286 27.4166 35.4602 27.4166C35.0491 27.4166 34.7261 27.2337 34.4837 26.8636C34.1482 26.3514 34.1482 26.27 34.4837 25.7577C34.8785 25.1552 35.8712 25.0015 36.3399 25.4702ZM7.63071 28.4119V29.186H13.9343H20.238V28.4119V27.6378H13.9343H7.63071V28.4119ZM40.8329 30.6989C40.5708 31.0669 39.8918 31.7769 39.3242 32.2766L38.292 33.1852L37.7393 32.6322L37.1863 32.0793L37.8357 31.5728C38.7122 30.8889 40.138 29.3479 40.1415 29.0805C40.1428 28.9615 40.4062 29.1265 40.7267 29.447L41.3095 30.0296L40.8329 30.6989ZM44.5271 33.248C46.4042 35.1623 46.5584 35.3866 46.5584 36.2041C46.5584 37.3265 45.9037 38.1911 44.9132 38.3769C43.8962 38.5678 43.4331 38.2827 41.2237 36.107L39.3174 34.2294L40.7814 32.7245C41.5865 31.8966 42.3018 31.2098 42.3705 31.1981C42.4393 31.1861 43.4097 32.1087 44.5271 33.248ZM22.6709 34.6826C22.6709 35.399 22.8525 36.0972 23.2177 36.7838L23.7645 37.812H13.7957C4.94182 37.812 3.73993 37.7707 3.04852 37.4427C2.00721 36.9485 1.43944 35.9674 1.43855 34.6602L1.43767 33.6096H12.0543H22.6709V34.6826Z" fill="white"/>
</svg>
